<svg width="16" height="16" viewBox="0 0 16 16" fill="none" xmlns="http://www.w3.org/2000/svg">
<g clip-path="url(#clip0_862_412)">
<path fill-rule="evenodd" clip-rule="evenodd" d="M5.371 1.07201C5.2445 1.02141 5.10899 0.997195 4.97279 1.00085C4.8366 1.0045 4.70258 1.03595 4.57897 1.09325C4.45537 1.15056 4.34477 1.23253 4.25398 1.33411C4.16319 1.4357 4.09412 1.55477 4.051 1.68401L2.28 7.00001H1C0.734784 7.00001 0.48043 7.10537 0.292893 7.29291C0.105357 7.48044 0 7.7348 0 8.00001C0 8.26523 0.105357 8.51958 0.292893 8.70712C0.48043 8.89466 0.734784 9.00001 1 9.00001H15C15.2652 9.00001 15.5196 8.89466 15.7071 8.70712C15.8946 8.51958 16 8.26523 16 8.00001C16 7.7348 15.8946 7.48044 15.7071 7.29291C15.5196 7.10537 15.2652 7.00001 15 7.00001H13.72L11.95 1.68401C11.9069 1.55477 11.8378 1.4357 11.747 1.33411C11.6562 1.23253 11.5456 1.15056 11.422 1.09325C11.2984 1.03595 11.1644 1.0045 11.0282 1.00085C10.892 0.997195 10.7565 1.02141 10.63 1.07201L8 2.12301L5.371 1.07201ZM11.613 7.00001L10.387 3.32201L8.371 4.12801C8.13282 4.22317 7.86718 4.22317 7.629 4.12801L5.613 3.32201L4.387 7.00001H11.613Z" fill="#EFEFEF"/>
<path d="M2 11C1.73478 11 1.48043 11.1054 1.29289 11.2929C1.10536 11.4804 1 11.7348 1 12C1 12.2652 1.10536 12.5196 1.29289 12.7071C1.48043 12.8946 1.73478 13 2 13C2.552 13 2.98 13.475 3.244 13.959C3.41624 14.2742 3.67019 14.5372 3.97918 14.7204C4.28817 14.9036 4.64079 15.0002 5 15H5.558C5.97781 15.0002 6.38702 14.8682 6.72767 14.6229C7.06832 14.3775 7.32313 14.0312 7.456 13.633L7.561 13.316C7.59184 13.224 7.65081 13.144 7.72959 13.0873C7.80836 13.0306 7.90295 13.0001 8 13.0001C8.09705 13.0001 8.19164 13.0306 8.27041 13.0873C8.34919 13.144 8.40816 13.224 8.439 13.316L8.544 13.632C8.67664 14.0302 8.93123 14.3767 9.27169 14.6222C9.61216 14.8677 10.0212 14.9999 10.441 15H11C11.359 15 11.7114 14.9033 12.0202 14.7202C12.329 14.537 12.5828 14.2741 12.755 13.959C13.021 13.475 13.448 13 14 13C14.2652 13 14.5196 12.8946 14.7071 12.7071C14.8946 12.5196 15 12.2652 15 12C15 11.7348 14.8946 11.4804 14.7071 11.2929C14.5196 11.1054 14.2652 11 14 11H2Z" fill="#EFEFEF"/>
</g>
<defs>
<clipPath id="clip0_862_412">
<rect width="16" height="16" fill="white"/>
</clipPath>
</defs>
</svg>
