<svg width="24" height="24" viewBox="0 0 24 24" fill="none" xmlns="http://www.w3.org/2000/svg">
<g clip-path="url(#clip0_676_19)">
<path d="M11.9582 14.6021C10.5283 14.6021 9.36523 13.4349 9.36523 12.0003C9.36523 10.5657 10.5285 9.39844 11.9582 9.39844C13.388 9.39844 14.5512 10.5657 14.5512 12.0003C14.5512 13.4349 13.388 14.6021 11.9582 14.6021ZM11.9582 10.7486C11.2705 10.7486 10.711 11.31 10.711 12.0001C10.711 12.6902 11.2705 13.2516 11.9582 13.2516C12.646 13.2516 13.2054 12.6902 13.2054 12.0001C13.2054 11.31 12.646 10.7486 11.9582 10.7486Z" fill="#303030"/>
<path d="M11.9585 14.8591C10.3875 14.8591 9.10938 13.5766 9.10938 12.0002C9.10938 10.4239 10.3875 9.14136 11.9585 9.14136C13.5295 9.14136 14.8076 10.4239 14.8076 12.0002C14.8076 13.5766 13.5295 14.8591 11.9585 14.8591ZM11.9585 9.65515C10.6698 9.65515 9.62162 10.7071 9.62162 12C9.62162 13.2929 10.67 14.3451 11.9585 14.3451C13.247 14.3451 14.2954 13.2931 14.2954 12C14.2954 10.7069 13.247 9.65515 11.9585 9.65515V9.65515ZM11.9585 13.5087C11.1295 13.5087 10.4552 12.832 10.4552 12.0002C10.4552 11.1684 11.1295 10.4917 11.9585 10.4917C12.7875 10.4917 13.4618 11.1684 13.4618 12.0002C13.4618 12.832 12.7875 13.5087 11.9585 13.5087ZM11.9585 11.0057C11.412 11.0057 10.9674 11.4519 10.9674 12.0002C10.9674 12.5486 11.412 12.9947 11.9585 12.9947C12.505 12.9947 12.9496 12.5486 12.9496 12.0002C12.9496 11.4519 12.505 11.0057 11.9585 11.0057V11.0057Z" fill="#303030"/>
<path d="M23.406 11.857C23.406 11.8428 23.4049 11.8289 23.4039 11.815C23.3808 10.3302 23.0795 8.88893 22.5062 7.52903C21.9296 6.16127 21.1044 4.93297 20.0533 3.87828C19.0022 2.82359 17.778 1.99549 16.4149 1.41693C15.0032 0.817886 13.5041 0.513916 11.9589 0.513916C10.4137 0.513916 8.91474 0.81768 7.50296 1.41693C6.13985 1.99549 4.91574 2.82359 3.86464 3.87828C2.81354 4.93297 1.98825 6.16127 1.41166 7.52903C0.814655 8.94563 0.511719 10.4498 0.511719 12C0.511719 13.5503 0.814449 15.0546 1.41166 16.471C1.98825 17.8388 2.81354 19.0671 3.86464 20.1218C4.91574 21.1765 6.13985 22.0046 7.50296 22.5831C8.91474 23.1822 10.4137 23.4861 11.9589 23.4861C12.3235 23.4567 12.6106 23.1451 12.6106 22.7718C12.6106 22.3789 12.2932 22.0604 11.9016 22.0604C11.8701 22.0604 11.8393 22.0631 11.8088 22.0673C6.35494 21.9863 1.93071 17.5063 1.92411 12.0129C1.91731 6.45489 6.42155 1.93113 11.9589 1.93113C17.4963 1.93113 21.6414 6.10374 21.9727 11.3575H19.4461C18.9659 9.81781 18.0224 8.44611 16.7451 7.44833C15.3055 6.32391 13.5225 5.7348 11.7243 5.79025C10.8485 5.81715 9.98852 5.99304 9.1688 6.31273C8.37032 6.62415 7.62979 7.06366 6.96803 7.61946C6.30565 8.17567 5.74164 8.83182 5.29105 9.57012C4.82789 10.3291 4.49711 11.1556 4.3078 12.0265L4.30925 12.0402C4.71405 13.8234 5.73113 15.4256 7.17301 16.5519C8.55056 17.6281 10.2426 18.2135 11.9616 18.2135C12.039 18.2135 12.1165 18.2123 12.1938 18.21C13.0696 18.1831 13.9294 18.0072 14.7493 17.6875C15.5478 17.3761 16.2883 16.9366 16.9501 16.3808C17.6124 15.8246 18.1767 15.1684 18.627 14.4301C18.958 13.8878 19.221 13.3107 19.4136 12.7079H22.7129C23.0888 12.7079 23.3942 12.4075 23.4051 12.0329H23.406C23.406 12.0273 23.406 12.0217 23.406 12.0162C23.406 12.0149 23.406 12.0137 23.406 12.0122V11.8572V11.857ZM12.1526 16.86C9.16014 16.9525 6.48857 14.9342 5.69256 12.0244C6.43227 9.22104 8.88917 7.22858 11.7655 7.14001C14.7588 7.04835 17.4295 9.06585 18.2255 11.9756C17.4858 14.779 15.0289 16.7715 12.1526 16.86Z" fill="#303030"/>
<path d="M11.9797 24H11.9593C10.3452 24 8.77896 23.6826 7.30387 23.0564C5.87952 22.452 4.60075 21.5869 3.50284 20.4852C2.40493 19.3835 1.54273 18.1004 0.94036 16.6712C0.31634 15.1911 0 13.6195 0 11.9999C0 10.3803 0.31634 8.80873 0.94036 7.3286C1.54273 5.89938 2.40493 4.61625 3.50284 3.51459C4.60075 2.41293 5.87972 1.54779 7.30387 0.943363C8.77896 0.31742 10.3452 0 11.9591 0C13.5729 0 15.1394 0.31742 16.6145 0.94357C18.0388 1.54799 19.3176 2.41314 20.4155 3.5148C21.5134 4.61646 22.3756 5.8998 22.978 7.32881C23.5742 8.74313 23.8897 10.2446 23.9159 11.7913C23.9173 11.8106 23.9183 11.8327 23.9183 11.8573V12.308C23.914 12.344 23.9074 12.3798 23.8961 12.4142C23.7369 12.8992 23.25 13.222 22.7128 13.222H19.7785C19.5886 13.7362 19.3491 14.2316 19.0639 14.6986C18.5845 15.4843 17.984 16.1829 17.2789 16.7751C16.5743 17.3669 15.7857 17.8351 14.935 18.1666C14.0606 18.5074 13.1438 18.6949 12.2096 18.7237C12.1267 18.7261 12.0434 18.7274 11.9617 18.7274C10.1322 18.7274 8.31971 18.0988 6.85844 16.9574C5.32355 15.7585 4.2409 14.0528 3.8099 12.1543L3.80268 12.1228L3.7901 11.9962L3.80743 11.9169C4.0089 10.9897 4.36112 10.1099 4.85419 9.30162C5.33386 8.51572 5.93437 7.81715 6.63923 7.22535C7.34388 6.63355 8.13246 6.16549 8.98312 5.83379C9.85748 5.49299 10.7743 5.30551 11.7085 5.27675C13.6261 5.21778 15.526 5.84496 17.0597 7.04305C18.3242 8.03069 19.2708 9.33886 19.814 10.8438H21.4115C20.8385 6.09203 16.7877 2.44521 11.9591 2.44521C9.41762 2.44521 7.02589 3.44176 5.22477 5.2513C3.42365 7.06084 2.43339 9.46198 2.43648 12.0123C2.44287 17.1856 6.63304 21.4586 11.7838 21.5529C11.8555 21.5455 11.9203 21.5449 11.9842 21.5498C12.5517 21.5953 13.0275 22.026 13.11 22.5911C13.2141 23.3043 12.6887 23.9433 12.0001 23.9986L11.9797 24.0002V24ZM11.9593 1.02799C10.4832 1.02799 9.05117 1.3181 7.70291 1.89024C6.40084 2.44294 5.23137 3.234 4.22729 4.24151C3.22321 5.24902 2.43462 6.42249 1.88402 7.729C1.31382 9.08186 1.0247 10.5187 1.0247 11.9999C1.0247 13.4811 1.31382 14.9179 1.88402 16.2708C2.43483 17.5773 3.22321 18.7508 4.22729 19.7583C5.23137 20.7658 6.40084 21.5569 7.70291 22.1095C9.04292 22.6782 10.4656 22.9683 11.9323 22.9718C12.0253 22.9569 12.0987 22.87 12.0987 22.7715C12.0987 22.6627 12.0104 22.5741 11.9019 22.5741C11.9001 22.5741 11.8931 22.5741 11.876 22.5766L11.839 22.5815L11.8017 22.5809C9.02663 22.5397 6.41919 21.4209 4.4597 19.4307C2.49793 17.438 1.4157 14.8037 1.41219 12.0133C1.40868 9.18822 2.50536 6.52864 4.50012 4.52479C6.49487 2.52074 9.14397 1.41701 11.9593 1.41701C17.5107 1.41701 22.1337 5.76902 22.4843 11.3249L22.5187 11.8714H19.0701L18.9577 11.5109C18.5036 10.055 17.6299 8.79052 16.4307 7.85398C15.0849 6.80281 13.4185 6.25281 11.7403 6.30413C10.9228 6.32937 10.12 6.49325 9.35452 6.79184C8.608 7.08278 7.91593 7.49393 7.29707 8.01352C6.67758 8.53372 6.14966 9.14766 5.72815 9.83837C5.31406 10.5169 5.01319 11.2529 4.83275 12.028C5.22663 13.6549 6.16637 15.1141 7.48782 16.1462C8.77009 17.1479 10.359 17.6994 11.9617 17.6994C12.0331 17.6994 12.1061 17.6984 12.1785 17.6961C12.9957 17.6708 13.7985 17.5067 14.564 17.2084C15.3103 16.9174 16.0026 16.5063 16.6215 15.9867C17.2412 15.4663 17.7691 14.8523 18.1904 14.1618C18.4983 13.6574 18.7457 13.1154 18.9258 12.5511L19.0398 12.194H22.7128C22.8109 12.194 22.8901 12.1166 22.893 12.0179L22.8938 11.9898L22.8918 11.8232C22.8697 10.4037 22.5812 9.0262 22.0345 7.72921C21.4837 6.42269 20.6953 5.24923 19.6913 4.24172C18.6872 3.23421 17.5177 2.44314 16.2156 1.89045C14.8674 1.31831 13.4354 1.0282 11.9593 1.0282V1.02799ZM11.9603 17.377C10.4708 17.377 8.99817 16.8847 7.79241 15.9797C6.53571 15.0365 5.61452 13.6801 5.19879 12.1605L5.16229 12.0268L5.19755 11.8929C5.58937 10.408 6.42249 9.11849 7.60701 8.16354C8.79628 7.20466 10.2289 6.67328 11.75 6.62651C13.3104 6.57851 14.8647 7.07388 16.1263 8.02097C17.3828 8.96412 18.3038 10.3203 18.7195 11.8397L18.7561 11.9734L18.7208 12.1073C18.329 13.5922 17.4958 14.8817 16.3111 15.8367C15.1218 16.7956 13.6892 17.3269 12.1682 17.3737C12.0989 17.3758 12.0292 17.377 11.9599 17.377H11.9603ZM6.22493 12.022C6.99124 14.5984 9.31204 16.3492 11.9523 16.3492C12.0137 16.3492 12.0754 16.3482 12.1372 16.3463C14.7482 16.266 16.9642 14.5169 17.6938 11.9782C16.9098 9.34259 14.4989 7.57174 11.7815 7.65389C9.17077 7.73417 6.95454 9.48329 6.22514 12.022H6.22493Z" fill="#303030"/>
<path d="M22.5971 15.9228C21.8949 18.9741 19.4675 21.898 15.9116 22.6168C15.5877 22.6824 15.3555 22.9696 15.3555 23.3013C15.3555 23.6872 15.6673 24.0003 16.0521 24.0003H22.496C23.3263 24.0003 23.9994 23.3249 23.9994 22.4918V16.0861C23.9994 15.6923 23.6812 15.373 23.2887 15.373C22.959 15.373 22.6713 15.6005 22.5971 15.9228V15.9228Z" fill="#303030"/>
</g>
<defs>
<clipPath id="clip0_676_19">
<rect width="24" height="24" fill="white"/>
</clipPath>
</defs>
</svg>
