<svg width="10" height="10" viewBox="0 0 10 10" fill="none" xmlns="http://www.w3.org/2000/svg">
<path d="M0.652175 0C0.29261 0 0 0.292609 0 0.652174V1.95652H0.217391H9.78261H10V1.52174C10 1.16217 9.70739 0.869566 9.34783 0.869566L3.48803 0.870841C3.42738 0.848885 3.30194 0.649174 3.23455 0.541783C3.06781 0.275696 2.895 0 2.6087 0H0.652175ZM0.217391 2.39131C0.0973914 2.39131 0 2.4887 0 2.6087V8.4783C0 8.83852 0.291957 9.13048 0.652175 9.13048H9.34783C9.70804 9.13048 10 8.83852 10 8.4783V2.6087C10 2.4887 9.90261 2.39131 9.78261 2.39131H0.217391Z" fill="#E1E1E1"/>
</svg>
