<svg width="15" height="15" viewBox="0 0 15 15" fill="none" xmlns="http://www.w3.org/2000/svg">
<path d="M1.49961 1.19995C1.00341 1.19995 0.599609 1.60375 0.599609 2.09995V3.89995H0.899609H14.0996H14.3996V3.29995C14.3996 2.80375 13.9958 2.39995 13.4996 2.39995L5.41309 2.40171C5.32939 2.37141 5.15628 2.09581 5.06328 1.94761C4.83318 1.58041 4.59471 1.19995 4.19961 1.19995H1.49961ZM0.899609 4.49995C0.734009 4.49995 0.599609 4.63435 0.599609 4.79995V12.9C0.599609 13.3971 1.00251 13.8 1.49961 13.8H13.4996C13.9967 13.8 14.3996 13.3971 14.3996 12.9V4.79995C14.3996 4.63435 14.2652 4.49995 14.0996 4.49995H0.899609Z" fill="#E1E1E1"/>
</svg>
