<svg width="1164" height="1160" viewBox="0 0 1164 1160" fill="none" xmlns="http://www.w3.org/2000/svg">
<g clip-path="url(#clip0_669_12)">
<path d="M579.92 705.67C510.58 705.67 454.18 649.26 454.18 579.93C454.18 510.6 510.59 454.19 579.92 454.19C649.25 454.19 705.66 510.6 705.66 579.93C705.66 649.26 649.25 705.67 579.92 705.67ZM579.92 519.44C546.57 519.44 519.44 546.57 519.44 579.92C519.44 613.27 546.57 640.4 579.92 640.4C613.27 640.4 640.4 613.27 640.4 579.92C640.4 546.57 613.27 519.44 579.92 519.44Z" fill="#E1E1E1"/>
<path d="M579.92 718.09C503.74 718.09 441.76 656.11 441.76 579.93C441.76 503.75 503.74 441.77 579.92 441.77C656.1 441.77 718.08 503.75 718.08 579.93C718.08 656.11 656.1 718.09 579.92 718.09ZM579.92 466.6C517.43 466.6 466.6 517.44 466.6 579.92C466.6 642.4 517.44 693.25 579.92 693.25C642.4 693.25 693.24 642.41 693.24 579.92C693.24 517.43 642.4 466.6 579.92 466.6ZM579.92 652.83C539.72 652.83 507.02 620.13 507.02 579.93C507.02 539.73 539.72 507.03 579.92 507.03C620.12 507.03 652.82 539.73 652.82 579.93C652.82 620.13 620.12 652.83 579.92 652.83ZM579.92 531.87C553.42 531.87 531.86 553.43 531.86 579.93C531.86 606.43 553.42 627.99 579.92 627.99C606.42 627.99 627.98 606.43 627.98 579.93C627.98 553.43 606.42 531.87 579.92 531.87Z" fill="#E1E1E1"/>
<path d="M1135.01 573.02C1135.01 572.33 1134.96 571.66 1134.91 570.99C1133.79 499.23 1119.18 429.58 1091.38 363.86C1063.42 297.76 1023.4 238.4 972.43 187.43C921.46 136.46 862.1 96.44 796 68.48C727.54 39.53 654.85 24.84 579.92 24.84C504.99 24.84 432.3 39.52 363.84 68.48C297.74 96.44 238.38 136.46 187.41 187.43C136.44 238.4 96.4203 297.76 68.4603 363.86C39.5103 432.32 24.8203 505.01 24.8203 579.93C24.8203 654.85 39.5003 727.55 68.4603 796C96.4203 862.1 136.44 921.46 187.41 972.43C238.38 1023.4 297.74 1063.42 363.84 1091.38C432.3 1120.33 504.99 1135.02 579.92 1135.02C597.6 1133.6 611.52 1118.54 611.52 1100.5C611.52 1081.51 596.13 1066.12 577.14 1066.12C575.61 1066.12 574.12 1066.25 572.64 1066.45C308.17 1062.54 93.6303 846.03 93.3103 580.55C92.9803 311.95 311.4 93.33 579.92 93.33C848.44 93.33 1049.44 294.98 1065.51 548.88H942.99C919.7 474.47 873.95 408.18 812.01 359.96C742.2 305.62 655.74 277.15 568.54 279.83C526.07 281.13 484.37 289.63 444.62 305.08C405.9 320.13 369.99 341.37 337.9 368.23C305.78 395.11 278.43 426.82 256.58 462.5C234.12 499.18 218.08 539.12 208.9 581.21L208.97 581.87C228.6 668.05 277.92 745.48 347.84 799.91C414.64 851.92 496.69 880.21 580.05 880.21C583.8 880.21 587.56 880.15 591.31 880.04C633.78 878.74 675.47 870.24 715.23 854.79C753.95 839.74 789.86 818.5 821.95 791.64C854.07 764.76 881.43 733.05 903.27 697.37C919.32 671.16 932.07 643.27 941.41 614.14H1101.4C1119.63 614.14 1134.44 599.62 1134.97 581.52H1135.01C1135.01 581.25 1135.01 580.98 1135.01 580.71C1135.01 580.65 1135.01 580.59 1135.01 580.52V573.03V573.02ZM589.31 814.8C444.2 819.27 314.65 721.73 276.05 581.11C311.92 445.63 431.06 349.34 570.54 345.06C715.69 340.63 845.2 438.13 883.8 578.75C847.93 714.23 728.79 810.52 589.31 814.8Z" fill="#E1E1E1"/>
<path d="M580.92 1159.85H579.93C501.66 1159.85 425.71 1144.51 354.18 1114.25C285.11 1085.04 223.1 1043.23 169.86 989.99C116.62 936.75 74.81 874.74 45.6 805.67C15.34 734.14 0 658.19 0 579.92C0 501.65 15.34 425.7 45.6 354.17C74.81 285.1 116.62 223.09 169.86 169.85C223.1 116.61 285.12 74.8 354.18 45.59C425.71 15.34 501.66 0 579.92 0C658.18 0 734.14 15.34 805.67 45.6C874.74 74.81 936.75 116.62 989.99 169.86C1043.23 223.1 1085.04 285.12 1114.25 354.18C1143.16 422.53 1158.46 495.09 1159.73 569.84C1159.8 570.77 1159.85 571.84 1159.85 573.03V594.81C1159.64 596.55 1159.32 598.28 1158.77 599.94C1151.05 623.38 1127.44 638.98 1101.39 638.98H959.1C949.89 663.83 938.28 687.77 924.45 710.34C901.2 748.31 872.08 782.07 837.89 810.69C803.72 839.29 765.48 861.92 724.23 877.94C681.83 894.41 637.37 903.47 592.07 904.86C588.05 904.98 584.01 905.04 580.05 905.04C491.33 905.04 403.44 874.66 332.58 819.5C258.15 761.56 205.65 679.13 184.75 587.38L184.4 585.86L183.79 579.74L184.63 575.91C194.4 531.1 211.48 488.58 235.39 449.52C258.65 411.54 287.77 377.78 321.95 349.18C356.12 320.58 394.36 297.96 435.61 281.93C478.01 265.46 522.47 256.4 567.77 255.01C660.76 252.16 752.89 282.47 827.26 340.37C888.58 388.1 934.48 451.32 960.82 524.05H1038.29C1010.5 294.41 814.07 118.17 579.92 118.17C456.68 118.17 340.7 166.33 253.36 253.78C166.02 341.23 118 457.27 118.15 580.52C118.46 830.53 321.65 1037.03 571.42 1041.59C574.9 1041.23 578.04 1041.2 581.14 1041.44C608.66 1043.64 631.73 1064.45 635.73 1091.76C640.78 1126.23 615.3 1157.11 581.91 1159.78L580.92 1159.86V1159.85ZM579.93 49.68C508.35 49.68 438.91 63.7 373.53 91.35C310.39 118.06 253.68 156.29 204.99 204.98C156.3 253.67 118.06 310.38 91.36 373.52C63.71 438.9 49.69 508.34 49.69 579.92C49.69 651.5 63.71 720.94 91.36 786.32C118.07 849.46 156.3 906.17 204.99 954.86C253.68 1003.55 310.39 1041.78 373.53 1068.49C438.51 1095.97 507.5 1109.99 578.62 1110.16C583.13 1109.44 586.69 1105.24 586.69 1100.48C586.69 1095.22 582.41 1090.94 577.15 1090.94C577.06 1090.94 576.72 1090.94 575.89 1091.06L574.1 1091.3L572.29 1091.27C437.72 1089.28 311.28 1035.21 216.26 939.03C121.13 842.73 68.65 715.42 68.48 580.57C68.31 444.04 121.49 315.51 218.22 218.67C314.95 121.82 443.41 68.48 579.93 68.48C849.13 68.48 1073.31 278.8 1090.31 547.3L1091.98 573.71H924.75L919.3 556.29C897.28 485.93 854.91 424.82 796.76 379.56C731.5 328.76 650.69 302.18 569.31 304.66C529.67 305.88 490.74 313.8 453.62 328.23C417.42 342.29 383.86 362.16 353.85 387.27C323.81 412.41 298.21 442.08 277.77 475.46C257.69 508.25 243.1 543.82 234.35 581.28C253.45 659.9 299.02 730.42 363.1 780.3C425.28 828.71 502.33 855.36 580.05 855.36C583.51 855.36 587.05 855.31 590.56 855.2C630.19 853.98 669.12 846.05 706.24 831.63C742.43 817.57 776 797.7 806.01 772.59C836.06 747.44 861.66 717.77 882.09 684.4C897.02 660.02 909.02 633.83 917.75 606.56L923.28 589.3H1101.39C1106.15 589.3 1109.99 585.56 1110.13 580.79L1110.17 579.43L1110.07 571.38C1109 502.78 1095.01 436.21 1068.5 373.53C1041.79 310.39 1003.56 253.68 954.87 204.99C906.18 156.3 849.47 118.07 786.33 91.36C720.95 63.71 651.51 49.69 579.93 49.69V49.68ZM579.98 839.78C507.75 839.78 436.34 815.99 377.87 772.25C316.93 726.67 272.26 661.12 252.1 587.68L250.33 581.22L252.04 574.75C271.04 502.99 311.44 440.67 368.88 394.52C426.55 348.18 496.02 322.5 569.78 320.24C645.45 317.92 720.82 341.86 782 387.63C842.93 433.21 887.59 498.75 907.75 572.18L909.52 578.64L907.81 585.11C888.81 656.87 848.41 719.19 790.96 765.34C733.29 811.68 663.82 837.36 590.06 839.62C586.7 839.72 583.32 839.78 579.96 839.78H579.98ZM301.86 580.99C339.02 705.5 451.56 790.11 579.59 790.11C582.57 790.11 585.56 790.06 588.56 789.97C715.17 786.09 822.63 701.56 858.01 578.87C819.99 451.5 703.08 365.92 571.31 369.89C444.71 373.77 337.24 458.3 301.87 580.99H301.86Z" fill="#E1E1E1"/>
<path d="M1095.81 769.5C1061.76 916.96 944.05 1058.26 771.62 1093C755.91 1096.17 744.65 1110.05 744.65 1126.08C744.65 1144.73 759.77 1159.86 778.43 1159.86H1090.91C1131.17 1159.86 1163.81 1127.22 1163.81 1086.96V777.39C1163.81 758.36 1148.38 742.93 1129.35 742.93C1113.36 742.93 1099.41 753.92 1095.81 769.5Z" fill="#E1E1E1"/>
</g>
<defs>
<clipPath id="clip0_669_12">
<rect width="1163.81" height="1159.85" fill="white"/>
</clipPath>
</defs>
</svg>
