<?xml version="1.0" encoding="UTF-8"?><svg id="Calque_2" xmlns="http://www.w3.org/2000/svg" viewBox="0 0 1163.81 1159.85"><defs><style>.cls-1{fill:#1d1d1b;}</style></defs><g id="Calque_2-2"><g><g><path class="cls-1" d="M579.92,705.67c-69.34,0-125.74-56.41-125.74-125.74s56.41-125.74,125.74-125.74,125.74,56.41,125.74,125.74-56.41,125.74-125.74,125.74Zm0-186.23c-33.35,0-60.48,27.13-60.48,60.48s27.13,60.48,60.48,60.48,60.48-27.13,60.48-60.48-27.13-60.48-60.48-60.48Z"/><path class="cls-1" d="M579.92,718.09c-76.18,0-138.16-61.98-138.16-138.16s61.98-138.16,138.16-138.16,138.16,61.98,138.16,138.16-61.98,138.16-138.16,138.16Zm0-251.49c-62.49,0-113.32,50.84-113.32,113.32s50.84,113.33,113.32,113.33,113.32-50.84,113.32-113.33-50.84-113.32-113.32-113.32Zm0,186.23c-40.2,0-72.9-32.7-72.9-72.9s32.7-72.9,72.9-72.9,72.9,32.7,72.9,72.9-32.7,72.9-72.9,72.9Zm0-120.96c-26.5,0-48.06,21.56-48.06,48.06s21.56,48.06,48.06,48.06,48.06-21.56,48.06-48.06-21.56-48.06-48.06-48.06Z"/></g><g><path class="cls-1" d="M1135.01,573.02c0-.69-.05-1.36-.1-2.03-1.12-71.76-15.73-141.41-43.53-207.13-27.96-66.1-67.98-125.46-118.95-176.43-50.97-50.97-110.33-90.99-176.43-118.95-68.46-28.95-141.15-43.64-216.08-43.64s-147.62,14.68-216.08,43.64c-66.1,27.96-125.46,67.98-176.43,118.95s-90.99,110.33-118.95,176.43c-28.95,68.46-43.64,141.15-43.64,216.07s14.68,147.62,43.64,216.07c27.96,66.1,67.98,125.46,118.95,176.43s110.33,90.99,176.43,118.95c68.46,28.95,141.15,43.64,216.08,43.64h0c17.68-1.42,31.6-16.48,31.6-34.52,0-18.99-15.39-34.38-34.38-34.38-1.53,0-3.02,.13-4.5,.33-264.47-3.91-479.01-220.42-479.33-485.9-.33-268.6,218.09-487.22,486.61-487.22s469.52,201.65,485.59,455.55h-122.52c-23.29-74.41-69.04-140.7-130.98-188.92-69.81-54.34-156.27-82.81-243.47-80.13-42.47,1.3-84.17,9.8-123.92,25.25-38.72,15.05-74.63,36.29-106.72,63.15-32.12,26.88-59.47,58.59-81.32,94.27-22.46,36.68-38.5,76.62-47.68,118.71l.07,.66c19.63,86.18,68.95,163.61,138.87,218.04,66.8,52.01,148.85,80.3,232.21,80.3,3.75,0,7.51-.06,11.26-.17,42.47-1.3,84.16-9.8,123.92-25.25,38.72-15.05,74.63-36.29,106.72-63.15,32.12-26.88,59.48-58.59,81.32-94.27,16.05-26.21,28.8-54.1,38.14-83.23h159.99c18.23,0,33.04-14.52,33.57-32.62h.04s0,0,0,0c0-.27,0-.54,0-.81,0-.06,0-.12,0-.19v-7.49Zm-545.7,241.78c-145.11,4.47-274.66-93.07-313.26-233.69,35.87-135.48,155.01-231.77,294.49-236.05,145.15-4.43,274.66,93.07,313.26,233.69-35.87,135.48-155.01,231.77-294.49,236.05Z"/><path class="cls-1" d="M580.92,1159.85h-.99c-78.27,0-154.22-15.34-225.75-45.6-69.07-29.21-131.08-71.02-184.32-124.26-53.24-53.24-95.05-115.25-124.26-184.32C15.34,734.14,0,658.19,0,579.92s15.34-154.22,45.6-225.75c29.21-69.07,71.02-131.08,124.26-184.32,53.24-53.24,115.26-95.05,184.32-124.26C425.71,15.34,501.66,0,579.92,0s154.22,15.34,225.75,45.6c69.07,29.21,131.08,71.02,184.32,124.26,53.24,53.24,95.05,115.26,124.26,184.32,28.91,68.35,44.21,140.91,45.48,215.66,.07,.93,.12,2,.12,3.19v21.78s0,0,0,0c-.21,1.74-.53,3.47-1.08,5.13-7.72,23.44-31.33,39.04-57.38,39.04h-142.29c-9.21,24.85-20.82,48.79-34.65,71.36-23.25,37.97-52.37,71.73-86.56,100.35-34.17,28.6-72.41,51.23-113.66,67.25-42.4,16.47-86.86,25.53-132.16,26.92-4.02,.12-8.06,.18-12.02,.18-88.72,0-176.61-30.38-247.47-85.54-74.43-57.94-126.93-140.37-147.83-232.12l-.35-1.52-.61-6.12,.84-3.83c9.77-44.81,26.85-87.33,50.76-126.39,23.26-37.98,52.38-71.74,86.56-100.34,34.17-28.6,72.41-51.22,113.66-67.25,42.4-16.47,86.86-25.53,132.16-26.92,92.99-2.85,185.12,27.46,259.49,85.36,61.32,47.73,107.22,110.95,133.56,183.68h77.47c-27.79-229.64-224.22-405.88-458.37-405.88-123.24,0-239.22,48.16-326.56,135.61-87.34,87.45-135.36,203.49-135.21,326.74,.31,250.01,203.5,456.51,453.27,461.07,3.48-.36,6.62-.39,9.72-.15,27.52,2.2,50.59,23.01,54.59,50.32,5.05,34.47-20.43,65.35-53.82,68.02l-.99,.08Zm-.99-1110.17c-71.58,0-141.02,14.02-206.4,41.67-63.14,26.71-119.85,64.94-168.54,113.63-48.69,48.69-86.93,105.4-113.63,168.54-27.65,65.38-41.67,134.82-41.67,206.4s14.02,141.02,41.67,206.4c26.71,63.14,64.94,119.85,113.63,168.54,48.69,48.69,105.4,86.92,168.54,113.63,64.98,27.48,133.97,41.5,205.09,41.67,4.51-.72,8.07-4.92,8.07-9.68,0-5.26-4.28-9.54-9.54-9.54-.09,0-.43,0-1.26,.12l-1.79,.24-1.81-.03c-134.57-1.99-261.01-56.06-356.03-152.24-95.13-96.3-147.61-223.61-147.78-358.46-.17-136.53,53.01-265.06,149.74-361.9,96.73-96.85,225.19-150.19,361.71-150.19,269.2,0,493.38,210.32,510.38,478.82l1.67,26.41h-167.23l-5.45-17.42c-22.02-70.36-64.39-131.47-122.54-176.73-65.26-50.8-146.07-77.38-227.45-74.9-39.64,1.22-78.57,9.14-115.69,23.57-36.2,14.06-69.76,33.93-99.77,59.04-30.04,25.14-55.64,54.81-76.08,88.19-20.08,32.79-34.67,68.36-43.42,105.82,19.1,78.62,64.67,149.14,128.75,199.02,62.18,48.41,139.23,75.06,216.95,75.06,3.46,0,7-.05,10.51-.16,39.63-1.22,78.56-9.15,115.68-23.57,36.19-14.06,69.76-33.93,99.77-59.04,30.05-25.15,55.65-54.82,76.08-88.19,14.93-24.38,26.93-50.57,35.66-77.84l5.53-17.26h178.11c4.76,0,8.6-3.74,8.74-8.51l.04-1.36-.1-8.05c-1.07-68.6-15.06-135.17-41.57-197.85-26.71-63.14-64.94-119.85-113.63-168.54-48.69-48.69-105.4-86.92-168.54-113.63-65.38-27.65-134.82-41.67-206.4-41.67Zm.05,790.1c-72.23,0-143.64-23.79-202.11-67.53-60.94-45.58-105.61-111.13-125.77-184.57l-1.77-6.46,1.71-6.47c19-71.76,59.4-134.08,116.84-180.23,57.67-46.34,127.14-72.02,200.9-74.28,75.67-2.32,151.04,21.62,212.22,67.39,60.93,45.58,105.59,111.12,125.75,184.55l1.77,6.46-1.71,6.47c-19,71.76-59.4,134.08-116.85,180.23-57.67,46.34-127.14,72.02-200.9,74.28-3.36,.1-6.74,.16-10.1,.16Zm-278.12-258.79c37.16,124.51,149.7,209.12,277.73,209.12,2.98,0,5.97-.05,8.97-.14h0c126.61-3.88,234.07-88.41,269.45-211.1-38.02-127.37-154.93-212.95-286.7-208.98-126.6,3.88-234.07,88.41-269.44,211.1Z"/></g><path class="cls-1" d="M1095.81,769.5c-34.05,147.46-151.76,288.76-324.19,323.5-15.71,3.17-26.97,17.05-26.97,33.08h0c0,18.65,15.12,33.78,33.78,33.78h312.48c40.26,0,72.9-32.64,72.9-72.9v-309.57c0-19.03-15.43-34.46-34.46-34.46h0c-15.99,0-29.94,10.99-33.54,26.57Z"/></g></g></svg>