<svg width="20" height="16" viewBox="0 0 20 16" fill="none" xmlns="http://www.w3.org/2000/svg">
<path fill-rule="evenodd" clip-rule="evenodd" d="M5 10H6C7.63573 10 9.08801 10.7855 10.0002 11.9998C10.864 10.8494 12.2129 10.0839 13.7433 10.0065L14 10H15C17.7614 10 20 12.2386 20 15C20 15.5523 19.5523 16 19 16C18.4872 16 18.0645 15.614 18.0067 15.1166L17.9949 14.8237C17.907 13.3072 16.6928 12.093 15.1763 12.0051L15 12H14C12.3431 12 11 13.3431 11 15C11 15.5128 10.614 15.9355 10.1166 15.9933L10 16C9.48716 16 9.06449 15.614 9.00673 15.1166L8.99491 14.8237C8.90704 13.3072 7.69275 12.093 6.17627 12.0051L6 12H5C3.34315 12 2 13.3431 2 15C2 15.5523 1.55228 16 1 16C0.447715 16 0 15.5523 0 15C0 12.3112 2.12231 10.1182 4.78311 10.0046L5 10ZM5 0C7.20914 0 9 1.79086 9 4C9 6.20914 7.20914 8 5 8C2.79086 8 1 6.20914 1 4C1 1.79086 2.79086 0 5 0ZM15 0C17.2091 0 19 1.79086 19 4C19 6.20914 17.2091 8 15 8C12.7909 8 11 6.20914 11 4C11 1.79086 12.7909 0 15 0ZM5 2C3.89543 2 3 2.89543 3 4C3 5.10457 3.89543 6 5 6C6.10457 6 7 5.10457 7 4C7 2.89543 6.10457 2 5 2ZM15 2C13.8954 2 13 2.89543 13 4C13 5.10457 13.8954 6 15 6C16.1046 6 17 5.10457 17 4C17 2.89543 16.1046 2 15 2Z" fill="#EFEFEF"/>
</svg>
