<svg width="18" height="20" viewBox="0 0 18 20" fill="none" xmlns="http://www.w3.org/2000/svg">
<path d="M10.01 15.959C9.824 15.977 8.384 17.235 5.689 19.733C5.54579 19.8658 5.36681 19.9538 5.17416 19.9861C4.98151 20.0184 4.78363 19.9935 4.60495 19.9146C4.42626 19.8357 4.27461 19.7061 4.1687 19.542C4.0628 19.3779 4.00728 19.1863 4.009 18.991C4.029 16.629 4.02 15.282 3.985 14.951C3.967 14.778 4.017 14.671 3.985 14.651C1.708 13.212 0 10.775 0 8.005C0 3.584 4.03 0 9 0C13.97 0 18 3.584 18 8.004C18 12.121 14.505 15.513 10.01 15.959ZM6.02 16.703C8.697 14.24 9.026 14.046 9.812 13.968C13.364 13.615 16 11.01 16 8.004C16 4.744 12.915 2.001 9 2.001C5.085 2.001 2 4.745 2 8.004C2 9.897 3.175 11.771 5.054 12.961C5.837 13.456 6.012 14.078 5.995 14.739C5.99348 14.7891 5.99047 14.8391 5.986 14.889C6.008 15.219 6.018 15.809 6.019 16.703H6.02ZM12 10C11.4696 10 10.9609 9.78929 10.5858 9.41421C10.2107 9.03914 10 8.53043 10 8C10 7.46957 10.2107 6.96086 10.5858 6.58579C10.9609 6.21071 11.4696 6 12 6C12.5304 6 13.0391 6.21071 13.4142 6.58579C13.7893 6.96086 14 7.46957 14 8C14 8.53043 13.7893 9.03914 13.4142 9.41421C13.0391 9.78929 12.5304 10 12 10ZM6 10C5.46957 10 4.96086 9.78929 4.58579 9.41421C4.21071 9.03914 4 8.53043 4 8C4 7.46957 4.21071 6.96086 4.58579 6.58579C4.96086 6.21071 5.46957 6 6 6C6.53043 6 7.03914 6.21071 7.41421 6.58579C7.78929 6.96086 8 7.46957 8 8C8 8.53043 7.78929 9.03914 7.41421 9.41421C7.03914 9.78929 6.53043 10 6 10Z" fill="#E1E1E1"/>
</svg>
