<svg width="12" height="9" viewBox="0 0 12 9" fill="none" xmlns="http://www.w3.org/2000/svg">
<path d="M12 0.612145C12 0.274078 11.7259 0 11.3879 0H0.612145C0.274078 0 0 0.274078 0 0.612145V8.00996C0 8.34803 0.274078 8.6221 0.612145 8.6221H11.3879C11.7259 8.6221 12 8.34803 12 8.00996V0.612145ZM10.7757 1.85888C10.7757 2.03905 10.6967 2.21013 10.5595 2.32693L8.21213 4.32562L10.5617 6.32623C10.6975 6.44181 10.7757 6.61117 10.7757 6.78946C10.7757 7.12545 10.5033 7.39785 10.1673 7.39785H10.1621C10.0134 7.39785 9.86957 7.34492 9.75637 7.24853L7.26783 5.12961L6.39683 5.8712C6.28244 5.96858 6.1412 6.01726 5.99996 6.01726C5.85872 6.01726 5.71747 5.96858 5.60309 5.8712L4.73208 5.12961L2.24759 7.2451C2.13182 7.3437 1.9847 7.39781 1.83264 7.39781C1.49665 7.39781 1.22425 7.12545 1.22425 6.78942C1.22425 6.61112 1.30248 6.44181 1.43821 6.32619L3.78787 4.32558L1.47298 2.35455C1.31521 2.22021 1.22429 2.02338 1.22429 1.81615C1.22429 1.48927 1.48927 1.22425 1.81619 1.22425C1.95682 1.22425 2.09284 1.27432 2.19993 1.36549L5.80652 4.43634C5.91805 4.5313 6.08203 4.5313 6.1936 4.43634L9.80016 1.36549C9.90724 1.27432 10.0433 1.22425 10.1838 1.22425C10.5107 1.22425 10.7757 1.48923 10.7757 1.81611V1.85888Z" fill="#E1E1E1"/>
</svg>
