<svg width="6" height="6" viewBox="0 0 6 6" fill="none" xmlns="http://www.w3.org/2000/svg">
<path d="M0.756979 0.124608L3 2.36755L5.23379 0.133838C5.3129 0.0496585 5.42288 0.00133838 5.5384 0C5.7933 0 5.99993 0.206618 5.99993 0.46151C6.00209 0.575873 5.957 0.686081 5.87531 0.766107L3.61845 2.99982L5.87531 5.2566C5.95137 5.331 5.996 5.43179 5.99993 5.53812C5.99993 5.79302 5.7933 5.99963 5.5384 5.99963C5.41946 6.00457 5.30394 5.95934 5.21994 5.87503L3 3.63209L0.761594 5.87041C0.682812 5.95178 0.574814 5.9983 0.461602 5.99963C0.2067 5.99963 7.48007e-05 5.79302 7.48007e-05 5.53812C-0.00209438 5.42376 0.0429968 5.31355 0.124687 5.23353L2.38155 2.99982L0.124687 0.743032C0.0486274 0.668636 0.00399778 0.567842 7.48007e-05 0.46151C7.48007e-05 0.206618 0.2067 0 0.461602 0C0.572553 0.00133838 0.678566 0.0460587 0.756979 0.124608Z" fill="#E1E1E1"/>
</svg>
