<svg width="495" height="26" viewBox="0 0 495 26" fill="none" xmlns="http://www.w3.org/2000/svg">
<path d="M248 10.9511C246.924 10.9511 246.049 10.0757 246.049 8.99971C246.049 7.92377 246.924 7.04834 248 7.04834C249.076 7.04834 249.952 7.92377 249.952 8.99971C249.952 10.0757 249.076 10.9511 248 10.9511ZM248 8.06096C247.483 8.06096 247.062 8.482 247.062 8.99956C247.062 9.51712 247.483 9.93815 248 9.93815C248.518 9.93815 248.939 9.51712 248.939 8.99956C248.939 8.482 248.518 8.06096 248 8.06096Z" fill="#EFEFEF"/>
<path d="M248 11.144C246.817 11.144 245.855 10.1821 245.855 8.99983C245.855 7.81759 246.817 6.85571 248 6.85571C249.182 6.85571 250.144 7.81759 250.144 8.99983C250.144 10.1821 249.182 11.144 248 11.144ZM248 7.24105C247.03 7.24105 246.241 8.03004 246.241 8.99968C246.241 9.96931 247.03 10.7585 248 10.7585C248.969 10.7585 249.758 9.96947 249.758 8.99968C249.758 8.02989 248.969 7.24105 248 7.24105ZM248 10.1312C247.376 10.1312 246.868 9.6237 246.868 8.99983C246.868 8.37597 247.376 7.86849 248 7.86849C248.623 7.86849 249.131 8.37597 249.131 8.99983C249.131 9.6237 248.623 10.1312 248 10.1312ZM248 8.25399C247.588 8.25399 247.254 8.58858 247.254 8.99983C247.254 9.41109 247.588 9.74568 248 9.74568C248.411 9.74568 248.745 9.41109 248.745 8.99983C248.745 8.58858 248.411 8.25399 248 8.25399Z" fill="#EFEFEF"/>
<path d="M256.614 8.89277C256.614 8.88206 256.613 8.87166 256.612 8.86126C256.595 7.74761 256.368 6.6667 255.937 5.64679C255.503 4.62097 254.882 3.69976 254.091 2.90875C253.3 2.11774 252.379 1.49667 251.353 1.06275C250.29 0.613474 249.162 0.385498 247.999 0.385498C246.837 0.385498 245.708 0.613319 244.646 1.06275C243.62 1.49667 242.699 2.11774 241.908 2.90875C241.117 3.69976 240.496 4.62097 240.062 5.64679C239.613 6.70923 239.385 7.83731 239.385 9C239.385 10.1627 239.613 11.2909 240.062 12.3532C240.496 13.379 241.117 14.3002 241.908 15.0913C242.699 15.8823 243.62 16.5033 244.646 16.9373C245.708 17.3865 246.837 17.6145 247.999 17.6145C248.274 17.5925 248.49 17.3588 248.49 17.0788C248.49 16.7841 248.251 16.5452 247.956 16.5452C247.933 16.5452 247.909 16.5473 247.886 16.5504C243.782 16.4897 240.453 13.1296 240.448 9.00962C240.443 4.84119 243.832 1.4484 247.999 1.4484C252.167 1.4484 255.286 4.57783 255.535 8.51813H253.634C253.273 7.36336 252.563 6.3346 251.601 5.58626C250.518 4.74295 249.176 4.30113 247.823 4.34272C247.164 4.36289 246.517 4.4948 245.9 4.73457C245.299 4.96814 244.741 5.29776 244.243 5.71461C243.745 6.13176 243.321 6.62387 242.981 7.17759C242.633 7.74683 242.384 8.36667 242.242 9.01987L242.243 9.03011C242.547 10.3675 243.313 11.5692 244.398 12.4139C245.434 13.221 246.708 13.6601 248.001 13.6601C248.06 13.6601 248.118 13.6592 248.176 13.6574C248.835 13.6373 249.482 13.5054 250.099 13.2656C250.7 13.032 251.258 12.7024 251.756 12.2856C252.254 11.8684 252.679 11.3763 253.018 10.8226C253.267 10.4158 253.464 9.98298 253.609 9.53091H256.092C256.375 9.53091 256.605 9.30557 256.613 9.02468H256.614C256.614 9.02049 256.614 9.0163 256.614 9.01211C256.614 9.01118 256.614 9.01025 256.614 9.00916V8.89292V8.89277ZM248.145 12.645C245.893 12.7143 243.883 11.2006 243.284 9.01832C243.84 6.91579 245.689 5.42145 247.854 5.35503C250.106 5.28628 252.116 6.79939 252.715 8.98169C252.159 11.0842 250.31 12.5786 248.145 12.645Z" fill="#EFEFEF"/>
<path d="M248.015 17.9998H248C246.785 17.9998 245.607 17.7618 244.497 17.2922C243.425 16.8389 242.462 16.19 241.636 15.3638C240.81 14.5375 240.161 13.5752 239.708 12.5033C239.238 11.3932 239 10.2145 239 8.99984C239 7.78516 239.238 6.60649 239.708 5.49641C240.161 4.4245 240.81 3.46216 241.636 2.63592C242.462 1.80968 243.425 1.16083 244.497 0.707516C245.607 0.238063 246.785 0 248 0C249.214 0 250.393 0.238063 251.503 0.707672C252.575 1.16098 253.538 1.80984 254.364 2.63608C255.19 3.46231 255.839 4.42481 256.292 5.49656C256.741 6.55729 256.978 7.68336 256.998 8.84341C256.999 8.85785 257 8.87445 257 8.89292V9.23092C256.997 9.25793 256.992 9.28478 256.983 9.31054C256.863 9.67431 256.497 9.9164 256.093 9.9164H253.884C253.741 10.3021 253.561 10.6736 253.347 11.0238C252.986 11.6131 252.534 12.137 252.003 12.5812C251.473 13.025 250.88 13.3762 250.239 13.6249C249.581 13.8805 248.891 14.0211 248.188 14.0426C248.126 14.0445 248.063 14.0454 248.002 14.0454C246.625 14.0454 245.261 13.5739 244.161 12.7179C243.006 11.8187 242.192 10.5395 241.867 9.11562L241.862 9.09203L241.852 8.99705L241.865 8.93761C242.017 8.2422 242.282 7.58233 242.653 6.97615C243.014 6.38674 243.466 5.86281 243.996 5.41896C244.527 4.97512 245.12 4.62407 245.76 4.3753C246.418 4.1197 247.108 3.9791 247.811 3.95753C249.254 3.9133 250.684 4.38368 251.838 5.28224C252.79 6.02297 253.502 7.00409 253.911 8.13279H255.113C254.682 4.56898 251.634 1.83389 248 1.83389C246.087 1.83389 244.287 2.58129 242.932 3.93844C241.576 5.29559 240.831 7.09643 240.834 9.00916C240.838 12.8891 243.992 16.0938 247.868 16.1646C247.922 16.159 247.971 16.1585 248.019 16.1622C248.446 16.1964 248.804 16.5193 248.866 16.9431C248.944 17.4781 248.549 17.9573 248.031 17.9988L248.015 18V17.9998ZM248 0.77099C246.889 0.77099 245.811 0.988568 244.797 1.41767C243.817 1.83219 242.937 2.42548 242.181 3.18111C241.426 3.93673 240.832 4.81682 240.418 5.7967C239.989 6.81134 239.771 7.88899 239.771 8.99984C239.771 10.1107 239.989 11.1884 240.418 12.203C240.832 13.1829 241.426 14.063 242.181 14.8186C242.937 15.5742 243.817 16.1675 244.797 16.582C245.805 17.0085 246.876 17.2261 247.98 17.2287C248.05 17.2175 248.105 17.1523 248.105 17.0785C248.105 16.9968 248.038 16.9304 247.957 16.9304C247.955 16.9304 247.95 16.9304 247.937 16.9323L247.91 16.936L247.881 16.9355C245.793 16.9047 243.831 16.0655 242.356 14.5729C240.88 13.0784 240.065 11.1027 240.063 9.00993C240.06 6.89111 240.885 4.89644 242.387 3.39356C243.888 1.89054 245.881 1.06275 248 1.06275C252.178 1.06275 255.657 4.32673 255.921 8.49361L255.947 8.90347H253.351L253.267 8.63313C252.925 7.5412 252.267 6.59283 251.365 5.89043C250.352 5.10206 249.098 4.68957 247.835 4.72805C247.22 4.74699 246.616 4.8699 246.04 5.09384C245.478 5.31204 244.957 5.6204 244.491 6.01009C244.025 6.40024 243.628 6.86069 243.311 7.37872C242.999 7.88759 242.773 8.4396 242.637 9.02095C242.933 10.2411 243.641 11.3355 244.635 12.1096C245.6 12.8608 246.796 13.2744 248.002 13.2744C248.056 13.2744 248.11 13.2737 248.165 13.2719C248.78 13.253 249.384 13.1299 249.96 12.9062C250.522 12.688 251.043 12.3796 251.509 11.9899C251.975 11.5996 252.372 11.1392 252.689 10.6213C252.921 10.2429 253.107 9.83648 253.243 9.41327L253.328 9.14541H256.093C256.166 9.14541 256.226 9.08737 256.228 9.01335L256.229 8.99224L256.227 8.86731C256.211 7.8027 255.994 6.76959 255.582 5.79685C255.168 4.81698 254.574 3.93689 253.819 3.18126C253.063 2.42564 252.183 1.83234 251.203 1.41783C250.189 0.988723 249.111 0.771145 248 0.771145V0.77099ZM248.001 13.0326C246.88 13.0326 245.772 12.6634 244.864 11.9846C243.918 11.2773 243.225 10.26 242.912 9.12027L242.885 9.02002L242.911 8.91961C243.206 7.80596 243.833 6.83881 244.725 6.1226C245.62 5.40345 246.698 5.00491 247.842 4.96984C249.017 4.93384 250.186 5.30536 251.136 6.01567C252.082 6.72304 252.775 7.74016 253.087 8.87973L253.115 8.97998L253.088 9.08039C252.794 10.194 252.167 11.1612 251.275 11.8774C250.38 12.5966 249.302 12.9951 248.157 13.0302C248.105 13.0317 248.053 13.0326 248 13.0326H248.001ZM243.685 9.01645C244.261 10.9487 246.008 12.2618 247.995 12.2618C248.041 12.2618 248.087 12.261 248.134 12.2596C250.099 12.1994 251.766 10.8876 252.316 8.98355C251.726 7.00688 249.911 5.67875 247.866 5.74037C245.902 5.80058 244.234 7.11241 243.685 9.01645H243.685Z" fill="#EFEFEF"/>
<path d="M256.006 11.9419C255.478 14.2303 253.651 16.4232 250.975 16.9623C250.731 17.0115 250.557 17.2269 250.557 17.4757C250.557 17.7651 250.791 17.9999 251.081 17.9999H255.93C256.555 17.9999 257.062 17.4934 257.062 16.8686V12.0643C257.062 11.769 256.822 11.5295 256.527 11.5295C256.279 11.5295 256.062 11.7001 256.006 11.9419Z" fill="#EFEFEF"/>
<line x1="277" y1="8.5" x2="495" y2="8.50002" stroke="#EFEFEF"/>
<line x1="4.37114e-08" y1="8.5" x2="218" y2="8.50002" stroke="#EFEFEF"/>
<rect y="6" width="218" height="20" fill="url(#paint0_linear_865_185)"/>
<rect x="495" y="26" width="218" height="19.9999" transform="rotate(-180 495 26)" fill="url(#paint1_linear_865_185)"/>
<defs>
<linearGradient id="paint0_linear_865_185" x1="31" y1="6" x2="218" y2="6" gradientUnits="userSpaceOnUse">
<stop offset="0.112235" stop-color="#1E1E1E"/>
<stop offset="0.960067" stop-color="#1E1E1E" stop-opacity="0"/>
</linearGradient>
<linearGradient id="paint1_linear_865_185" x1="526" y1="26" x2="713" y2="26" gradientUnits="userSpaceOnUse">
<stop offset="0.112235" stop-color="#1E1E1E"/>
<stop offset="0.960067" stop-color="#1E1E1E" stop-opacity="0"/>
</linearGradient>
</defs>
</svg>
