<svg width="20" height="18" viewBox="0 0 20 18" fill="none" xmlns="http://www.w3.org/2000/svg">
<path d="M7.50088 9.16187C7.0411 9.16187 6.66797 9.535 6.66797 9.99477C6.66797 10.4545 7.0411 10.8277 7.50088 10.8277C7.96065 10.8277 8.33378 10.4545 8.33378 9.99477C8.33378 9.535 7.96065 9.16187 7.50088 9.16187Z" fill="#E1E1E1"/>
<path d="M10.8329 9.16187C10.3731 9.16187 10 9.535 10 9.99477C10 10.4545 10.3731 10.8277 10.8329 10.8277C11.2927 10.8277 11.6658 10.4545 11.6658 9.99477C11.6658 9.535 11.2927 9.16187 10.8329 9.16187Z" fill="#E1E1E1"/>
<path d="M4.16884 9.16187C3.70907 9.16187 3.33594 9.535 3.33594 9.99477C3.33594 10.4545 3.70907 10.8277 4.16884 10.8277C4.62861 10.8277 5.00175 10.4545 5.00175 9.99477C5.00175 9.535 4.62861 9.16187 4.16884 9.16187Z" fill="#E1E1E1"/>
<path d="M19.7513 11.9049C19.497 11.6506 19.2956 11.3618 19.1411 11.0427C18.8399 10.4202 18.74 9.75398 18.7612 9.18574C19.5737 8.16652 19.9952 7.06781 19.9952 5.83042C19.9952 2.37741 16.7113 0 12.499 0C8.92142 0 5.978 1.72547 5.20612 4.41554C2.15443 5.11175 0.00475917 7.20111 0.00475917 9.99472C0.00475917 11.2328 0.426268 12.3317 1.23879 13.3502C1.25996 13.9184 1.16008 14.5846 0.858905 15.2069C0.70445 15.5261 0.502988 15.8148 0.248739 16.0691C-0.371811 16.6897 0.265411 17.7241 1.09879 17.449C1.49531 17.3181 2.17388 17.0561 3.0687 16.694C3.13945 16.6653 3.13945 16.6653 3.21008 16.6366C3.68281 16.4446 4.18069 16.2391 4.6731 16.0337C4.87296 15.9503 5.04202 15.8794 5.17078 15.8252H7.50107C10.9951 15.8252 13.8501 14.1894 14.7224 11.6609H14.8293C14.958 11.7151 15.1271 11.786 15.3269 11.8694C15.8194 12.0749 16.3172 12.2804 16.79 12.4724C16.8606 12.501 16.8606 12.501 16.9313 12.5297C17.8262 12.8918 18.5047 13.1539 18.9013 13.2848C19.7346 13.5599 20.3718 12.5254 19.7513 11.9049ZM7.50103 14.1593H5.00227C4.89077 14.1593 4.78039 14.1817 4.67771 14.2252C4.55 14.2792 4.32429 14.3741 4.03155 14.4963C3.58247 14.6837 3.12891 14.871 2.69518 15.0477C2.89059 14.36 2.93752 13.6844 2.89164 13.0783C2.88602 13.0038 2.87985 12.947 2.8747 12.9096C2.8528 12.7505 2.78537 12.6011 2.6805 12.4794C1.99822 11.6877 1.67057 10.8977 1.67057 9.99468C1.67057 7.98985 3.38222 6.42411 5.92576 5.9666C5.96191 5.96524 5.99854 5.96168 6.03547 5.95548C6.52605 5.8729 7.01319 5.83042 7.50146 5.83042C9.30068 5.83042 10.8337 6.32966 11.8756 7.15687C12.7947 7.88678 13.3315 8.87192 13.3315 9.99472C13.3315 10.0277 13.3308 10.0605 13.3299 10.0933C13.3235 10.2713 13.3001 10.4579 13.259 10.6685C13.2539 10.695 13.2503 10.7213 13.2477 10.7475C12.7925 12.7517 10.5221 14.1593 7.50103 14.1593ZM17.3192 8.31551C17.2145 8.43713 17.1472 8.58639 17.1253 8.74538C17.1201 8.78274 17.114 8.83959 17.1083 8.91408C17.0624 9.52023 17.1094 10.1958 17.3048 10.8835C16.8711 10.7068 16.4175 10.5195 15.9684 10.332C15.6757 10.2099 15.45 10.115 15.3223 10.0609C15.2196 10.0175 15.1092 9.99511 14.9977 9.99511C14.9977 8.32242 14.2271 6.90215 12.9537 5.88223C11.5983 4.79644 9.67312 4.16433 7.50103 4.16433C7.36774 4.16433 7.23542 4.16676 7.10404 4.17148C7.95007 2.66172 9.97707 1.66593 12.4989 1.66593C15.8858 1.66593 18.3294 3.43497 18.3294 5.83054C18.3294 6.73271 18.0017 7.52282 17.3192 8.31551Z" fill="#E1E1E1"/>
</svg>
