<svg width="10" height="4" viewBox="0 0 10 4" fill="none" xmlns="http://www.w3.org/2000/svg">
<path d="M8.7305 3.45787L9.86686 2.32151C10.0444 2.14402 10.0444 1.8562 9.86686 1.67869L8.7305 0.542326C8.6005 0.412326 8.40498 0.373447 8.23514 0.443781C8.06529 0.514144 7.95453 0.679902 7.95453 0.86372L7.95453 1.54554L0.454561 1.54554C0.20353 1.54554 1.50545e-05 1.74905 1.50435e-05 2.00008C1.50325e-05 2.25111 0.20353 2.45463 0.45456 2.45463L7.95456 2.45463L7.95456 3.13645C7.95456 3.3203 8.06532 3.48605 8.23517 3.55639C8.40502 3.62675 8.6005 3.58787 8.7305 3.45787Z" fill="#E1E1E1"/>
</svg>
