<svg width="15" height="14" viewBox="0 0 15 14" fill="none" xmlns="http://www.w3.org/2000/svg">
<path d="M14.9666 5.29901C14.8864 5.05784 14.673 4.88208 14.4161 4.84567L10.0598 4.22744L8.11152 0.371326C7.99663 0.143965 7.75955 0 7.5 0C7.24041 0 7.00332 0.143965 6.88848 0.371326L4.94036 4.2274L0.583897 4.84562C0.327033 4.88208 0.113585 5.05784 0.0333893 5.29897C-0.0468069 5.54014 0.0200687 5.80485 0.205966 5.98181L3.3583 8.98288L2.61385 13.2213C2.56998 13.4712 2.67514 13.7237 2.88513 13.8728C3.00392 13.9571 3.14463 14 3.28602 14C3.39454 14 3.50351 13.9747 3.6033 13.9235L7.49995 11.9226L11.3966 13.9235C11.4969 13.975 11.6069 13.9996 11.7158 14C12.092 13.9995 12.3967 13.7015 12.3967 13.3339C12.3967 13.2827 12.3908 13.2329 12.3796 13.1851L11.6417 8.98292L14.794 5.98181C14.9799 5.80485 15.0468 5.54014 14.9666 5.29901Z" fill="#E1E1E1"/>
</svg>
