<svg width="10" height="10" viewBox="0 0 10 10" fill="none" xmlns="http://www.w3.org/2000/svg">
<path d="M7.72726 1.81941H8.1818V2.27395C8.1818 2.39451 8.22969 2.51012 8.31493 2.59536C8.40018 2.68061 8.51579 2.7285 8.63635 2.7285C8.7569 2.7285 8.87251 2.68061 8.95776 2.59536C9.043 2.51012 9.09089 2.39451 9.09089 2.27395V1.81941H9.54544C9.66599 1.81941 9.7816 1.77152 9.86685 1.68628C9.95209 1.60103 9.99998 1.48542 9.99998 1.36486C9.99998 1.24431 9.95209 1.1287 9.86685 1.04345C9.7816 0.958209 9.66599 0.91032 9.54544 0.91032H9.09089V0.455775C9.09089 0.335223 9.043 0.219608 8.95776 0.134364C8.87251 0.0491203 8.7569 0.00123095 8.63635 0.00123095C8.51579 0.00123095 8.40018 0.0491203 8.31493 0.134364C8.22969 0.219608 8.1818 0.335223 8.1818 0.455775V0.91032H7.72726C7.60671 0.91032 7.49109 0.958209 7.40585 1.04345C7.3206 1.1287 7.27271 1.24431 7.27271 1.36486C7.27271 1.48542 7.3206 1.60103 7.40585 1.68628C7.49109 1.77152 7.60671 1.81941 7.72726 1.81941ZM2.72727 2.7285V7.27394C2.72727 7.39449 2.77516 7.51011 2.8604 7.59535C2.94565 7.6806 3.06126 7.72849 3.18181 7.72849C3.30237 7.72849 3.41798 7.6806 3.50322 7.59535C3.58847 7.51011 3.63636 7.39449 3.63636 7.27394V2.7285C3.63636 2.60794 3.58847 2.49233 3.50322 2.40709C3.41798 2.32184 3.30237 2.27395 3.18181 2.27395C3.06126 2.27395 2.94565 2.32184 2.8604 2.40709C2.77516 2.49233 2.72727 2.60794 2.72727 2.7285ZM9.36362 3.63759C9.30511 3.64951 9.24953 3.67285 9.20005 3.70626C9.15057 3.73968 9.10815 3.78251 9.07523 3.83232C9.04231 3.88213 9.01952 3.93793 9.00817 3.99655C8.99681 4.05517 8.99712 4.11545 9.00907 4.17395C9.18655 5.03586 9.08136 5.93202 8.70913 6.72941C8.33689 7.5268 7.71746 8.1829 6.94278 8.60033C6.16809 9.01776 5.27945 9.17426 4.40877 9.0466C3.53809 8.91895 2.73178 8.51393 2.10953 7.89168C1.48728 7.26943 1.08227 6.46313 0.954606 5.59244C0.826947 4.72176 0.983447 3.83312 1.40088 3.05844C1.81831 2.28375 2.47441 1.66432 3.2718 1.29208C4.06919 0.919853 4.96535 0.814666 5.82726 0.992138C5.94781 1.01625 6.07301 0.991482 6.1753 0.923287C6.27759 0.855092 6.3486 0.749055 6.37271 0.628502C6.39683 0.50795 6.37206 0.382757 6.30386 0.280464C6.23567 0.178172 6.12963 0.107159 6.00908 0.0830489C5.67644 0.0210724 5.33827 -0.00634604 4.99999 0.00123095C4.01109 0.00123095 3.04439 0.294475 2.22215 0.843881C1.3999 1.39329 0.759041 2.17418 0.380604 3.08781C0.00216643 4.00144 -0.09685 5.00677 0.0960756 5.97667C0.289001 6.94657 0.765204 7.83748 1.46447 8.53675C2.16373 9.23601 3.05464 9.71221 4.02454 9.90513C4.99444 10.0981 5.99978 9.99904 6.9134 9.62061C7.82703 9.24217 8.60792 8.60131 9.15733 7.77906C9.70674 6.95682 9.99998 5.99012 9.99998 5.00122C10.0009 4.66534 9.96744 4.33026 9.89998 4.00122C9.88909 3.9419 9.86651 3.88534 9.83354 3.83484C9.80058 3.78433 9.75789 3.74089 9.70797 3.70705C9.65805 3.6732 9.6019 3.64963 9.54278 3.6377C9.48366 3.62578 9.42275 3.62574 9.36362 3.63759ZM4.54545 3.63759V4.09213C4.54745 4.42852 4.67372 4.75229 4.89999 5.00122C4.67372 5.25014 4.54745 5.57392 4.54545 5.91031V6.36485C4.54545 6.72651 4.68911 7.07336 4.94485 7.32909C5.20058 7.58482 5.54742 7.72849 5.90908 7.72849H6.36362C6.72528 7.72849 7.07213 7.58482 7.32786 7.32909C7.58359 7.07336 7.72726 6.72651 7.72726 6.36485V5.91031C7.72525 5.57392 7.59898 5.25014 7.37271 5.00122C7.59898 4.75229 7.72525 4.42852 7.72726 4.09213V3.63759C7.72726 3.27593 7.58359 2.92908 7.32786 2.67335C7.07213 2.41762 6.72528 2.27395 6.36362 2.27395H5.90908C5.54742 2.27395 5.20058 2.41762 4.94485 2.67335C4.68911 2.92908 4.54545 3.27593 4.54545 3.63759ZM6.81817 6.36485C6.81817 6.48541 6.77028 6.60102 6.68504 6.68626C6.59979 6.77151 6.48418 6.8194 6.36362 6.8194H5.90908C5.78853 6.8194 5.67291 6.77151 5.58767 6.68626C5.50242 6.60102 5.45454 6.48541 5.45454 6.36485V5.91031C5.45454 5.78976 5.50242 5.67414 5.58767 5.5889C5.67291 5.50365 5.78853 5.45576 5.90908 5.45576H6.36362C6.48418 5.45576 6.59979 5.50365 6.68504 5.5889C6.77028 5.67414 6.81817 5.78976 6.81817 5.91031V6.36485ZM6.81817 3.63759V4.09213C6.81817 4.21268 6.77028 4.3283 6.68504 4.41354C6.59979 4.49879 6.48418 4.54668 6.36362 4.54668H5.90908C5.78853 4.54668 5.67291 4.49879 5.58767 4.41354C5.50242 4.3283 5.45454 4.21268 5.45454 4.09213V3.63759C5.45454 3.51703 5.50242 3.40142 5.58767 3.31617C5.67291 3.23093 5.78853 3.18304 5.90908 3.18304H6.36362C6.48418 3.18304 6.59979 3.23093 6.68504 3.31617C6.77028 3.40142 6.81817 3.51703 6.81817 3.63759Z" fill="#EFEFEF"/>
</svg>
