<svg width="11" height="10" viewBox="0 0 11 10" fill="none" xmlns="http://www.w3.org/2000/svg">
<path d="M4.38451 4.85895C4.38451 4.95094 4.31092 5.02453 4.21893 5.02453H3.59751C3.50552 5.02453 3.43193 4.95094 3.43193 4.85895V4.23753C3.43193 4.14554 3.50552 4.07195 3.59751 4.07195H4.21893C4.31092 4.07195 4.38451 4.14554 4.38451 4.23753V4.85895ZM5.68254 4.23957C5.68254 4.14759 5.60895 4.074 5.51697 4.074H4.89554C4.80356 4.074 4.72997 4.14759 4.72997 4.23957V4.861C4.72997 4.95298 4.80356 5.02657 4.89554 5.02657H5.51697C5.60895 5.02657 5.68254 4.95298 5.68254 4.861V4.23957ZM6.98058 4.23957C6.98058 4.14759 6.90699 4.074 6.815 4.074H6.19358C6.10159 4.074 6.028 4.14759 6.028 4.23957V4.861C6.028 4.95298 6.10159 5.02657 6.19358 5.02657H6.815C6.90699 5.02657 6.98058 4.95298 6.98058 4.861V4.23957ZM4.38451 5.50286C4.38451 5.41087 4.31092 5.33729 4.21893 5.33729H3.59751C3.50552 5.33729 3.43193 5.41087 3.43193 5.50286V6.12428C3.43193 6.21627 3.50552 6.28986 3.59751 6.28986H4.21893C4.31092 6.28986 4.38451 6.21627 4.38451 6.12428V5.50286ZM5.68254 5.50286C5.68254 5.41087 5.60895 5.33729 5.51697 5.33729H4.89554C4.80356 5.33729 4.72997 5.41087 4.72997 5.50286V6.12428C4.72997 6.21627 4.80356 6.28986 4.89554 6.28986H5.51697C5.60895 6.28986 5.68254 6.21627 5.68254 6.12428V5.50286ZM6.815 5.33729H6.19358C6.10159 5.33729 6.028 5.41087 6.028 5.50286V6.12428C6.028 6.21627 6.10159 6.28986 6.19358 6.28986H6.815C6.90699 6.28986 6.98058 6.21627 6.98058 6.12428V5.50286C6.98058 5.41087 6.90699 5.33729 6.815 5.33729ZM2.91885 6.60057H2.29947C2.20748 6.60057 2.13389 6.67416 2.13389 6.76615V7.38757C2.13389 7.47956 2.20748 7.55315 2.29947 7.55315H2.92089C3.01288 7.55315 3.08647 7.47956 3.08647 7.38757V6.76615C3.08647 6.67416 3.01083 6.60057 2.91885 6.60057ZM3.08647 5.50286C3.08647 5.41087 3.01288 5.33729 2.92089 5.33729H2.29947C2.20748 5.33729 2.13389 5.41087 2.13389 5.50286V6.12428C2.13389 6.21627 2.20748 6.28986 2.29947 6.28986H2.92089C3.01288 6.28986 3.08647 6.21627 3.08647 6.12428V5.50286V5.50286ZM5.51697 6.60057H4.89554C4.80356 6.60057 4.72997 6.67416 4.72997 6.76615V7.38757C4.72997 7.47956 4.80356 7.55315 4.89554 7.55315H5.51697C5.60895 7.55315 5.68254 7.47956 5.68254 7.38757V6.76615C5.68254 6.67416 5.60895 6.60057 5.51697 6.60057ZM4.21893 6.60057H3.59751C3.50552 6.60057 3.43193 6.67416 3.43193 6.76615V7.38757C3.43193 7.47956 3.50552 7.55315 3.59751 7.55315H4.21893C4.31092 7.55315 4.38451 7.47956 4.38451 7.38757V6.76615C4.38451 6.67416 4.31092 6.60057 4.21893 6.60057ZM8.11304 5.02657C8.20503 5.02657 8.27862 4.95298 8.27862 4.861V4.23957C8.27862 4.14759 8.20503 4.074 8.11304 4.074H7.49162C7.39963 4.074 7.32604 4.14759 7.32604 4.23957V4.861C7.32604 4.95298 7.39963 5.02657 7.49162 5.02657H8.11304ZM1.72506 8.90229H6.44092C6.36529 8.66517 6.32236 8.41169 6.32032 8.15004H1.72506C1.60241 8.15004 1.50429 8.04988 1.50429 7.92927V3.48733H8.898V5.55397C9.15965 5.55601 9.41312 5.59485 9.65024 5.67048V1.93173C9.65024 1.39411 9.2128 0.956664 8.67518 0.956664H7.58361V0.355683C7.58361 0.159444 7.42416 0 7.22792 0H6.67396C6.47772 0 6.31827 0.159444 6.31827 0.355683V0.958708H4.08197V0.355683C4.08197 0.159444 3.92253 0 3.72629 0H3.17232C2.97608 0 2.81664 0.159444 2.81664 0.355683V0.958708H1.72506C1.18745 0.958708 0.75 1.39616 0.75 1.93377V7.92927C0.75 8.46484 1.18745 8.90229 1.72506 8.90229ZM10.75 8.12142C10.75 9.14963 9.91598 9.98365 8.88778 9.98365C7.85957 9.98365 7.02555 9.14963 7.02555 8.12142C7.02555 7.09321 7.85957 6.2592 8.88778 6.2592C9.91598 6.2592 10.75 7.09321 10.75 8.12142ZM9.82809 7.639C9.82809 7.57972 9.8056 7.52249 9.76267 7.4816C9.67477 7.3937 9.53373 7.3937 9.44583 7.4816L8.63634 8.29109L8.32563 7.98038C8.23773 7.89248 8.09669 7.89248 8.00879 7.98038C7.96586 8.0233 7.94338 8.0785 7.94338 8.13778C7.94338 8.19706 7.96586 8.25429 8.00879 8.29518L8.4769 8.76329C8.5648 8.85119 8.70585 8.85119 8.79374 8.76329L9.76063 7.7964C9.8056 7.75552 9.82809 7.69828 9.82809 7.639Z" fill="#EFEFEF"/>
</svg>
