<svg width="8" height="10" viewBox="0 0 8 10" fill="none" xmlns="http://www.w3.org/2000/svg">
<path d="M3.78264 0C1.69687 0 0 1.6969 0 3.78264C0 4.64296 0.593018 5.90104 1.76254 7.52192C2.60806 8.69376 3.43994 9.61964 3.47493 9.65849L3.78266 10L4.0904 9.65849C4.12539 9.61967 4.95727 8.69376 5.80279 7.52192C6.97231 5.90104 7.56533 4.64299 7.56533 3.78264C7.5653 1.6969 5.8684 0 3.78264 0ZM3.78264 8.75258C2.74067 7.53446 0.828429 5.03923 0.828429 3.78264C0.828429 2.1537 2.15367 0.828429 3.78264 0.828429C5.41161 0.828429 6.73684 2.1537 6.73684 3.78264C6.73687 5.03923 4.82461 7.53446 3.78264 8.75258Z" fill="#EFEFEF"/>
<path d="M3.78248 5.1548C4.54039 5.1548 5.1548 4.54039 5.1548 3.78248C5.1548 3.02457 4.54039 2.41016 3.78248 2.41016C3.02457 2.41016 2.41016 3.02457 2.41016 3.78248C2.41016 4.54039 3.02457 5.1548 3.78248 5.1548Z" fill="#EFEFEF"/>
</svg>
