<svg width="10" height="9" viewBox="0 0 10 9" fill="none" xmlns="http://www.w3.org/2000/svg">
<path d="M9.47853 3.62026V3.23404C9.47853 2.52778 8.99389 1.93411 8.34019 1.764L8.33901 1.1272C8.33901 0.50574 7.83327 0 7.21155 0H7.15192L1.87539 1.63687C1.75522 1.64382 1.6412 1.6716 1.53413 1.71341H1.52037C0.68214 1.71341 0 2.39555 0 3.23404V7.00894C0 7.84729 0.682009 8.52957 1.52037 8.52957H7.95817C8.79639 8.52957 9.47853 7.84743 9.47853 7.00894V6.50687C9.78297 6.38905 10 6.09391 10 5.74819V4.37867C9.99987 4.03321 9.78297 3.73807 9.47853 3.62026ZM9.21354 5.74806C9.21354 5.76353 9.20135 5.77571 9.18589 5.77571H7.05743C7.04196 5.77571 7.02991 5.76353 7.02991 5.74806V4.37867C7.02991 4.3636 7.04223 4.35128 7.05743 4.35128H9.18589C9.20109 4.35128 9.21354 4.3636 9.21354 4.37867V5.74806ZM7.26017 0.789867C7.42543 0.813457 7.55268 0.955782 7.55268 1.12786L7.55373 1.71354H4.28274L7.26017 0.789867ZM7.95817 7.74311H1.5205C1.11514 7.74311 0.786459 7.41429 0.786459 7.00881V3.23404C0.786459 2.82842 1.11514 2.49974 1.5205 2.49974H7.95817C8.36365 2.49974 8.6922 2.82842 8.6922 3.23404V3.56495H7.05743C6.6087 3.56495 6.24358 3.92994 6.24358 4.37867V5.74806C6.24358 6.19692 6.6087 6.56204 7.05743 6.56204H8.6922V7.00894C8.6922 7.41429 8.36365 7.74311 7.95817 7.74311Z" fill="#EFEFEF"/>
</svg>
