<svg width="10" height="10" viewBox="0 0 10 10" fill="none" xmlns="http://www.w3.org/2000/svg">
<path d="M8.47376 1.27921C8.23141 0.649619 7.62585 0.220323 6.92749 0.220323C6.62639 0.220323 6.33729 0.300441 6.08426 0.449993C5.78048 0.162906 5.37722 0 4.94859 0C4.65549 0 4.36841 0.0787822 4.11737 0.224329C3.86567 0.0787822 3.57925 0 3.28615 0C2.50367 0 1.84604 0.544799 1.67245 1.27454C1.66778 1.27454 1.66377 1.27454 1.6591 1.27454C0.743757 1.27454 0 2.01896 0 2.93364C0 3.84898 0.743757 4.59274 1.6591 4.59274C1.79196 4.59274 1.92215 4.57738 2.04901 4.54667C2.35479 4.83643 2.75604 4.998 3.18601 4.998C3.24943 4.998 3.31152 4.99332 3.37361 4.98598C3.40032 5.20296 3.42769 5.48605 3.44238 5.80184C2.57177 5.92269 1.58766 6.20443 1.58766 6.86807C1.58766 7.48097 2.42689 7.76873 3.24075 7.90359C3.05915 8.46708 2.73668 8.91107 2.18654 9.03325C1.9789 9.07932 1.84871 9.28562 1.89478 9.49259C1.93484 9.67218 2.09374 9.7937 2.27 9.7937C2.29804 9.7937 2.32608 9.79036 2.35412 9.78368C3.28682 9.57538 3.7742 8.84898 4.01522 7.99306C4.36307 8.01909 4.63413 8.02176 4.72159 8.02176C4.81106 8.02176 5.09614 8.01909 5.45934 7.99038C5.70036 8.84631 6.18774 9.57538 7.12111 9.78368C7.14915 9.79036 7.17719 9.7937 7.20523 9.7937C7.38149 9.7937 7.54039 9.67152 7.58045 9.49259C7.62652 9.28495 7.49633 9.07932 7.28869 9.03325C6.73788 8.9104 6.41608 8.46375 6.23448 7.89825C7.03832 7.76072 7.85552 7.47296 7.85552 6.86807C7.85552 6.21311 6.89611 5.92936 6.03352 5.80718C6.0462 5.54346 6.0669 5.30378 6.08826 5.10549C6.33796 5.25237 6.62572 5.33382 6.92683 5.33382C7.48898 5.33382 8.00507 5.05074 8.30885 4.59207C9.23154 4.61277 10.0007 3.85899 10 2.93297C10.0007 2.06236 9.32701 1.34664 8.47376 1.27921ZM2.42756 6.8674C2.58846 6.77193 2.93497 6.65443 3.44772 6.57498C3.44038 6.76726 3.42502 6.96221 3.40099 7.15382C2.91427 7.07371 2.58379 6.96021 2.42756 6.8674ZM4.72159 7.25197C4.5253 7.25197 4.3417 7.24596 4.16745 7.23594C4.19882 6.98758 4.21752 6.73855 4.2242 6.49619C4.38109 6.48751 4.546 6.48284 4.72092 6.48284C4.90787 6.48284 5.08412 6.48885 5.25037 6.49753C5.25771 6.73855 5.27507 6.98691 5.30712 7.23394C5.12485 7.24596 4.9299 7.25197 4.72159 7.25197ZM6.07558 7.14782C6.05154 6.96021 6.03685 6.76926 6.02951 6.57965C6.52357 6.6591 6.85806 6.77393 7.01562 6.8674C6.8634 6.9582 6.54427 7.06903 6.07558 7.14782ZM4.72159 5.71371C4.65216 5.71371 4.46522 5.71505 4.21485 5.72907C4.19348 5.30712 4.15075 4.94792 4.1167 4.70957C4.18547 4.66284 4.25157 4.6121 4.31299 4.55535C4.61744 4.74763 4.98598 4.83376 5.34651 4.80371C5.31446 5.03872 5.27908 5.3612 5.26105 5.7304C4.99466 5.71572 4.79436 5.71371 4.72159 5.71371ZM8.16932 3.80558C7.99306 3.77086 7.81546 3.86367 7.74269 4.02924C7.60048 4.35439 7.28068 4.56403 6.92683 4.56403C6.59834 4.56403 6.2979 4.38376 6.14167 4.09334C6.0936 4.0032 6.01148 3.93577 5.91334 3.90706C5.87662 3.89571 5.8399 3.89037 5.80251 3.89037C5.73908 3.89037 5.67633 3.90573 5.62024 3.93644C5.48938 4.00721 5.34718 4.04326 5.19762 4.04326C4.94726 4.04326 4.71558 3.94111 4.54467 3.75618C4.46321 3.66805 4.34838 3.62265 4.22687 3.634C4.10803 3.64535 4.00053 3.71078 3.93644 3.81159C3.861 3.93177 3.75951 4.02791 3.64334 4.09868C3.634 4.10001 3.62532 4.09935 3.61597 4.10068C3.54653 4.11403 3.48578 4.14675 3.43571 4.19015C3.35492 4.21418 3.2708 4.22753 3.18467 4.22753C2.90292 4.22753 2.64388 4.09734 2.47363 3.87034C2.3668 3.72813 2.17653 3.67739 2.01228 3.74883C1.89945 3.79824 1.78061 3.82294 1.65776 3.82294C1.16704 3.82294 0.767793 3.42369 0.767793 2.93297C0.767793 2.44225 1.16704 2.043 1.65776 2.043C1.74055 2.043 1.82401 2.05501 1.90613 2.07905C2.02564 2.1131 2.15383 2.08906 2.2513 2.01162C2.34945 1.93551 2.40353 1.81666 2.39818 1.69248C2.39818 1.68914 2.39618 1.6611 2.39618 1.65843C2.39618 1.16771 2.79543 0.76846 3.28615 0.76846C3.49846 0.76846 3.7041 0.84524 3.867 0.984778C4.01122 1.10896 4.22486 1.10896 4.36907 0.984778C4.53064 0.84524 4.73695 0.76846 4.94926 0.76846C5.25504 0.76846 5.53612 0.923354 5.70103 1.1844C5.76379 1.28322 5.86727 1.34798 5.98344 1.36133C6.10028 1.37402 6.21578 1.33329 6.29857 1.2505C6.46682 1.08225 6.69048 0.988783 6.92816 0.988783C7.36413 0.988783 7.73267 1.30124 7.80478 1.73187C7.83816 1.93551 8.02577 2.07571 8.23141 2.05101C8.26813 2.04633 8.30485 2.043 8.3429 2.043C8.83362 2.043 9.23287 2.44225 9.23287 2.93297C9.23154 3.47977 8.73147 3.91574 8.16932 3.80558Z" fill="#EFEFEF"/>
</svg>
