<svg width="18" height="9" viewBox="0 0 18 9" fill="none" xmlns="http://www.w3.org/2000/svg">
<path d="M13.6538 4.97021C14.667 4.97021 15.4873 5.7911 15.4873 6.80433C15.4873 7.81755 14.6664 8.63844 13.6538 8.63844C12.6417 8.63844 11.8202 7.81755 11.8202 6.80433C11.8202 5.7911 12.6417 4.97021 13.6538 4.97021ZM13.6538 7.35845C13.9583 7.35845 14.2079 7.11001 14.2079 6.8049C14.2079 6.49979 13.9583 6.25135 13.6538 6.25135C13.3498 6.25135 13.1008 6.49979 13.1008 6.8049C13.1008 7.11001 13.3492 7.35845 13.6538 7.35845Z" fill="#E1E1E1"/>
<path d="M0.302866 5.30174L0.602827 2.86198C0.661789 2.39372 1.07109 2.05025 1.54336 2.07601L2.20052 2.11265L4.24072 0.274529C4.43764 0.0976437 4.69123 0.000328536 4.9557 0.000328536L9.10077 -0.000244141C10.031 -0.000244141 10.9332 0.317463 11.6585 0.900212L13.9711 2.75837L17.0812 3.53575C17.4808 3.63535 17.7613 3.99485 17.7613 4.40644V5.30289C17.893 5.30231 18 5.40879 18 5.54045V6.72598C18 6.89486 17.8632 7.03167 17.6943 7.03167H15.9386C15.9461 6.95553 15.9615 6.88283 15.9615 6.80498C15.9615 5.53015 14.9288 4.4986 13.6546 4.4986C12.3803 4.4986 11.3482 5.53015 11.3482 6.80498C11.3482 6.88341 11.3642 6.95611 11.3717 7.03167H6.50989C6.51676 6.95553 6.53221 6.88283 6.53221 6.80498C6.53221 5.53015 5.49952 4.4986 4.22583 4.4986C2.951 4.4986 1.92002 5.53015 1.92002 6.80498C1.92002 6.88341 1.93491 6.95611 1.94292 7.03167H0.305157C0.136286 7.03167 4.3869e-05 6.89486 4.3869e-05 6.72598V5.608C-0.00281906 5.4397 0.133995 5.30174 0.302866 5.30174ZM6.45493 2.30385L12.2378 2.59637L11.1307 1.70621C10.529 1.2225 9.78141 0.959173 9.00918 0.959173H6.45493V2.30385ZM5.49437 2.25519V0.959746H5.11827C4.98776 0.959746 4.86239 1.00783 4.76565 1.09542L3.58527 2.15787L5.49437 2.25519Z" fill="#E1E1E1"/>
<path d="M4.22457 4.97021C5.23779 4.97021 6.05811 5.7911 6.05811 6.80433C6.05811 7.81755 5.23722 8.63844 4.22457 8.63844C3.21191 8.63844 2.39102 7.81755 2.39102 6.80433C2.39102 5.7911 3.21191 4.97021 4.22457 4.97021ZM4.22457 7.35845C4.52968 7.35845 4.77812 7.11001 4.77812 6.8049C4.77812 6.49979 4.52968 6.25135 4.22457 6.25135C3.9206 6.25135 3.67101 6.49979 3.67101 6.8049C3.67101 7.11001 3.92002 7.35845 4.22457 7.35845Z" fill="#E1E1E1"/>
</svg>
