<svg width="24" height="7" viewBox="0 0 24 7" fill="none" xmlns="http://www.w3.org/2000/svg">
<path d="M0.0296478 3.8393C0.0438995 3.42435 0.415125 2.84032 0.536997 2.65988C0.451731 2.52581 0.412004 2.4238 0.455051 2.34224C0.501175 2.25561 0.607426 2.25561 0.642225 2.25561C0.706211 2.25561 0.787718 2.26723 0.882404 2.28055C1.10126 2.31198 1.42455 2.34454 1.6888 2.29553C2.2306 2.19597 2.97247 2.13877 3.72454 2.13877C3.91875 2.13877 4.10143 2.14306 4.26455 2.15028C4.87849 2.17591 5.97809 1.38058 7.39218 0.997784L7.92203 0.854828C8.62578 0.6657 9.16871 0.569843 9.53545 0.569843C9.72931 0.569843 9.83805 0.597029 9.89833 0.625776C9.93962 0.613477 9.97925 0.607327 10.0166 0.607327C10.2158 0.607327 10.3069 0.772881 10.3413 0.915446C10.4473 0.907735 10.5195 0.968158 10.5644 1.02614C10.7335 1.01423 10.8282 1.1607 10.815 1.1384L10.8282 1.1607L10.8293 2.62664C11.1719 2.71196 13.0168 2.82114 14.4172 2.88629C14.3758 2.84613 14.3418 2.80103 14.3161 2.75066C14.236 2.59599 14.2544 2.43546 14.2793 2.3378L12.7337 1.15899L12.7225 1.11282C12.7202 1.10272 12.6657 0.867176 12.8075 0.687419C12.9056 0.563058 13.0669 0.499756 13.2869 0.499756C13.3501 0.499756 13.4988 0.499756 13.5 0.516594C14.2973 0.633926 17.4989 2.62523 17.7967 2.76457C21.5819 2.91397 23.9426 4.87387 23.9664 4.89364L24 4.92258V6.00536L23.9799 6.03079C23.5168 6.63361 21.7785 6.90034 20.1761 6.96257C20.2013 6.92953 20.2273 6.89746 20.2508 6.86261C20.2723 6.83113 20.2906 6.79789 20.3102 6.76544C20.5074 6.43862 20.6232 6.05817 20.6232 5.64961C20.6232 4.45476 19.6511 3.48257 18.456 3.48257C17.2611 3.48257 16.289 4.45476 16.289 5.64961C16.289 5.97393 16.3626 6.28 16.4905 6.55654C16.5058 6.58944 16.5212 6.62282 16.538 6.65455C16.5556 6.68818 16.5753 6.72049 16.5947 6.75294C14.9572 6.67592 11.7146 6.66319 8.76807 6.65206C7.70916 6.64752 6.6743 6.64381 5.73779 6.63698C5.75463 6.60603 5.76829 6.57338 5.78376 6.54171C5.79899 6.50988 5.81578 6.47874 5.82969 6.44629C5.94897 6.16857 6.0157 5.86246 6.0157 5.54228C6.0157 4.27457 4.98416 3.24312 3.71668 3.24312C2.44907 3.24312 1.41772 4.27457 1.41772 5.54228C1.41772 5.78734 1.45706 6.02342 1.52861 6.24486C1.5413 6.28454 1.55653 6.32349 1.57161 6.36239C1.58611 6.39977 1.6008 6.43731 1.61681 6.47386C1.12454 6.3579 0.73823 6.14764 0.468863 5.83981C-0.0758247 5.21703 -0.0111065 4.37804 0.0197887 3.97401C0.0247669 3.92164 0.0280857 3.87518 0.0296478 3.8393Z" fill="#E1E1E1"/>
<path d="M18.5001 6.49979C18.1901 6.49979 17.9167 6.35594 17.7333 6.13456C17.7174 6.11549 17.7004 6.09751 17.686 6.07732C17.6732 6.05935 17.6621 6.04036 17.6506 6.02154C17.5569 5.86926 17.5 5.69144 17.5 5.49976C17.5 4.94732 17.9478 4.49979 18.5001 4.49979C19.0524 4.49979 19.5 4.94767 19.5 5.49976C19.5 5.74218 19.4103 5.96135 19.2668 6.13434C19.252 6.15242 19.2385 6.17174 19.2223 6.18829C19.2037 6.20782 19.183 6.22544 19.1629 6.24344C18.986 6.401 18.7554 6.49979 18.5001 6.49979Z" fill="#E1E1E1"/>
<path d="M4.55053 6.01991C4.54044 6.03655 4.53142 6.05372 4.52049 6.06975C4.33999 6.32907 4.04045 6.49976 3.7002 6.49976C3.34206 6.49976 3.03046 6.31019 2.85394 6.02738C2.84281 6.00962 2.83384 5.99041 2.82403 5.97181C2.81372 5.95314 2.80258 5.93536 2.79361 5.91579C2.73502 5.7889 2.7002 5.6486 2.7002 5.49984C2.7002 4.94752 3.14829 4.49976 3.7002 4.49976C4.25254 4.49976 4.7002 4.94755 4.7002 5.49984C4.7002 5.67076 4.65332 5.82933 4.57768 5.97011C4.56849 5.98695 4.56033 6.00389 4.55053 6.01991Z" fill="#E1E1E1"/>
</svg>
