<?xml version="1.0" encoding="UTF-8"?><svg id="Calque_2" xmlns="http://www.w3.org/2000/svg" viewBox="0 0 34.96 35"><defs><style>.cls-1{fill:#efefef;}</style></defs><g id="space"><g id="row1"><g id="space_shuttle"><path id="_2" class="cls-1" d="m5.74,22.21l7.05,7.07,1.34-1.31-7.08-7.09-1.31,1.34ZM34.01.96c-1.94-1.94-6.45-.63-8.39,1.34L7.49,20.43l2.65,2.66,5.3-5.31,1.78,1.78-5.3,5.29,2.65,2.66,18.11-18.16c1.97-1.94,3.28-6.44,1.34-8.38Zm-3.99,10.16l-.87-.88c1.23-1.23,1.23-3.2,0-4.41-1.23-1.23-3.2-1.21-4.43,0-.87-.88-.41-.41-.87-.88,1.72-1.73,4.48-1.73,6.17,0,1.72,1.67,1.72,4.46,0,6.16ZM9.92,27.27c-.38-.38-2.9,1.53-3.31,1.1-.33-.33,1.45-2.99,1.12-3.29-.87-.88-1.56-1.56-1.56-1.56,0,0-6.86,7.31-4.43,9.72s9.73-4.41,9.73-4.41c0,0-.68-.68-1.56-1.56Z"/><path id="_1" class="cls-1" d="m3.85,6.41c-2.92,2.93-3.85,3.86-3.85,3.86l7.95,7.94,11.94-11.94s-16.69.79-16.04.14Zm24.83,8.71l-11.91,11.94,7.95,7.94,3.85-3.86c-.68.68.11-16.02.11-16.02Z"/></g></g></g></svg>