<svg width="18" height="14" viewBox="0 0 18 14" fill="none" xmlns="http://www.w3.org/2000/svg">
<path d="M15.1117 8.87659H2.88843C1.98955 8.87659 1.2583 9.60787 1.2583 10.5067C1.2583 10.5315 1.25904 10.5562 1.2602 10.5808C1.26055 10.5886 1.26101 10.5964 1.26146 10.6043C1.26248 10.6216 1.26382 10.6389 1.2654 10.6561C1.26614 10.6644 1.26677 10.6727 1.26769 10.6809C1.27008 10.7029 1.27282 10.7249 1.27609 10.7467C1.27774 10.7577 1.27971 10.7686 1.28157 10.7795C1.28361 10.7914 1.28565 10.8033 1.28794 10.815C1.2904 10.8278 1.29296 10.8405 1.29571 10.8531C1.29771 10.8624 1.29989 10.8715 1.30207 10.8806C1.3085 10.908 1.31561 10.935 1.32341 10.9618C1.32475 10.9665 1.32601 10.9712 1.32738 10.9758C1.33174 10.9903 1.33645 11.0046 1.34116 11.019C1.34352 11.0261 1.34595 11.0332 1.34837 11.0402C1.35329 11.0543 1.35825 11.0684 1.36352 11.0824C1.36584 11.0885 1.36834 11.0945 1.3707 11.1006C1.38001 11.1243 1.38986 11.1478 1.40023 11.171C1.40434 11.1802 1.40842 11.1894 1.41271 11.1986C1.4178 11.2093 1.42301 11.22 1.42832 11.2307C1.43405 11.2422 1.43995 11.2536 1.44597 11.2651C1.45039 11.2735 1.45482 11.282 1.45939 11.2904C1.47029 11.3102 1.48158 11.3299 1.49329 11.3493C1.49508 11.3522 1.49694 11.3551 1.49877 11.358C1.51013 11.3765 1.52183 11.3947 1.53389 11.4128C1.53604 11.4159 1.53811 11.4191 1.54025 11.4222C1.6986 11.6553 1.91717 11.8479 2.18003 11.9748C2.18319 11.9764 2.18643 11.9778 2.18963 11.9793C2.20214 11.9852 2.21462 11.9912 2.22735 11.9969L2.238 12.0012C2.26792 12.0143 2.29812 12.0267 2.32895 12.0381L4.81014 13.043C4.81398 13.0447 4.81788 13.0461 4.82175 13.0477C4.83792 13.0547 4.85444 13.061 4.87082 13.0676C4.8878 13.0743 4.90471 13.0814 4.9218 13.0877C4.93878 13.094 4.95608 13.0997 4.97327 13.1055C4.99053 13.1114 5.00772 13.1177 5.02509 13.1231C5.03993 13.1278 5.05501 13.1318 5.06995 13.1361C5.09009 13.142 5.11017 13.1481 5.13045 13.1534C5.14023 13.1559 5.15025 13.1579 5.16013 13.1603C5.18572 13.1665 5.21131 13.1728 5.23715 13.1781C5.23796 13.1783 5.2388 13.1784 5.23958 13.1785C5.3762 13.2064 5.51566 13.2208 5.65713 13.2219C5.66297 13.2219 5.66873 13.2223 5.67457 13.2223H5.6746H5.67464H12.3252C12.3256 13.2223 12.326 13.2223 12.3264 13.2223C12.3268 13.2223 12.3272 13.2223 12.3276 13.2223C12.6381 13.2223 12.9334 13.1564 13.2008 13.0385L15.6966 12.0279C15.7164 12.0202 15.736 12.0124 15.7554 12.0041L15.7568 12.0035L15.7723 11.9969C15.7851 11.9912 15.7975 11.9852 15.8101 11.9793C15.8133 11.9778 15.8165 11.9763 15.8197 11.9748C16.0825 11.8479 16.3012 11.6553 16.4594 11.4222C16.4616 11.4191 16.4637 11.4159 16.4658 11.4128C16.4779 11.3947 16.4896 11.3765 16.501 11.358C16.5027 11.3551 16.5046 11.3522 16.5064 11.3493C16.5181 11.3299 16.5294 11.3102 16.5403 11.2904C16.5449 11.282 16.5493 11.2735 16.5538 11.2651C16.5598 11.2536 16.5657 11.2423 16.5714 11.2307C16.5767 11.22 16.5819 11.2093 16.587 11.1986C16.5913 11.1894 16.5954 11.1802 16.5995 11.171C16.6099 11.1478 16.6197 11.1243 16.6291 11.1006C16.6315 11.0945 16.634 11.0884 16.6362 11.0824C16.6415 11.0684 16.6465 11.0543 16.6514 11.0402C16.6539 11.0331 16.6562 11.026 16.6586 11.0189C16.6634 11.0046 16.6681 10.9903 16.6724 10.9758C16.6737 10.9712 16.675 10.9664 16.6764 10.9618C16.6841 10.935 16.6913 10.9079 16.6977 10.8806C16.6999 10.8715 16.702 10.8623 16.7041 10.8531C16.7068 10.8405 16.7094 10.8278 16.7118 10.815C16.7141 10.8032 16.7161 10.7913 16.7182 10.7795C16.7201 10.7686 16.722 10.7577 16.7237 10.7467C16.7269 10.7248 16.7297 10.7029 16.7321 10.6809C16.733 10.6727 16.7336 10.6644 16.7344 10.6561C16.736 10.6389 16.7373 10.6216 16.7383 10.6042C16.7388 10.5965 16.7392 10.5886 16.7396 10.5808C16.7407 10.5562 16.7415 10.5315 16.7415 10.5067C16.7418 9.60787 16.0105 8.87659 15.1117 8.87659ZM2.88843 11.1178C2.80996 11.1178 2.73511 11.1024 2.66614 11.0753L2.64325 11.0661C2.62908 11.0598 2.61512 11.0532 2.60159 11.0459C2.59997 11.0451 2.59825 11.0443 2.59663 11.0434C2.58071 11.0347 2.56524 11.0252 2.55019 11.0152C2.54713 11.0131 2.54418 11.011 2.54115 11.0089C2.52892 11.0003 2.517 10.9915 2.50547 10.9821C2.50245 10.9797 2.49939 10.9773 2.49644 10.9748C2.46891 10.9518 2.44349 10.9263 2.42043 10.8988C2.41755 10.8953 2.4148 10.8918 2.41199 10.8883C2.40359 10.8779 2.39557 10.8671 2.38784 10.8561C2.38481 10.8518 2.38176 10.8475 2.37884 10.8432C2.36949 10.829 2.36056 10.8146 2.3524 10.7997C2.35033 10.7959 2.3486 10.792 2.3466 10.7882C2.34059 10.7766 2.33486 10.7649 2.32962 10.753C2.32677 10.7465 2.3241 10.74 2.3215 10.7335C2.31728 10.7229 2.31334 10.7122 2.30969 10.7013C2.30765 10.6953 2.30547 10.6894 2.30364 10.6833C2.29879 10.6673 2.2946 10.6511 2.29105 10.6345C2.28993 10.6292 2.28905 10.6236 2.28806 10.6183C2.28564 10.6053 2.28364 10.5922 2.28205 10.579C2.28138 10.5733 2.28072 10.5677 2.28019 10.5621C2.27854 10.5438 2.27738 10.5255 2.27738 10.5068C2.27738 10.1699 2.55146 9.8958 2.88839 9.8958C3.22533 9.8958 3.49941 10.1699 3.49941 10.5068C3.49941 10.8438 3.22537 11.1178 2.88843 11.1178ZM5.67471 12.2031C5.65488 12.2031 5.63505 12.2026 5.6154 12.2016C5.55795 12.1987 5.50156 12.1915 5.44661 12.1804C5.44514 12.1801 5.4437 12.1799 5.44225 12.1796C5.42742 12.1766 5.41283 12.1731 5.3982 12.1694C5.39402 12.1684 5.38977 12.1675 5.38558 12.1664C5.37303 12.1632 5.36062 12.1595 5.34825 12.1558C5.34202 12.154 5.33573 12.1523 5.32954 12.1503C5.31865 12.1469 5.30792 12.1431 5.29716 12.1393C5.28957 12.1367 5.28191 12.1342 5.27438 12.1314C5.26429 12.1276 5.25434 12.1235 5.24432 12.1195C5.23645 12.1163 5.22861 12.1132 5.22077 12.1099C4.80969 11.9332 4.52105 11.5245 4.52105 11.0494C4.52105 10.4132 5.03859 9.8957 5.67474 9.8957C6.3109 9.8957 6.82843 10.4132 6.82843 11.0494C6.82843 11.6855 6.31086 12.2031 5.67471 12.2031ZM9.00127 12.2031C8.36512 12.2031 7.84758 11.6856 7.84758 11.0494C7.84758 10.4133 8.36512 9.89573 9.00127 9.89573C9.63742 9.89573 10.155 10.4133 10.155 11.0494C10.155 11.6856 9.63746 12.2031 9.00127 12.2031ZM12.8075 12.0983L12.8011 12.1009L12.7878 12.1065C12.6418 12.1705 12.4867 12.2029 12.3266 12.2031C11.691 12.2025 11.1742 11.6852 11.1742 11.0495C11.1742 10.4133 11.6917 9.89577 12.3279 9.89577C12.964 9.89577 13.4816 10.4133 13.4816 11.0495C13.4815 11.5145 13.2047 11.9159 12.8075 12.0983ZM15.7199 10.5619C15.7194 10.5676 15.7187 10.5733 15.718 10.5789C15.7165 10.5921 15.7144 10.6052 15.712 10.6181C15.711 10.6236 15.7102 10.6291 15.709 10.6345C15.7055 10.651 15.7013 10.6672 15.6964 10.6832C15.6946 10.6894 15.6924 10.6953 15.6904 10.7013C15.6867 10.7122 15.6828 10.7229 15.6786 10.7334C15.676 10.74 15.6733 10.7464 15.6705 10.7529C15.6652 10.7648 15.6595 10.7766 15.6535 10.7881C15.6515 10.7919 15.6498 10.7958 15.6477 10.7996C15.6395 10.8145 15.6307 10.8289 15.6213 10.8431C15.6184 10.8475 15.6153 10.8517 15.6123 10.856C15.6046 10.8671 15.5966 10.8778 15.5882 10.8882C15.5853 10.8917 15.5826 10.8953 15.5797 10.8987C15.5567 10.9262 15.5312 10.9517 15.5037 10.9748C15.5008 10.9772 15.4977 10.9796 15.4947 10.9821C15.4831 10.9914 15.4712 11.0003 15.459 11.0087C15.456 11.0109 15.453 11.013 15.45 11.0151C15.4349 11.0251 15.4195 11.0346 15.4036 11.0433C15.4019 11.0442 15.4002 11.045 15.3986 11.0459C15.385 11.0531 15.3711 11.0597 15.3569 11.0659L15.334 11.0753C15.265 11.1023 15.1902 11.1177 15.1118 11.1177C14.7749 11.1177 14.5007 10.8437 14.5007 10.5067C14.5007 10.1698 14.7748 9.8957 15.1118 9.8957C15.4487 9.8957 15.7228 10.1698 15.7228 10.5067C15.7227 10.5254 15.7215 10.5437 15.7199 10.5619Z" fill="#E1E1E1"/>
<path d="M15.1117 6.83833H14.8676L12.5392 4.6149H11.2162C11.1624 4.32873 11.0623 4.05883 10.9237 3.8132L15.5873 1.88097L15.7811 2.34887L16.7666 1.9406L16.5727 1.47267L17.7491 0.985223L17.3408 -0.000244141L16.1644 0.487093L15.9706 0.0192325L14.9851 0.427503L15.179 0.895398L10.1715 2.97011C9.7376 2.65525 9.20463 2.46885 8.62866 2.46885H6.64433C5.35881 2.46885 4.28615 3.39491 4.05676 4.61483H2.42958V6.86691C1.47386 6.98591 0.606025 7.47445 0 8.24817L0.802302 8.87659C1.30961 8.2289 2.06993 7.85747 2.88841 7.85747H15.1116C15.9301 7.85747 16.6904 8.22894 17.1977 8.87659L18 8.24817C17.2983 7.35221 16.2455 6.83833 15.1117 6.83833Z" fill="#E1E1E1"/>
</svg>
