<svg width="12" height="12" viewBox="0 0 12 12" fill="none" xmlns="http://www.w3.org/2000/svg">
<path d="M11.3204 10.2383V3.45745C11.3204 3.05266 10.998 2.70398 10.5932 2.70398H7.94011V1.53485C7.94011 1.13007 7.61358 0.788488 7.20884 0.788488H7.0387V0.635643C7.0387 0.292995 6.75375 -0.000244141 6.4111 -0.000244141H2.17865C1.836 -0.000244141 1.51763 0.292995 1.51763 0.635643V0.788488H1.3809C0.976113 0.788488 0.616225 1.13007 0.616225 1.53485V10.2383C0.278197 10.3533 0 10.6953 0 11.0983C0 11.5954 0.419662 11.9998 0.916676 11.9998H11.0575C11.5545 11.9998 11.9555 11.5954 11.9555 11.0983C11.9554 10.6953 11.6584 10.3533 11.3204 10.2383ZM5.29222 11.042H3.26406V9.18285H5.29222V11.042ZM6.92603 7.7744H1.63025V6.76032H6.92603V7.7744ZM6.92603 5.46454H1.63025V4.45046H6.92603V5.46454ZM6.92603 3.15469H1.63025V2.1406H6.92603V3.15469ZM10.3626 7.7744H8.39082V6.76032H10.3626V7.7744ZM10.3626 5.46454H8.39082V4.45046H10.3626V5.46454Z" fill="#E1E1E1"/>
</svg>
