<svg width="20" height="20" viewBox="0 0 20 20" fill="none" xmlns="http://www.w3.org/2000/svg">
<g clip-path="url(#clip0_513_2)">
<path d="M9.99951 13.7064C9.44037 13.7064 8.97168 14.1751 8.97168 14.7342C8.97168 15.2934 9.44037 15.7621 9.99951 15.7621C10.5381 15.7621 11.0273 15.2934 11.0027 14.7589C11.0273 14.171 10.5628 13.7064 9.99951 13.7064Z" fill="#E1E1E1"/>
<path d="M19.5133 17.349C20.1588 16.2348 20.1629 14.9069 19.5215 13.7968L13.0832 2.64694C12.446 1.52455 11.2948 0.858521 10.0039 0.858521C8.71291 0.858521 7.56175 1.52866 6.92449 2.64283L0.477959 13.805C-0.163405 14.9274 -0.159294 16.2636 0.490293 17.3778C1.13166 18.4796 2.27871 19.1415 3.56144 19.1415H16.4216C17.7085 19.1415 18.8637 18.4714 19.5133 17.349ZM18.1155 16.5432C17.7578 17.1599 17.1247 17.5258 16.4175 17.5258H3.55733C2.85841 17.5258 2.22938 17.1681 1.87992 16.5637C1.52634 15.9511 1.52223 15.2193 1.8758 14.6026L8.32234 3.44453C8.6718 2.83195 9.29672 2.47015 10.0039 2.47015C10.7069 2.47015 11.3359 2.83606 11.6854 3.44865L18.1278 14.6067C18.4732 15.207 18.469 15.9306 18.1155 16.5432Z" fill="#E1E1E1"/>
<path d="M9.74465 6.49105C9.25541 6.63084 8.95117 7.07486 8.95117 7.61344C8.97584 7.93823 8.9964 8.26714 9.02106 8.59193C9.09096 9.82944 9.16085 11.0423 9.23074 12.2798C9.25541 12.6991 9.5802 13.0034 9.99956 13.0034C10.4189 13.0034 10.7478 12.6786 10.7684 12.2551C10.7684 12.0002 10.7684 11.7659 10.793 11.5069C10.8383 10.7134 10.8876 9.91989 10.9328 9.1264C10.9575 8.61249 11.0027 8.09858 11.0274 7.58466C11.0274 7.39965 11.0027 7.2352 10.9328 7.07075C10.7231 6.61028 10.2339 6.37594 9.74465 6.49105Z" fill="#E1E1E1"/>
</g>
<defs>
<clipPath id="clip0_513_2">
<rect width="20" height="20" fill="white"/>
</clipPath>
</defs>
</svg>
