<svg width="20" height="20" viewBox="0 0 20 20" fill="none" xmlns="http://www.w3.org/2000/svg">
<path d="M3.02222 5.85738C1.35321 5.85738 0 7.21054 0 8.8796C0 10.3905 1.10897 11.6425 2.55727 11.8661V18.0393H6.74188V11.9018H8.15619L13.7231 15.7986V1.96057L8.15619 5.85738H3.02222ZM12.3282 4.63966V13.1196L9.0735 10.8413V6.91795L12.3282 4.63966ZM3.95214 16.6444V11.9018H5.34701V16.6444H3.95214ZM3.02222 10.507C2.1249 10.507 1.39487 9.77692 1.39487 8.8796C1.39487 7.98228 2.1249 7.25225 3.02222 7.25225H7.67858V10.507H3.02222Z" fill="#E1E1E1"/>
<path d="M15.1182 3.99756V5.39243C17.041 5.39243 18.6053 6.95673 18.6053 8.87961C18.6053 10.8025 17.041 12.3668 15.1182 12.3668V13.7617C17.8101 13.7617 20.0002 11.5716 20.0002 8.87961C20.0002 6.18765 17.8101 3.99756 15.1182 3.99756Z" fill="#E1E1E1"/>
<path d="M17.2105 8.87966C17.2105 7.72596 16.2719 6.78735 15.1182 6.78735V8.18223C15.5027 8.18223 15.8156 8.4951 15.8156 8.87966C15.8156 9.26427 15.5027 9.5771 15.1182 9.5771V10.972C16.2719 10.972 17.2105 10.0334 17.2105 8.87966Z" fill="#E1E1E1"/>
</svg>
