<svg width="20" height="20" viewBox="0 0 20 20" fill="none" xmlns="http://www.w3.org/2000/svg">
<path fill-rule="evenodd" clip-rule="evenodd" d="M16.5858 0.585782C17.3668 -0.19526 18.6332 -0.19526 19.4142 0.585782C20.1952 1.36684 20.1952 2.63317 19.4142 3.41423L12.8285 10L19.4142 16.5858C20.1952 17.3668 20.1952 18.6332 19.4142 19.4142C18.6332 20.1952 17.3668 20.1952 16.5858 19.4142L10 12.8285L3.41423 19.4142C2.63317 20.1952 1.36684 20.1952 0.585782 19.4142C-0.19526 18.6332 -0.19526 17.3668 0.585782 16.5858L7.1716 10L0.585782 3.41423C-0.19526 2.63317 -0.19526 1.36684 0.585782 0.585782C1.36684 -0.19526 2.63317 -0.19526 3.41423 0.585782L10 7.1716L16.5858 0.585782Z" fill="#303030"/>
</svg>
