<svg width="1026" height="1285" viewBox="0 0 1026 1285" fill="none" xmlns="http://www.w3.org/2000/svg">
<g clip-path="url(#clip0_841_63)">
<path d="M513.76 1247.1C1020.49 1008.45 987.79 759.98 987.79 759.98V242.9C595.49 242.9 513.76 37.5 513.76 37.5H511.96C511.96 37.5 430.23 242.9 37.93 242.9V759.98C37.93 759.98 5.22995 1008.44 511.96 1247.1H513.76Z" stroke="#EFEFEF" stroke-width="75" stroke-miterlimit="10" stroke-linecap="square"/>
<path d="M184.6 636.91V383.54C244.49 382.18 298.89 374.12 346.54 359.52C389.1 346.48 426.46 328.2 457.57 305.2C484.26 285.47 501.88 265.52 512.98 250.13C524.08 265.52 541.7 285.48 568.39 305.2C599.5 328.2 636.86 346.47 679.42 359.52C727.07 374.12 781.47 382.19 841.36 383.54V636.91H877.94V347.16H859.65C718.53 347.16 636.45 309.26 592.44 277.47C546.26 244.1 531.29 210.31 530.6 208.7L526.21 197.23H513.63L499.82 197L495.34 208.7C494.65 210.31 479.69 244.1 433.5 277.47C389.5 309.26 307.42 347.16 166.29 347.16H148V636.9H184.58L184.6 636.91Z" fill="#EFEFEF" stroke="#EFEFEF" stroke-width="35" stroke-miterlimit="10"/>
<path d="M175.87 1026.79C160.95 1012.17 147.61 997.86 135.72 983.95V1026.79H175.87Z" fill="#EFEFEF"/>
<path d="M907.61 962.32C964.41 889.02 981.57 828.6 986.42 793.41L907.61 962.32V962.32Z" fill="#EFEFEF"/>
<path d="M275.92 1095.08C277.68 1093.32 278.57 1091.14 278.57 1088.56V1035.96C278.57 1033.39 277.68 1031.21 275.92 1029.44C274.15 1027.68 271.98 1026.79 269.41 1026.79H175.88C199.31 1049.75 226.68 1073.5 258.66 1097.73H269.41C271.98 1097.73 274.15 1096.85 275.92 1095.08Z" fill="#EFEFEF"/>
<path d="M135.72 961.64H245.75C248.32 961.64 250.5 960.76 252.27 958.99C254.03 957.23 254.92 955.06 254.92 952.48V899.88C254.92 897.31 254.03 895.14 252.27 893.36C250.5 891.6 248.33 890.71 245.75 890.71H135.72V824.17H342.85L342.76 763.79C342.76 761.22 343.64 759.13 345.41 757.52C347.17 755.91 349.34 755.1 351.92 755.1H362.15C360.56 753.86 358.69 753.22 356.53 753.22H69.5999C67.0199 753.22 64.8499 754.11 63.0799 755.87C61.3099 757.64 60.4299 759.81 60.4299 762.38V866.46C74.8499 900.08 98.1699 940.05 135.72 983.95V961.64V961.64Z" fill="#EFEFEF"/>
<path d="M601.18 759.92H566.2C563.62 759.92 561.45 760.81 559.68 762.57C557.91 764.33 557.03 766.51 557.03 769.08V940.4H556.55L363.99 755.08H362.16C362.47 755.32 362.77 755.57 363.05 755.86C364.81 757.63 365.7 759.8 365.7 762.37V814.97C365.7 817.55 364.81 819.72 363.05 821.49C361.28 823.26 359.11 824.14 356.54 824.14H342.85L343.24 1088.55C343.24 1091.13 344.12 1093.3 345.89 1095.07C347.65 1096.84 349.83 1097.72 352.41 1097.72H409.84C412.41 1097.72 414.58 1096.84 416.36 1095.07C418.12 1093.31 419.01 1091.13 419.01 1088.55V908.54H419.49L610.12 1100.13C610.76 1100.77 611.81 1101.34 613.26 1101.82C614.71 1102.3 615.75 1102.55 616.4 1102.55H624.12C626.69 1102.55 628.86 1101.74 630.63 1100.13C632.39 1098.52 633.28 1096.44 633.28 1093.86V829.1H601.18V759.9V759.92Z" fill="#EFEFEF"/>
<path d="M363.05 821.5C364.81 819.74 365.7 817.56 365.7 814.98V762.38C365.7 759.81 364.81 757.64 363.05 755.87C362.76 755.58 362.46 755.33 362.16 755.09H351.93C349.35 755.09 347.18 755.9 345.42 757.51C343.65 759.12 342.77 761.21 342.77 763.78L342.86 824.16H356.55C359.12 824.16 361.29 823.28 363.06 821.51L363.05 821.5Z" fill="#EFEFEF"/>
<path d="M986.42 793.41L996.19 772.46C997.79 769.25 997.71 766.35 995.95 763.77C994.18 761.2 991.53 759.91 987.99 759.91H987.78V759.98C987.78 759.98 989.36 772.05 986.42 793.41V793.41Z" fill="#EFEFEF"/>
<path d="M987.91 756.97V756.9H923.93C922 756.9 920.31 757.47 918.86 758.59C917.41 759.72 916.36 760.93 915.72 762.21L836.09 938.36H833.2L753.57 762.21C752.92 760.93 751.88 759.72 750.43 758.59C748.98 757.47 747.29 756.9 745.36 756.9H741.91V826.1H699.23L808.42 1061.64C850.6 1025.76 882.93 991.31 907.73 959.31L986.54 790.4C989.49 769.04 987.9 756.97 987.9 756.97H987.91Z" fill="#EFEFEF"/>
<path d="M673.09 763.78C674.85 761.21 677.51 759.92 681.05 759.92H624.11C626.68 759.92 628.85 760.81 630.62 762.57C632.38 764.34 633.27 766.51 633.27 769.08V829.11H699.1L672.84 772.46C671.23 769.25 671.32 766.35 673.08 763.77L673.09 763.78Z" fill="#EFEFEF"/>
<path d="M630.63 762.57C628.86 760.81 626.69 759.92 624.12 759.92H601.19V829.12H633.29V769.09C633.29 766.52 632.4 764.35 630.64 762.58L630.63 762.57Z" fill="#EFEFEF"/>
<path d="M673.09 763.78C671.33 766.36 671.24 769.26 672.85 772.47L699.11 829.12H741.79V759.92H681.05C677.51 759.92 674.85 761.21 673.09 763.78V763.78Z" fill="#EFEFEF"/>
<path d="M117.26 753.21H52.5801V804.66H117.26V753.21Z" fill="#EFEFEF"/>
</g>
<defs>
<clipPath id="clip0_841_63">
<rect width="1025.71" height="1284.6" fill="white"/>
</clipPath>
</defs>
</svg>
