<svg width="1097" height="1485" viewBox="0 0 1097 1485" fill="none" xmlns="http://www.w3.org/2000/svg">
<g clip-path="url(#clip0_841_81)">
<path d="M1020.76 392.1C982.11 302.41 926.89 222.23 856.64 153.79C810.27 108.62 752.36 69.0098 674.38 29.1198L673.76 30.3398L674.1 29.2998C645.63 20.0798 615.75 15.0098 589.98 15.0098C535.32 15.0098 482.89 31.6198 438.38 63.0398C402.25 88.5398 373.49 122.17 354.12 161.29C321.03 168.04 286.35 182.32 254.06 202.74C214.16 227.97 180.47 260.69 159.18 294.89C133.25 336.52 119.55 384.56 119.55 433.83C119.55 476.21 129.87 518.34 149.39 555.66C168.28 591.76 195.76 623.48 228.86 647.37L250.05 662.66L262.03 639.43C299.68 566.42 374.04 521.06 456.11 521.06C458.44 521.06 461.49 521.19 465.18 521.44C479.59 522.42 493.22 529.13 502.6 539.88L502.78 540.08C519.41 559.15 535.19 579.37 549.68 600.19C600.09 672.61 635.83 752.72 655.89 838.32C668.11 890.37 674.3 944.16 674.3 998.2C674.3 1094.79 654.93 1188.29 616.74 1276.11C606.54 1299.57 594.91 1322.71 582.18 1344.89L550.28 1400.45L609.91 1377.03C678.26 1350.19 742.19 1313.34 799.92 1267.5C857.15 1222.06 907.29 1168.6 948.93 1108.62C1035.38 984.08 1081.08 837.84 1081.08 685.68C1081.08 583.74 1060.79 484.96 1020.77 392.1H1020.76ZM651.04 1309.56C653.42 1304.41 655.74 1299.24 657.99 1294.06C698.66 1200.55 719.29 1101.01 719.29 998.21C719.29 940.71 712.69 883.46 699.69 828.06C678.32 736.91 640.27 651.6 586.6 574.5C571.17 552.35 554.38 530.82 536.71 510.56L536.47 510.29C519.32 490.64 494.45 478.34 468.22 476.56C463.45 476.24 459.48 476.08 456.09 476.08C406.84 476.08 358.81 489.77 317.19 515.68C284.53 536.01 256.78 563.18 235.82 595.16C190.8 554.05 164.53 495.38 164.53 433.84C164.53 392.99 175.88 353.17 197.36 318.69C234.84 258.5 317.24 207.37 384.95 202.3L384.89 201.46L385.56 201.71C417.29 116.96 499.44 60.0198 589.97 60.0198C610.67 60.0198 634.95 64.1298 658.55 71.5898C730.04 108.55 783.11 144.99 825.24 186.03C961.2 318.48 1036.07 495.93 1036.07 685.69C1036.07 953.45 886.89 1191.99 651.04 1309.56Z" fill="#EFEFEF"/>
<path d="M197.36 318.69C175.88 353.17 164.53 392.99 164.53 433.84C164.53 495.38 190.8 554.05 235.82 595.16C256.78 563.18 284.53 536.01 317.19 515.68C358.81 489.77 406.84 476.08 456.09 476.08C459.48 476.08 463.45 476.24 468.22 476.56C494.45 478.34 519.32 490.64 536.47 510.29L536.71 510.56C554.38 530.82 571.17 552.35 586.6 574.5C640.27 651.6 678.32 736.91 699.69 828.06C712.69 883.46 719.29 940.71 719.29 998.21C719.29 1101.01 698.66 1200.55 657.99 1294.06C655.74 1299.24 653.42 1304.41 651.04 1309.56C886.89 1191.99 1036.07 953.45 1036.07 685.69C1036.07 495.93 961.2 318.48 825.24 186.03C783.11 144.99 730.04 108.55 658.55 71.5898C634.95 64.1298 610.67 60.0198 589.97 60.0198C499.44 60.0198 417.29 116.96 385.56 201.71L384.89 201.46L384.95 202.3C317.24 207.37 234.84 258.5 197.36 318.69ZM197.36 318.69L179.32 307.46M1020.76 392.1C982.11 302.41 926.89 222.23 856.64 153.79C810.27 108.62 752.36 69.0098 674.38 29.1198L673.76 30.3398L674.1 29.2998C645.63 20.0798 615.75 15.0098 589.98 15.0098C535.32 15.0098 482.89 31.6198 438.38 63.0398C402.25 88.5398 373.49 122.17 354.12 161.29C321.03 168.04 286.35 182.32 254.06 202.74C214.16 227.97 180.47 260.69 159.18 294.89C133.25 336.52 119.55 384.56 119.55 433.83C119.55 476.21 129.87 518.34 149.39 555.66C168.28 591.76 195.76 623.48 228.86 647.37L250.05 662.66L262.03 639.43C299.68 566.42 374.04 521.06 456.11 521.06C458.44 521.06 461.49 521.19 465.18 521.44C479.59 522.42 493.22 529.13 502.6 539.88L502.78 540.08C519.41 559.15 535.19 579.37 549.68 600.19C600.09 672.61 635.83 752.72 655.89 838.32C668.11 890.37 674.3 944.16 674.3 998.2C674.3 1094.79 654.93 1188.29 616.74 1276.11C606.54 1299.57 594.91 1322.71 582.18 1344.89L550.28 1400.45L609.91 1377.03C678.26 1350.19 742.19 1313.34 799.92 1267.5C857.15 1222.06 907.29 1168.6 948.93 1108.62C1035.38 984.08 1081.08 837.84 1081.08 685.68C1081.08 583.74 1060.79 484.96 1020.77 392.1H1020.76Z" stroke="#EFEFEF" stroke-width="30" stroke-miterlimit="10"/>
<path d="M651.89 171.21C599.69 171.21 557.22 213.68 557.22 265.88C557.22 318.08 599.69 360.55 651.89 360.55C704.09 360.55 746.56 318.08 746.56 265.88C746.56 213.68 704.09 171.21 651.89 171.21V171.21ZM651.89 315.55C624.5 315.55 602.22 293.27 602.22 265.88C602.22 238.49 624.5 216.21 651.89 216.21C679.28 216.21 701.56 238.49 701.56 265.88C701.56 293.27 679.28 315.55 651.89 315.55Z" fill="#EFEFEF" stroke="#EFEFEF" stroke-width="30" stroke-miterlimit="10"/>
<path d="M376.26 181.229C408.41 194.589 429.85 215.22 443.66 229.52C533.77 322.75 492.46 473.56 488.6 486.88" stroke="#EFEFEF" stroke-width="75" stroke-miterlimit="10"/>
<path d="M201.04 1077.11L256.23 1078.64C237.71 1075.91 219.19 1075.46 201.04 1077.11V1077.11Z" fill="#EFEFEF"/>
<path d="M256.23 1078.63C237.86 1078.65 219.45 1078.15 201 1077.1C201.01 1077.1 201.02 1077.1 201.04 1077.1H200.99C143.04 1082.34 88.68 1108.95 48.99 1151.59C48.33 1152.29 48.5399 1153.44 49.3899 1153.87C53.4499 1155.94 58.41 1158.32 63.97 1160.88C125.46 1189.18 190.86 1208.08 257.91 1217.32C380.61 1234.21 445.12 1241.81 464.45 1236.65C464.45 1236.65 512.2 1243.27 574.52 1202.37C596.76 1141.97 611.25 1077.69 616.74 1010.81C504.74 1058.33 387.96 1078.37 256.27 1078.62H256.22L256.23 1078.63Z" fill="#EFEFEF"/>
<path d="M143.8 1227.82L198.85 1223.62C180.14 1222.82 161.68 1224.3 143.8 1227.82Z" fill="#EFEFEF"/>
<path d="M198.9 1223.62H198.85C180.59 1225.54 162.22 1226.95 143.76 1227.82C143.77 1227.82 143.78 1227.82 143.8 1227.82H143.75C86.6599 1239.05 35.3499 1271.14 0.289884 1317.67C-0.290116 1318.44 0.0298837 1319.55 0.929884 1319.9C5.18988 1321.54 10.3699 1323.39 16.1599 1325.36C80.2499 1347.14 147.26 1359.16 214.91 1361.4C338.7 1365.49 403.65 1366.36 422.34 1359.23C422.34 1359.23 481.11 1336.78 547.55 1266.07C575.32 1208.39 595.72 1146.34 607.51 1081.22C485.29 1158.45 345.69 1208.05 198.9 1223.63V1223.62Z" fill="#EFEFEF"/>
<path d="M223.33 1357.33L275.92 1340.53C257.54 1344.07 239.92 1349.77 223.33 1357.33Z" fill="#EFEFEF"/>
<path d="M275.97 1340.51H275.93V1340.52C258.6 1346.61 241.06 1352.22 223.3 1357.34C223.31 1357.34 223.32 1357.34 223.33 1357.33H223.28C170.32 1381.45 127.81 1424.53 104.45 1477.9C104.06 1478.78 104.63 1479.79 105.59 1479.92C110.11 1480.53 115.58 1481.13 121.67 1481.71C189.06 1488.1 257.03 1484.32 323.37 1470.86C360.91 1463.25 392.9 1456.64 419.67 1450.8C497.77 1369.09 556.97 1268.24 589.89 1155.82C499 1236.12 392.71 1299.37 275.97 1340.51V1340.51Z" fill="#EFEFEF"/>
</g>
<defs>
<clipPath id="clip0_841_81">
<rect width="1096.07" height="1484.73" fill="white"/>
</clipPath>
</defs>
</svg>
