<svg width="1350" height="1373" viewBox="0 0 1350 1373" fill="none" xmlns="http://www.w3.org/2000/svg">
<path d="M980.09 470.89C1086.27 440.95 1195.99 422.91 1306.2 417.28L1326.63 416.24V1101.14L1310.49 1103.92C1210.96 1121.07 1112.83 1148.17 1018.81 1184.46C916.93 1223.79 818.9 1274.27 727.46 1334.51C711.39 1345.09 692.98 1350.39 674.56 1350.39C656.14 1350.39 637.73 1345.1 621.66 1334.51C530.21 1274.27 432.19 1223.79 330.31 1184.46C236.3 1148.17 138.16 1121.07 38.6302 1103.92L22.4902 1101.14V416.24L42.9202 417.28C153.14 422.91 262.86 440.94 369.03 470.89C468.15 498.84 564.65 537.33 655.85 585.27C667.56 591.43 681.54 591.43 693.25 585.27C784.45 537.33 880.95 498.84 980.07 470.89M61.3802 1068.47C157.9 1086.15 253 1112.93 344.32 1148.18C448.79 1188.5 549.3 1240.27 643.06 1302.03C662.2 1314.64 686.93 1314.64 706.07 1302.03C799.83 1240.26 900.35 1188.5 1004.81 1148.18C1096.13 1112.93 1191.23 1086.14 1287.75 1068.47V457.3C1187.31 463.87 1087.46 481 990.64 508.31C894.12 535.53 800.16 573 711.36 619.68C688.32 631.79 660.81 631.79 637.77 619.68C548.97 573 455.01 535.53 358.49 508.31C261.67 481 161.82 463.87 61.3802 457.3V1068.47V1068.47Z" fill="#EFEFEF"/>
<path d="M980.09 470.89C1086.27 440.95 1195.99 422.91 1306.2 417.28L1326.63 416.24V1101.14L1310.49 1103.92C1210.96 1121.07 1112.83 1148.17 1018.81 1184.46C916.93 1223.79 818.9 1274.27 727.46 1334.51C711.39 1345.09 692.98 1350.39 674.56 1350.39C656.14 1350.39 637.73 1345.1 621.66 1334.51C530.21 1274.27 432.19 1223.79 330.31 1184.46C236.3 1148.17 138.16 1121.07 38.6302 1103.92L22.4902 1101.14V416.24L42.9202 417.28C153.14 422.91 262.86 440.94 369.03 470.89C468.15 498.84 564.65 537.33 655.85 585.27C667.56 591.43 681.54 591.43 693.25 585.27C784.45 537.33 880.95 498.84 980.07 470.89M61.3802 1068.47C157.9 1086.15 253 1112.93 344.32 1148.18C448.79 1188.5 549.3 1240.27 643.06 1302.03C662.2 1314.64 686.93 1314.64 706.07 1302.03C799.83 1240.26 900.35 1188.5 1004.81 1148.18C1096.13 1112.93 1191.23 1086.14 1287.75 1068.47V457.3C1187.31 463.87 1087.46 481 990.64 508.31C894.12 535.53 800.16 573 711.36 619.68C688.32 631.79 660.81 631.79 637.77 619.68C548.97 573 455.01 535.53 358.49 508.31C261.67 481 161.82 463.87 61.3802 457.3V1068.47V1068.47Z" stroke="#EFEFEF" stroke-width="45" stroke-miterlimit="10"/>
<path d="M786.7 1271.45L730.77 1314.28V868.74L751.27 1177.72C753.53 1211.79 765.86 1244.41 786.7 1271.46V1271.45Z" fill="#EFEFEF" stroke="#EFEFEF" stroke-width="25" stroke-miterlimit="10"/>
<path d="M563.5 1271.45L619.43 1314.28V868.74L598.93 1177.72C596.67 1211.79 584.34 1244.41 563.5 1271.46V1271.45Z" fill="#EFEFEF" stroke="#EFEFEF" stroke-width="25" stroke-miterlimit="10"/>
<path d="M1233.82 258.26L1214.11 263.74C1107.78 293.31 1004.66 334.89 907.59 387.31C825.31 431.74 747.04 484.17 674.56 543.38C602.08 484.17 523.81 431.75 441.53 387.31C344.46 334.89 241.33 293.32 135.01 263.74L115.3 258.26L98.4004 333.72C111.12 336.19 123.82 338.82 136.48 341.62L144.27 306.83C240.85 335.18 334.54 373.72 423.06 421.52C473.56 448.79 522.5 479.16 569.46 512.33C596.91 528.54 623.83 545.64 650.15 563.57C648.41 564.82 646.58 565.94 644.69 566.89C648.72 568.39 652.74 569.91 656.76 571.44C662.52 573.64 668.6 574.45 674.57 573.93C680.53 574.44 686.62 573.64 692.38 571.44C696.39 569.9 700.42 568.39 704.45 566.89C702.55 565.94 700.73 564.82 698.99 563.57C725.31 545.64 752.22 528.54 779.68 512.33C826.64 479.17 875.58 448.79 926.08 421.52C1014.6 373.72 1108.29 335.18 1204.87 306.83L1212.66 341.62C1225.32 338.82 1238.01 336.19 1250.74 333.72L1233.84 258.26H1233.82Z" fill="#EFEFEF" stroke="#EFEFEF" stroke-width="25" stroke-miterlimit="10"/>
<path d="M1080.25 145.65L1062.96 156.58C969.681 215.55 882.921 285.1 805.091 363.28C758.331 410.25 714.671 460.49 674.571 513.39C634.471 460.49 590.811 410.25 544.051 363.28C466.221 285.1 379.461 215.56 286.181 156.58L268.891 145.65L230.951 213.03C242.421 219.06 253.821 225.24 265.131 231.57L282.621 200.5C366.921 255.5 445.521 319.41 516.501 390.71C556.991 431.38 595.091 474.58 630.501 519.87C636.611 526.49 642.651 533.18 648.641 539.91H700.511C706.501 533.18 712.541 526.49 718.651 519.87C754.061 474.58 792.161 431.38 832.651 390.71C903.621 319.42 982.231 255.5 1066.53 200.5L1084.02 231.57C1095.33 225.24 1106.73 219.06 1118.2 213.03L1080.26 145.65H1080.25Z" fill="#EFEFEF" stroke="#EFEFEF" stroke-width="25" stroke-miterlimit="10"/>
<path d="M766.139 262.69C775.579 249.15 767.759 230.43 751.489 227.66C723.909 222.96 695.569 220.52 666.669 220.52C640.099 220.52 613.999 222.59 588.529 226.57C571.919 229.17 564.019 248.52 573.989 262.07L584.629 276.53C609.029 309.7 632.229 343.81 654.169 378.73C663.109 392.95 683.969 392.61 692.429 378.1C715.449 338.65 740.049 300.13 766.139 262.69V262.69Z" fill="#EFEFEF"/>
<path d="M675.55 171.24C726.96 171.24 776.93 177.45 824.73 189.16C833.77 191.37 843.271 188.18 849.201 181C849.301 180.87 849.41 180.75 849.51 180.62C860.12 167.76 854.95 148.21 839.32 142.41C784.8 122.16 725.86 111.09 664.38 111.09C602.9 111.09 546.96 121.61 493.6 140.89C477.45 146.72 472.27 167.07 483.7 179.88C485.3 181.67 486.89 183.46 488.48 185.26C494.58 192.16 504.06 195.01 512.95 192.62C564.8 178.69 619.3 171.25 675.55 171.25V171.24Z" fill="#EFEFEF"/>
<path d="M407.62 106.07C416.21 114.53 428.97 117.04 440.14 112.5C512.8 82.93 592.27 66.63 675.55 66.63C752.81 66.63 826.79 80.66 895.09 106.29C906.43 110.55 919.2 107.46 927.53 98.67C927.67 98.52 927.82 98.37 927.96 98.21C942.31 83.08 937.4 58.21 918.24 49.99C843.26 17.82 760.67 0 673.92 0C581.5 0 493.81 20.23 415.01 56.48C395.95 65.25 391.72 90.43 406.68 105.15C406.99 105.46 407.3 105.76 407.61 106.07H407.62Z" fill="#EFEFEF"/>
</svg>
