<svg width="1272" height="1382" viewBox="0 0 1272 1382" fill="none" xmlns="http://www.w3.org/2000/svg">
<g clip-path="url(#clip0_843_98)">
<path d="M874.82 973.46C868.86 973.46 863.33 970.32 860.29 965.19C859.83 964.41 813.69 886.57 768.18 797.35C741.35 744.77 719.95 698.5 704.57 659.84C684.5 609.43 674.75 572.48 674.75 546.9C674.75 519.9 680.04 493.7 690.48 469.02C700.56 445.19 714.98 423.8 733.35 405.43C751.72 387.06 773.11 372.64 796.94 362.56C821.62 352.12 847.82 346.83 874.82 346.83C901.82 346.83 928.03 352.12 952.7 362.56C976.53 372.64 997.92 387.06 1016.29 405.43C1034.66 423.8 1049.09 445.19 1059.17 469.02C1069.61 493.7 1074.9 519.9 1074.9 546.9C1074.9 572.48 1065.15 609.42 1045.08 659.84C1029.69 698.5 1008.29 744.76 981.46 797.35C935.94 886.57 889.8 964.41 889.34 965.19C886.3 970.32 880.77 973.46 874.81 973.46H874.82ZM874.82 380.64C783.14 380.64 708.55 455.23 708.55 546.91C708.55 561.29 713.3 590.37 735.94 647.28C750.93 684.95 771.88 730.22 798.21 781.85C827.82 839.9 857.7 893.08 874.82 922.93C891.94 893.09 921.83 839.9 951.43 781.85C977.76 730.23 998.71 684.95 1013.7 647.29C1036.34 590.39 1041.1 561.3 1041.1 546.92C1041.1 455.24 966.51 380.65 874.82 380.65V380.64Z" fill="#EFEFEF" stroke="#EFEFEF" stroke-width="35" stroke-miterlimit="10"/>
<path d="M1050.4 552.31L735.78 731.31" stroke="#EFEFEF" stroke-width="75" stroke-miterlimit="10"/>
<path d="M37.5 37.5H1234.44V745.9C1234.44 1076.2 966.28 1344.37 635.97 1344.37C305.67 1344.37 37.5 1076.21 37.5 745.9V37.5Z" stroke="#EFEFEF" stroke-width="75" stroke-miterlimit="10"/>
<path d="M504.88 37.5L492.76 1323.78" stroke="#EFEFEF" stroke-width="75" stroke-miterlimit="10"/>
<path d="M476.29 689.27L64.0699 692.88" stroke="#EFEFEF" stroke-width="75" stroke-miterlimit="10"/>
<path d="M462.78 895.74L50.5699 899.36" stroke="#EFEFEF" stroke-width="75" stroke-miterlimit="10"/>
<path d="M479.75 1102.94H141.4" stroke="#EFEFEF" stroke-width="75" stroke-miterlimit="10"/>
<path d="M360.19 324.58H321.46V285.85C321.46 257.52 298.5 234.56 270.17 234.56C241.84 234.56 218.88 257.52 218.88 285.85V324.58H180.15C151.82 324.58 128.86 347.54 128.86 375.87C128.86 404.2 151.82 427.16 180.15 427.16H218.88V465.89C218.88 494.22 241.84 517.18 270.17 517.18C298.5 517.18 321.46 494.22 321.46 465.89V427.16H360.19C388.52 427.16 411.48 404.2 411.48 375.87C411.48 347.54 388.52 324.58 360.19 324.58Z" fill="#EFEFEF"/>
</g>
<defs>
<clipPath id="clip0_843_98">
<rect width="1271.94" height="1381.87" fill="white"/>
</clipPath>
</defs>
</svg>
