<svg width="1478" height="1139" viewBox="0 0 1478 1139" fill="none" xmlns="http://www.w3.org/2000/svg">
<g clip-path="url(#clip0_839_2)">
<path d="M433.56 470.61L290.19 691.63H1187.47L1044.1 470.61H433.56Z" fill="#EFEFEF"/>
<path d="M117.54 1021.3C117.54 1033.93 119.99 1043.09 124.9 1048.81C129.81 1054.52 137.83 1057.38 148.95 1057.38C164.38 1057.38 172.1 1049.21 172.1 1032.88C172.1 1023.96 169.82 1017.22 165.26 1012.66C160.7 1008.1 152.41 1003.37 140.38 998.46C125.2 992.71 112.97 986.27 103.69 979.15L76.3398 1021.31H117.53L117.54 1021.3Z" fill="#EFEFEF"/>
<path d="M1327.99 908.27H1321.18V1090.29H1276.84V908.27H1223.63V871.45H1304.1L1273.21 823.82H204.45L173.04 872.25C176.85 873.5 180.49 875.06 183.98 876.94C194.5 882.6 202.59 890.59 208.25 900.91C213.91 911.23 216.74 922.96 216.74 936.08H172.7C172.7 925.86 170.52 918.07 166.16 912.71C162.64 908.38 157.85 905.8 151.81 904.97L127.19 942.92C128.02 944.05 128.95 945.16 130.01 946.23C134.82 951.09 143.34 956.13 155.56 961.34C176.9 969.06 192.41 978.53 202.08 989.75C211.75 1000.97 216.58 1015.25 216.58 1032.59C216.58 1051.63 210.52 1066.51 198.39 1077.23C186.26 1087.95 169.78 1093.31 148.94 1093.31C134.81 1093.31 121.93 1090.4 110.31 1084.59C98.68 1078.78 89.59 1070.46 83.03 1059.64C77.17 1049.98 73.93 1038.75 73.31 1025.98L0 1139H1477.66L1327.99 908.27ZM409.07 1090.29L369.09 1005.82L351.65 1027.76V1090.29H307.46V871.45H351.65V966.89L365.63 943.29L406.36 871.44H460.47L397.79 967.64L461.52 1090.29H409.06H409.07ZM627.7 1010.93V1090.29H582.91V1010.93L524.14 871.45H572.24L605.31 969.75L638.23 871.45H686.33L627.71 1010.93H627.7ZM920.88 1090.29H876.69L812.06 946.75V1090.29H767.87V871.45H812.06L876.84 1015.14V871.45H920.88V1090.29V1090.29ZM1143.57 1090.29H1017.91V871.45H1143.26V908.27H1062.1V959.97H1130.94V995.59H1062.1V1053.61H1143.57V1090.28V1090.29Z" fill="#EFEFEF"/>
<path d="M646.29 338.42L738.83 195.76L831.37 338.42H872.61H958.36L738.83 0L519.31 338.42H605.05H646.29Z" fill="#EFEFEF"/>
</g>
<defs>
<clipPath id="clip0_839_2">
<rect width="1477.66" height="1139" fill="white"/>
</clipPath>
</defs>
</svg>
