<svg width="1051" height="1051" viewBox="0 0 1051 1051" fill="none" xmlns="http://www.w3.org/2000/svg">
<g clip-path="url(#clip0_1008_5)">
<path d="M150.932 886.137C149.543 878.922 148.139 871.707 146.78 864.484C143.956 849.467 141.17 834.449 138.345 819.439C130.667 778.669 121.606 738.202 105.817 699.729C93.8163 670.475 78.5051 642.79 61.0254 616.427C41.2999 586.678 21.0573 557.269 1.19291 527.612C0.174219 526.096 -0.427732 522.988 0.421174 521.727C12.3599 503.995 24.8002 486.595 36.6926 468.832C51.7954 446.29 67.2301 423.926 81.2293 400.703C103.139 364.372 117.593 324.91 126.376 283.422C132.573 254.144 138.114 224.735 144.334 195.465C147.035 182.759 151.048 170.309 149.86 157.069C149.574 153.891 151.503 152.754 154.22 152.213C177.549 147.573 200.863 142.809 224.208 138.262C262.533 130.792 301.104 124.381 337.614 109.68C365.574 98.4209 392.438 84.9575 417.682 68.509C450.457 47.1577 482.916 25.327 515.321 3.41119C520.453 -0.0610048 524.574 -1.55351 530.224 2.13522C547.387 13.3638 565.144 23.7262 582.007 35.3801C618.039 60.2809 654.928 83.8362 695.05 101.421C715.231 110.268 736.894 115.782 758.039 122.34C798.771 134.968 841.101 140.273 882.713 148.81C893.015 150.921 898.533 154.2 900.516 165.568C906.559 200.22 913.613 234.703 920.967 269.108C930.498 313.674 943.872 357.088 967.673 396.264C986.102 426.601 1006.4 455.794 1025.95 485.443C1033.74 497.244 1041.73 508.913 1049.72 520.583C1051.68 523.467 1051.35 525.686 1049.4 528.594C1041.23 540.735 1033.52 553.193 1025.34 565.327C1016.88 577.87 1007.74 589.965 999.468 602.624C978.84 634.183 960.156 666.886 945.015 701.461C933.238 728.365 925.659 756.638 919.895 785.39C912.687 821.333 905.587 857.3 898.479 893.26C896.835 901.557 896.889 902.106 888.284 901.928C871.059 901.573 854.922 907.21 838.415 910.543C806.257 917.039 774.053 923.589 742.342 931.941C697.52 943.742 656.417 963.747 618.533 990.891C591.839 1010.02 563.717 1027.14 536.181 1045.07C532.755 1047.3 529.12 1049.38 525.315 1050.78C523.664 1051.4 520.924 1050.7 519.35 1049.62C498.189 1035.12 477.159 1020.44 456.083 1005.83C428.501 986.723 400.202 968.952 369.95 954.166C341.064 940.045 310.851 930.773 279.572 924.2C259.831 920.055 240.283 914.951 220.504 911.038C198.618 906.7 176.561 903.181 154.559 899.431C151.38 898.889 149.875 897.513 149.991 894.265C150.083 891.636 150.014 888.991 150.014 886.362C150.33 886.292 150.647 886.23 150.971 886.161L150.932 886.137ZM557.998 538.732C665.717 647.383 772.656 755.253 879.595 863.123C880.096 862.961 880.606 862.791 881.107 862.629C889.234 804.398 901.844 744.759 924.726 690.442C947.708 635.892 982.336 588.039 1014.46 538.74H557.998V538.732ZM860.263 168.174C857.986 167.548 856.497 167.045 854.969 166.736C798.462 155.414 741.316 146.328 687.889 123.763C634.384 101.166 587.741 65.2843 538.605 34.862V489.89C539.068 490.067 539.531 490.245 540.001 490.431C646.562 383.21 753.123 275.982 860.27 168.174H860.263ZM511.046 1015.47V560.169C510.622 559.828 510.197 559.48 509.773 559.14C402.895 666.84 296.018 774.548 188.199 883.206C216.753 885.488 245.786 893.871 273.784 899.933C301.582 905.957 329.017 912.608 355.488 923.187C411.215 945.459 461.323 982.361 511.046 1015.46V1015.47ZM36.4765 510.058H489.723C382.429 401.909 275.976 294.604 169.523 187.306L168.235 188.311C165.356 218.981 157.762 250.254 150.948 280.282C144.697 307.82 136.84 335.079 125.866 361.125C103.671 413.818 69.0977 463.342 36.4765 510.05V510.058Z" fill="#EFEFEF"/>
</g>
<defs>
<clipPath id="clip0_1008_5">
<rect width="1051" height="1051" fill="white"/>
</clipPath>
</defs>
</svg>
