<svg width="25" height="24" viewBox="0 0 25 24" fill="none" xmlns="http://www.w3.org/2000/svg">
<g clip-path="url(#clip0_934_3)">
<path d="M21.9828 0C20.4655 0 19.2112 1.125 19 2.58621H6C5.78879 1.125 4.53448 0 3.01724 0C1.35345 0 0 1.35345 0 3.01724V20.6897C0 22.3534 1.35345 23.7069 3.01724 23.7069H21.9828C23.6466 23.7069 25 22.3534 25 20.6897V3.01724C25 1.35345 23.6466 0 21.9828 0ZM0.862069 3.01724C0.862069 1.82759 1.82759 0.862069 3.01724 0.862069C4.2069 0.862069 5.17241 1.82759 5.17241 3.01724V18.5776C4.625 18.0172 3.86207 17.6724 3.01724 17.6724C2.17241 17.6724 1.40948 18.0216 0.862069 18.5776V3.01724ZM21.9828 22.8448H9.91379V22.4138C9.91379 22.1767 9.71983 21.9828 9.48276 21.9828C9.24569 21.9828 9.05172 22.1767 9.05172 22.4138V22.8448H8.18966V21.1207C8.18966 20.8836 7.99569 20.6897 7.75862 20.6897C7.52155 20.6897 7.32759 20.8836 7.32759 21.1207V22.8448H3.01724C1.82759 22.8448 0.862069 21.8793 0.862069 20.6897C0.862069 19.5 1.82759 18.5345 3.01724 18.5345C4.2069 18.5345 5.17241 19.5 5.17241 20.6897H6.03448V3.44828H14.6552V5.17241C14.6552 5.40948 14.8491 5.60345 15.0862 5.60345C15.3233 5.60345 15.5172 5.40948 15.5172 5.17241V3.44828H16.3793V4.31034C16.3793 4.54741 16.5733 4.74138 16.8103 4.74138C17.0474 4.74138 17.2414 4.54741 17.2414 4.31034V3.44828H18.9655V20.6897H19.8276C19.8276 19.5 20.7931 18.5345 21.9828 18.5345C23.1724 18.5345 24.1379 19.5 24.1379 20.6897C24.1379 21.8793 23.1724 22.8448 21.9828 22.8448ZM24.1379 18.5776C23.5905 18.0172 22.8276 17.6724 21.9828 17.6724C21.1379 17.6724 20.375 18.0216 19.8276 18.5776V3.01724C19.8276 1.82759 20.7931 0.862069 21.9828 0.862069C23.1724 0.862069 24.1379 1.82759 24.1379 3.01724V18.5776Z" fill="#EFEFEF"/>
<path d="M9.6254 11.7068C9.53058 11.4051 9.48316 11.0904 9.48316 10.7758C9.48316 10.5387 9.2892 10.3447 9.05213 10.3447C8.81506 10.3447 8.62109 10.5387 8.62109 10.7758C8.62109 11.1809 8.68144 11.5818 8.80213 11.9654C8.86247 12.1508 9.03058 12.2671 9.21161 12.2671C9.25471 12.2671 9.29782 12.2628 9.34092 12.2456C9.56937 12.1723 9.69437 11.9309 9.62109 11.7068H9.6254Z" fill="#EFEFEF"/>
<path d="M11.1945 13.6378C10.8195 13.4136 10.4962 13.1334 10.229 12.8102C10.0781 12.6248 9.80655 12.599 9.62121 12.7498C9.43586 12.9007 9.41 13.1722 9.56086 13.3576C9.88845 13.7584 10.2893 14.1033 10.7505 14.3791C10.8195 14.4222 10.8971 14.4395 10.9703 14.4395C11.1169 14.4395 11.2591 14.3662 11.341 14.2283C11.4617 14.0257 11.3971 13.7584 11.1945 13.6378V13.6378Z" fill="#EFEFEF"/>
<path d="M14.551 14.4052C14.1674 14.2845 13.7665 14.2242 13.3614 14.2242C13.0295 14.2242 12.7019 14.1897 12.3872 14.1164C12.1545 14.0604 11.926 14.207 11.87 14.4397C11.8183 14.6725 11.9605 14.9052 12.1933 14.957C12.5726 15.0432 12.9648 15.0906 13.3614 15.0906C13.676 15.0906 13.9907 15.138 14.2924 15.2328C14.3355 15.2458 14.3786 15.2544 14.4217 15.2544C14.607 15.2544 14.7752 15.138 14.8312 14.9527C14.9045 14.7242 14.7752 14.4828 14.551 14.4139V14.4052Z" fill="#EFEFEF"/>
<path d="M16.9617 16.3535C16.6858 15.8966 16.341 15.4958 15.9401 15.1639C15.7548 15.013 15.4832 15.0389 15.3323 15.2242C15.1815 15.4096 15.2073 15.6811 15.3927 15.832C15.716 16.0992 15.9961 16.4268 16.2203 16.7975C16.3022 16.9311 16.4444 17.0087 16.591 17.0087C16.6642 17.0087 16.7418 16.9872 16.8108 16.9484C17.0134 16.8277 17.0823 16.5604 16.9573 16.3579L16.9617 16.3535Z" fill="#EFEFEF"/>
<path d="M17.0266 17.474C16.7939 17.5257 16.6473 17.7585 16.7034 17.9912C16.7766 18.3059 16.8111 18.6335 16.8111 18.9654C16.8111 19.2024 17.0051 19.3964 17.2422 19.3964C17.4792 19.3964 17.6732 19.2024 17.6732 18.9654C17.6732 18.5688 17.6301 18.1766 17.5396 17.7973C17.4878 17.5645 17.2551 17.4223 17.0223 17.474H17.0266Z" fill="#EFEFEF"/>
<path d="M10.0393 10.2198L10.6514 9.60769L9.66002 8.62062L10.6514 7.63355L10.0393 7.02148L9.05226 8.01286L8.06519 7.02148L7.45312 7.63355L8.4445 8.62062L7.45312 9.60769L8.06519 10.2198L9.05226 9.22838L10.0393 10.2198Z" fill="#EFEFEF"/>
</g>
<defs>
<clipPath id="clip0_934_3">
<rect width="25" height="23.7069" fill="white"/>
</clipPath>
</defs>
</svg>
