<svg width="35" height="34" viewBox="0 0 35 34" fill="none" xmlns="http://www.w3.org/2000/svg">
<g clip-path="url(#clip0_934_3)">
<path d="M30.7759 0C28.6517 0 26.8957 1.575 26.6 3.62069H8.4C8.10431 1.575 6.34828 0 4.22414 0C1.89483 0 0 1.89483 0 4.22414V28.9655C0 31.2948 1.89483 33.1897 4.22414 33.1897H30.7759C33.1052 33.1897 35 31.2948 35 28.9655V4.22414C35 1.89483 33.1052 0 30.7759 0ZM1.2069 4.22414C1.2069 2.55862 2.55862 1.2069 4.22414 1.2069C5.88966 1.2069 7.24138 2.55862 7.24138 4.22414V26.0086C6.475 25.2241 5.4069 24.7414 4.22414 24.7414C3.04138 24.7414 1.97328 25.2302 1.2069 26.0086V4.22414ZM30.7759 31.9828H13.8793V31.3793C13.8793 31.0474 13.6078 30.7759 13.2759 30.7759C12.944 30.7759 12.6724 31.0474 12.6724 31.3793V31.9828H11.4655V29.569C11.4655 29.2371 11.194 28.9655 10.8621 28.9655C10.5302 28.9655 10.2586 29.2371 10.2586 29.569V31.9828H4.22414C2.55862 31.9828 1.2069 30.631 1.2069 28.9655C1.2069 27.3 2.55862 25.9483 4.22414 25.9483C5.88966 25.9483 7.24138 27.3 7.24138 28.9655H8.44828V4.82759H20.5172V7.24138C20.5172 7.57328 20.7888 7.84483 21.1207 7.84483C21.4526 7.84483 21.7241 7.57328 21.7241 7.24138V4.82759H22.931V6.03448C22.931 6.36638 23.2026 6.63793 23.5345 6.63793C23.8664 6.63793 24.1379 6.36638 24.1379 6.03448V4.82759H26.5517V28.9655H27.7586C27.7586 27.3 29.1103 25.9483 30.7759 25.9483C32.4414 25.9483 33.7931 27.3 33.7931 28.9655C33.7931 30.631 32.4414 31.9828 30.7759 31.9828ZM33.7931 26.0086C33.0267 25.2241 31.9586 24.7414 30.7759 24.7414C29.5931 24.7414 28.525 25.2302 27.7586 26.0086V4.22414C27.7586 2.55862 29.1103 1.2069 30.7759 1.2069C32.4414 1.2069 33.7931 2.55862 33.7931 4.22414V26.0086Z" fill="#EFEFEF"/>
<path d="M13.4744 16.3898C13.3416 15.9674 13.2753 15.5269 13.2753 15.0864C13.2753 14.7545 13.0037 14.4829 12.6718 14.4829C12.3399 14.4829 12.0684 14.7545 12.0684 15.0864C12.0684 15.6536 12.1528 16.2148 12.3218 16.7519C12.4063 17.0114 12.6416 17.1743 12.8951 17.1743C12.9554 17.1743 13.0158 17.1683 13.0761 17.1441C13.3959 17.0415 13.5709 16.7036 13.4684 16.3898H13.4744Z" fill="#EFEFEF"/>
<path d="M15.6723 19.0932C15.1473 18.7794 14.6947 18.3871 14.3206 17.9345C14.1093 17.6751 13.7292 17.6388 13.4697 17.8501C13.2102 18.0613 13.174 18.4414 13.3852 18.7009C13.8438 19.2621 14.405 19.7449 15.0507 20.1311C15.1473 20.1914 15.2559 20.2156 15.3585 20.2156C15.5637 20.2156 15.7628 20.113 15.8774 19.9199C16.0464 19.6363 15.9559 19.2621 15.6723 19.0932V19.0932Z" fill="#EFEFEF"/>
<path d="M20.3718 20.1671C19.8347 19.9982 19.2735 19.9137 18.7063 19.9137C18.2416 19.9137 17.783 19.8654 17.3425 19.7628C17.0166 19.6844 16.6968 19.8896 16.6184 20.2154C16.5459 20.5413 16.7451 20.8671 17.0709 20.9396C17.602 21.0602 18.1511 21.1266 18.7063 21.1266C19.1468 21.1266 19.5873 21.193 20.0097 21.3258C20.0701 21.3439 20.1304 21.3559 20.1908 21.3559C20.4503 21.3559 20.6856 21.193 20.7641 20.9335C20.8666 20.6137 20.6856 20.2758 20.3718 20.1792V20.1671Z" fill="#EFEFEF"/>
<path d="M23.7463 22.895C23.3601 22.2553 22.8774 21.6941 22.3161 21.2294C22.0567 21.0182 21.6765 21.0544 21.4653 21.3139C21.2541 21.5734 21.2903 21.9536 21.5498 22.1648C22.0024 22.5389 22.3946 22.9976 22.7084 23.5165C22.823 23.7036 23.0222 23.8122 23.2274 23.8122C23.3299 23.8122 23.4386 23.782 23.5351 23.7277C23.8187 23.5588 23.9153 23.1846 23.7403 22.901L23.7463 22.895Z" fill="#EFEFEF"/>
<path d="M23.8365 24.4636C23.5106 24.536 23.3055 24.8619 23.3839 25.1877C23.4865 25.6282 23.5348 26.0869 23.5348 26.5515C23.5348 26.8834 23.8063 27.155 24.1382 27.155C24.4701 27.155 24.7417 26.8834 24.7417 26.5515C24.7417 25.9963 24.6813 25.4472 24.5546 24.9162C24.4822 24.5903 24.1563 24.3912 23.8305 24.4636H23.8365Z" fill="#EFEFEF"/>
<path d="M14.0543 14.3077L14.9112 13.4508L13.5232 12.0689L14.9112 10.687L14.0543 9.83008L12.6724 11.218L11.2905 9.83008L10.4336 10.687L11.8215 12.0689L10.4336 13.4508L11.2905 14.3077L12.6724 12.9197L14.0543 14.3077Z" fill="#EFEFEF"/>
</g>
<defs>
<clipPath id="clip0_934_3">
<rect width="35" height="33.1897" fill="white"/>
</clipPath>
</defs>
</svg>
