<?xml version="1.0" encoding="UTF-8"?><svg id="Calque_2" xmlns="http://www.w3.org/2000/svg" viewBox="0 0 496 496"><g id="Layer_3"><g><path d="M344,192c-16.67,0-32.68,2.8-47.7,7.78,5.09-15.32,7.7-31.31,7.7-47.78C304,68.18,235.82,0,152,0S0,68.18,0,152s68.18,152,152,152c16.46,0,32.46-2.62,47.78-7.7-4.98,15.02-7.78,31.03-7.78,47.7,0,83.82,68.18,152,152,152s152-68.18,152-152-68.18-152-152-152Zm0,240c-48.52,0-88-39.48-88-88s39.48-88,88-88,88,39.48,88,88-39.48,88-88,88Zm67.58-166.89c-16.29-13.98-36.92-22.97-59.58-24.7v-32c31.46,1.84,60.04,14.38,82.2,34.09l-22.62,22.62Zm-75.58-24.7c-22.66,1.74-43.29,10.73-59.58,24.7l-22.62-22.62c22.16-19.71,50.73-32.24,82.2-34.09v32h0Zm-93.51,13.39l22.62,22.62c-13.98,16.29-22.97,36.92-24.7,59.58h-32c1.85-31.46,14.38-60.03,34.09-82.19h0Zm-2.08,98.2c1.74,22.66,10.73,43.29,24.7,59.58l-22.62,22.62c-19.71-22.16-32.24-50.73-34.09-82.2h32Zm36.02,70.9c16.29,13.98,36.92,22.97,59.58,24.7v32c-31.46-1.84-60.04-14.38-82.2-34.09l22.62-22.62Zm75.58,24.7c22.66-1.74,43.29-10.73,59.58-24.7l22.62,22.62c-22.16,19.71-50.73,32.24-82.2,34.09v-32h0Zm70.89-36.02c13.98-16.29,22.97-36.92,24.7-59.58h32c-1.84,31.46-14.38,60.04-34.09,82.2l-22.62-22.62Zm24.7-75.58c-1.74-22.66-10.73-43.29-24.7-59.58l22.62-22.62c19.71,22.16,32.24,50.73,34.09,82.2h-32Zm-205.1-104.82l-11.61-11.61c13.98-16.29,22.97-36.92,24.7-59.58h31.96c-.97,16.86-4.92,33.1-11.93,48.43-12.06,6.11-23.17,13.78-33.13,22.75h0Zm13.1-87.18c-1.74-22.66-10.73-43.29-24.7-59.58l22.62-22.62c19.71,22.16,32.24,50.73,34.09,82.2h-32Zm-36.02-70.9c-16.29-13.98-36.91-22.97-59.58-24.7V16.41c31.46,1.84,60.04,14.38,82.2,34.09l-22.62,22.62Zm-75.58-24.7c-22.66,1.74-43.29,10.73-59.58,24.7l-22.62-22.62c22.16-19.71,50.73-32.24,82.2-34.09V48.41Zm-70.89,36.02c-13.98,16.29-22.97,36.91-24.7,59.58H16.41c1.84-31.46,14.38-60.04,34.09-82.2l22.62,22.62Zm-24.7,75.58c1.74,22.66,10.73,43.29,24.7,59.58l-22.62,22.62c-19.72-22.15-32.25-50.73-34.09-82.19h32Zm36.02,70.89c16.29,13.98,36.92,22.97,59.58,24.7v32c-31.46-1.84-60.04-14.38-82.2-34.09l22.62-22.62Zm67.58,9.11c-48.52,0-88-39.48-88-88s39.48-88,88-88,88,39.48,88,88-39.48,88-88,88Zm8,47.56v-31.96c22.66-1.74,43.29-10.73,59.58-24.7l11.61,11.61c-8.97,9.96-16.64,21.06-22.74,33.13-15.34,7.01-31.58,10.96-48.44,11.93h0Z"/><path d="M216,144c0-17.11-10.65-31.94-26.42-37.57-5.64-15.78-20.47-26.43-37.58-26.43s-31.94,10.65-37.57,26.42c-15.78,5.64-26.43,20.47-26.43,37.58,0,22.06,17.94,40,40,40,1.33,0,2.62-.19,3.94-.33l-18.59,27.89c-1.63,2.46-1.79,5.61-.4,8.21s4.1,4.23,7.06,4.23h64c2.95,0,5.66-1.62,7.06-4.22s1.23-5.76-.4-8.21l-18.59-27.89c1.31,.13,2.61,.32,3.94,.32,22.06,0,40-17.94,40-40h0Zm-112,0c0-11.22,7.67-20.83,18.66-23.34,2.99-.69,5.33-3.02,6.01-6.02,2.5-10.98,12.11-18.64,23.34-18.64s20.83,7.67,23.34,18.66c.69,2.99,3.02,5.33,6.02,6.01,10.98,2.5,18.64,12.11,18.64,23.34,0,13.23-10.77,24-24,24-6.91,0-13.3-2.95-17.98-8.3-1.52-1.74-3.72-2.74-6.02-2.74s-4.5,1-6.02,2.74c-4.68,5.35-11.06,8.3-17.98,8.3-13.23,0-24-10.77-24-24h0Zm30.94,64l17.06-25.58,17.06,25.58h-34.11Z"/><path d="M381.58,298.43c-5.64-15.78-20.47-26.43-37.58-26.43s-31.94,10.65-37.57,26.42c-15.78,5.64-26.43,20.47-26.43,37.58,0,22.06,17.94,40,40,40,1.33,0,2.62-.19,3.94-.33l-18.59,27.89c-1.63,2.46-1.79,5.61-.4,8.21s4.1,4.23,7.06,4.23h64c2.95,0,5.66-1.62,7.06-4.22s1.23-5.76-.4-8.21l-18.59-27.89c1.31,.13,2.61,.32,3.94,.32,22.06,0,40-17.94,40-40,0-17.11-10.65-31.94-26.42-37.57Zm-54.63,101.57l17.06-25.58,17.06,25.58h-34.11Zm41.06-40c-6.91,0-13.3-2.95-17.98-8.3-1.52-1.74-3.72-2.74-6.02-2.74s-4.5,1-6.02,2.74c-4.68,5.35-11.06,8.3-17.98,8.3-13.23,0-24-10.77-24-24,0-11.22,7.67-20.83,18.66-23.34,2.99-.69,5.33-3.02,6.01-6.02,2.5-10.98,12.11-18.64,23.34-18.64s20.83,7.67,23.34,18.66c.69,2.99,3.02,5.33,6.02,6.01,10.98,2.5,18.64,12.11,18.64,23.34,0,13.23-10.77,24-24,24Z"/><path d="M408,160c39.7,0,72-32.3,72-72s-32.3-72-72-72-72,32.3-72,72,32.3,72,72,72Zm0-128c30.87,0,56,25.13,56,56s-25.13,56-56,56-56-25.13-56-56,25.13-56,56-56Z"/><path d="M408,128c22.06,0,40-17.94,40-40s-17.94-40-40-40-40,17.94-40,40,17.94,40,40,40Zm0-64c13.23,0,24,10.77,24,24s-10.77,24-24,24-24-10.77-24-24,10.77-24,24-24Z"/><path d="M88,336c-39.7,0-72,32.3-72,72s32.3,72,72,72,72-32.3,72-72-32.3-72-72-72Zm0,128c-30.87,0-56-25.13-56-56s25.13-56,56-56,56,25.13,56,56-25.13,56-56,56Z"/><path d="M88,368c-22.06,0-40,17.94-40,40s17.94,40,40,40,40-17.94,40-40-17.94-40-40-40Zm0,64c-13.23,0-24-10.77-24-24s10.77-24,24-24,24,10.77,24,24-10.77,24-24,24Z"/></g></g></svg>