<svg width="25" height="25" viewBox="0 0 25 25" fill="none" xmlns="http://www.w3.org/2000/svg">
<g clip-path="url(#clip0_934_25)">
<path d="M17.3387 9.67742C16.4985 9.67742 15.6915 9.81855 14.9345 10.0696C15.191 9.29738 15.3226 8.49143 15.3226 7.66129C15.3226 3.43649 11.8861 0 7.66129 0C3.43649 0 0 3.43649 0 7.66129C0 11.8861 3.43649 15.3226 7.66129 15.3226C8.49093 15.3226 9.29738 15.1905 10.0696 14.9345C9.81855 15.6915 9.67742 16.4985 9.67742 17.3387C9.67742 21.5635 13.1139 25 17.3387 25C21.5635 25 25 21.5635 25 17.3387C25 13.1139 21.5635 9.67742 17.3387 9.67742ZM17.3387 21.7742C14.8931 21.7742 12.9032 19.7843 12.9032 17.3387C12.9032 14.8931 14.8931 12.9032 17.3387 12.9032C19.7843 12.9032 21.7742 14.8931 21.7742 17.3387C21.7742 19.7843 19.7843 21.7742 17.3387 21.7742ZM20.745 13.3624C19.9239 12.6578 18.8841 12.2046 17.7419 12.1174V10.5045C19.3276 10.5973 20.7681 11.2293 21.8851 12.2228L20.745 13.3629V13.3624ZM16.9355 12.1174C15.7933 12.2051 14.7535 12.6583 13.9325 13.3624L12.7923 12.2223C13.9093 11.2288 15.3493 10.5973 16.9355 10.504V12.1169V12.1174ZM12.2223 12.7923L13.3624 13.9325C12.6578 14.7535 12.2046 15.7933 12.1174 16.9355H10.5045C10.5978 15.3498 11.2293 13.9098 12.2228 12.7928L12.2223 12.7923ZM12.1174 17.7419C12.2051 18.8841 12.6583 19.9239 13.3624 20.745L12.2223 21.8851C11.2288 20.7681 10.5973 19.3281 10.504 17.7419H12.1169H12.1174ZM13.933 21.3155C14.754 22.0202 15.7939 22.4733 16.936 22.5605V24.1734C15.3503 24.0806 13.9098 23.4486 12.7928 22.4551L13.933 21.315V21.3155ZM17.7424 22.5605C18.8846 22.4728 19.9244 22.0197 20.7455 21.3155L21.8856 22.4556C20.7686 23.4491 19.3286 24.0806 17.7424 24.1739V22.561V22.5605ZM21.3155 20.745C22.0202 19.9239 22.4733 18.8841 22.5605 17.7419H24.1734C24.0806 19.3276 23.4486 20.7681 22.4551 21.8851L21.315 20.745H21.3155ZM22.5605 16.9355C22.4728 15.7933 22.0197 14.7535 21.3155 13.9325L22.4556 12.7923C23.4491 13.9093 24.0806 15.3493 24.1739 16.9355H22.561H22.5605ZM12.2228 11.6522L11.6376 11.067C12.3422 10.246 12.7954 9.20615 12.8826 8.06401H14.4934C14.4446 8.91381 14.2455 9.73236 13.8921 10.505C13.2843 10.813 12.7243 11.1996 12.2223 11.6517L12.2228 11.6522ZM12.8831 7.25806C12.7954 6.11593 12.3422 5.07611 11.6381 4.25504L12.7782 3.11492C13.7717 4.23185 14.4032 5.67188 14.4965 7.25806H12.8836H12.8831ZM11.0675 3.68448C10.2465 2.97984 9.20716 2.52671 8.06452 2.43952V0.827117C9.6502 0.919859 11.0907 1.55192 12.2077 2.54536L11.0675 3.68548V3.68448ZM7.25806 2.43952C6.11593 2.52722 5.07611 2.98034 4.25504 3.68448L3.11492 2.54435C4.23185 1.55091 5.67188 0.919355 7.25806 0.826109V2.44002V2.43952ZM3.68498 4.25504C2.98034 5.07611 2.52722 6.11542 2.44002 7.25806H0.827117C0.919859 5.67238 1.55192 4.23185 2.54536 3.11492L3.68548 4.25504H3.68498ZM2.44002 8.06452C2.52772 9.20665 2.98085 10.2465 3.68498 11.0675L2.54486 12.2077C1.55091 11.0912 0.919355 9.65071 0.826613 8.06502H2.43952L2.44002 8.06452ZM4.25554 11.6376C5.07661 12.3422 6.11643 12.7954 7.25857 12.8826V14.4955C5.67288 14.4027 4.23236 13.7707 3.11542 12.7772L4.25554 11.6371V11.6376ZM7.66179 12.0968C5.21623 12.0968 3.22631 10.1069 3.22631 7.66129C3.22631 5.21573 5.21623 3.22581 7.66179 3.22581C10.1074 3.22581 12.0973 5.21573 12.0973 7.66129C12.0973 10.1069 10.1074 12.0968 7.66179 12.0968ZM8.06502 14.494V12.8831C9.20716 12.7954 10.247 12.3422 11.068 11.6381L11.6532 12.2233C11.2011 12.7253 10.8145 13.2848 10.5071 13.8931C9.73387 14.2465 8.91532 14.4456 8.06552 14.4945L8.06502 14.494Z" fill="#EFEFEF"/>
<path d="M10.8872 7.25803C10.8872 6.39563 10.3504 5.64815 9.55551 5.36438C9.27123 4.56902 8.52375 4.03223 7.66135 4.03223C6.79895 4.03223 6.05147 4.56902 5.7677 5.36388C4.97234 5.64815 4.43555 6.39563 4.43555 7.25803C4.43555 8.36993 5.33978 9.27416 6.45168 9.27416C6.51871 9.27416 6.58373 9.26459 6.65026 9.25753L5.71327 10.6633C5.63111 10.7873 5.62305 10.946 5.69311 11.0771C5.76317 11.2081 5.89976 11.2903 6.04895 11.2903H9.27476C9.42345 11.2903 9.56004 11.2086 9.63061 11.0776C9.70117 10.9465 9.6926 10.7873 9.61045 10.6638L8.67345 9.25803C8.73948 9.26459 8.805 9.27416 8.87204 9.27416C9.98393 9.27416 10.8882 8.36993 10.8882 7.25803H10.8872ZM5.242 7.25803C5.242 6.69251 5.62859 6.20813 6.18252 6.08162C6.33323 6.04684 6.45117 5.9294 6.48545 5.77819C6.61145 5.22477 7.09583 4.83868 7.66186 4.83868C8.22789 4.83868 8.71176 5.22527 8.83827 5.7792C8.87305 5.92991 8.99049 6.04785 9.1417 6.08213C9.69512 6.20813 10.0812 6.69251 10.0812 7.25854C10.0812 7.92537 9.53837 8.46821 8.87153 8.46821C8.52325 8.46821 8.20117 8.31953 7.96528 8.04987C7.88867 7.96217 7.77778 7.91176 7.66186 7.91176C7.54593 7.91176 7.43504 7.96217 7.35843 8.04987C7.12254 8.31953 6.80097 8.46821 6.45218 8.46821C5.78534 8.46821 5.2425 7.92537 5.2425 7.25854L5.242 7.25803ZM6.80147 10.4838L7.66135 9.19452L8.52123 10.4838H6.80198H6.80147Z" fill="#EFEFEF"/>
<path d="M19.2332 15.0416C18.949 14.2463 18.2015 13.7095 17.3391 13.7095C16.4767 13.7095 15.7292 14.2463 15.4454 15.0411C14.6501 15.3254 14.1133 16.0729 14.1133 16.9353C14.1133 18.0472 15.0175 18.9514 16.1294 18.9514C16.1964 18.9514 16.2615 18.9418 16.328 18.9348L15.391 20.3405C15.3088 20.4645 15.3008 20.6233 15.3708 20.7543C15.4409 20.8854 15.5775 20.9675 15.7267 20.9675H18.9525C19.1012 20.9675 19.2378 20.8859 19.3083 20.7548C19.3789 20.6238 19.3703 20.4645 19.2882 20.341L18.3512 18.9353C18.4172 18.9418 18.4827 18.9514 18.5498 18.9514C19.6617 18.9514 20.5659 18.0472 20.5659 16.9353C20.5659 16.0729 20.0291 15.3254 19.2342 15.0416H19.2332ZM16.4797 20.1611L17.3396 18.8718L18.1995 20.1611H16.4802H16.4797ZM18.5493 18.145C18.201 18.145 17.8789 17.9963 17.643 17.7266C17.5664 17.6389 17.4555 17.5885 17.3396 17.5885C17.2237 17.5885 17.1128 17.6389 17.0362 17.7266C16.8003 17.9963 16.4787 18.145 16.1299 18.145C15.4631 18.145 14.9202 17.6021 14.9202 16.9353C14.9202 16.3698 15.3068 15.8854 15.8608 15.7589C16.0115 15.7241 16.1294 15.6067 16.1637 15.4554C16.2897 14.902 16.7741 14.5159 17.3401 14.5159C17.9061 14.5159 18.39 14.9025 18.5165 15.4564C18.5513 15.6072 18.6687 15.7251 18.8199 15.7594C19.3734 15.8854 19.7595 16.3698 19.7595 16.9358C19.7595 17.6026 19.2166 18.1455 18.5498 18.1455L18.5493 18.145Z" fill="#EFEFEF"/>
<path d="M20.5646 8.06471C22.5656 8.06471 24.1936 6.43668 24.1936 4.43567C24.1936 2.43466 22.5656 0.806641 20.5646 0.806641C18.5636 0.806641 16.9355 2.43466 16.9355 4.43567C16.9355 6.43668 18.5636 8.06471 20.5646 8.06471ZM20.5646 1.61309C22.1205 1.61309 23.3872 2.87973 23.3872 4.43567C23.3872 5.99162 22.1205 7.25825 20.5646 7.25825C19.0086 7.25825 17.742 5.99162 17.742 4.43567C17.742 2.87973 19.0086 1.61309 20.5646 1.61309Z" fill="#EFEFEF"/>
<path d="M20.565 6.45169C21.6769 6.45169 22.5811 5.54746 22.5811 4.43556C22.5811 3.32367 21.6769 2.41943 20.565 2.41943C19.4531 2.41943 18.5488 3.32367 18.5488 4.43556C18.5488 5.54746 19.4531 6.45169 20.565 6.45169ZM20.565 3.22589C21.2318 3.22589 21.7746 3.76873 21.7746 4.43556C21.7746 5.1024 21.2318 5.64524 20.565 5.64524C19.8981 5.64524 19.3553 5.1024 19.3553 4.43556C19.3553 3.76873 19.8981 3.22589 20.565 3.22589Z" fill="#EFEFEF"/>
<path d="M4.43567 16.9355C2.43466 16.9355 0.806641 18.5636 0.806641 20.5646C0.806641 22.5656 2.43466 24.1936 4.43567 24.1936C6.43668 24.1936 8.06471 22.5656 8.06471 20.5646C8.06471 18.5636 6.43668 16.9355 4.43567 16.9355ZM4.43567 23.3872C2.87973 23.3872 1.61309 22.1205 1.61309 20.5646C1.61309 19.0086 2.87973 17.742 4.43567 17.742C5.99162 17.742 7.25825 19.0086 7.25825 20.5646C7.25825 22.1205 5.99162 23.3872 4.43567 23.3872Z" fill="#EFEFEF"/>
<path d="M4.43605 18.5483C3.32416 18.5483 2.41992 19.4526 2.41992 20.5645C2.41992 21.6764 3.32416 22.5806 4.43605 22.5806C5.54795 22.5806 6.45218 21.6764 6.45218 20.5645C6.45218 19.4526 5.54795 18.5483 4.43605 18.5483ZM4.43605 21.7741C3.76922 21.7741 3.22637 21.2313 3.22637 20.5645C3.22637 19.8976 3.76922 19.3548 4.43605 19.3548C5.10289 19.3548 5.64573 19.8976 5.64573 20.5645C5.64573 21.2313 5.10289 21.7741 4.43605 21.7741Z" fill="#EFEFEF"/>
</g>
<defs>
<clipPath id="clip0_934_25">
<rect width="25" height="25" fill="white"/>
</clipPath>
</defs>
</svg>
