<svg width="35" height="35" viewBox="0 0 35 35" fill="none" xmlns="http://www.w3.org/2000/svg">
<g clip-path="url(#clip0_934_25)">
<path d="M24.2742 13.5484C23.0979 13.5484 21.9681 13.746 20.9083 14.0974C21.2674 13.0163 21.4516 11.888 21.4516 10.7258C21.4516 4.81109 16.6405 0 10.7258 0C4.81109 0 0 4.81109 0 10.7258C0 16.6405 4.81109 21.4516 10.7258 21.4516C11.8873 21.4516 13.0163 21.2667 14.0974 20.9083C13.746 21.9681 13.5484 23.0979 13.5484 24.2742C13.5484 30.1889 18.3595 35 24.2742 35C30.1889 35 35 30.1889 35 24.2742C35 18.3595 30.1889 13.5484 24.2742 13.5484ZM24.2742 30.4839C20.8504 30.4839 18.0645 27.698 18.0645 24.2742C18.0645 20.8504 20.8504 18.0645 24.2742 18.0645C27.698 18.0645 30.4839 20.8504 30.4839 24.2742C30.4839 27.698 27.698 30.4839 24.2742 30.4839ZM29.0429 18.7074C27.8934 17.7209 26.4377 17.0865 24.8387 16.9644V14.7064C27.0587 14.8362 29.0754 15.7211 30.6391 17.1119L29.0429 18.7081V18.7074ZM23.7097 16.9644C22.1107 17.0872 20.6549 17.7216 19.5054 18.7074L17.9093 17.1112C19.473 15.7204 21.489 14.8362 23.7097 14.7056V16.9637V16.9644ZM17.1112 17.9093L18.7074 19.5054C17.7209 20.6549 17.0865 22.1107 16.9644 23.7097H14.7064C14.8369 21.4897 15.7211 19.4737 17.1119 17.91L17.1112 17.9093ZM16.9644 24.8387C17.0872 26.4377 17.7216 27.8934 18.7074 29.0429L17.1112 30.6391C15.7204 29.0754 14.8362 27.0594 14.7056 24.8387H16.9637H16.9644ZM19.5061 29.8417C20.6556 30.8282 22.1114 31.4626 23.7104 31.5847V33.8427C21.4904 33.7129 19.4737 32.828 17.91 31.4372L19.5061 29.841V29.8417ZM24.8394 31.5847C26.4384 31.4619 27.8942 30.8275 29.0436 29.8417L30.6398 31.4379C29.0761 32.8287 27.0601 33.7129 24.8394 33.8434V31.5854V31.5847ZM29.8417 29.0429C30.8282 27.8934 31.4626 26.4377 31.5847 24.8387H33.8427C33.7129 27.0587 32.828 29.0754 31.4372 30.6391L29.841 29.0429H29.8417ZM31.5847 23.7097C31.4619 22.1107 30.8275 20.6549 29.8417 19.5054L31.4379 17.9093C32.8287 19.473 33.7129 21.489 33.8434 23.7097H31.5854H31.5847ZM17.1119 16.3131L16.2926 15.4939C17.2791 14.3444 17.9135 12.8886 18.0356 11.2896H20.2908C20.2224 12.4793 19.9436 13.6253 19.449 14.7071C18.598 15.1382 17.814 15.6794 17.1112 16.3124L17.1119 16.3131ZM18.0363 10.1613C17.9135 8.5623 17.2791 7.10655 16.2933 5.95706L17.8895 4.36089C19.2803 5.9246 20.1645 7.94063 20.2951 10.1613H18.037H18.0363ZM15.4946 5.15827C14.3451 4.17177 12.89 3.5374 11.2903 3.41532V1.15796C13.5103 1.2878 15.527 2.17268 17.0907 3.56351L15.4946 5.15968V5.15827ZM10.1613 3.41532C8.5623 3.5381 7.10655 4.17248 5.95706 5.15827L4.36089 3.5621C5.9246 2.17127 7.94063 1.2871 10.1613 1.15655V3.41603V3.41532ZM5.15897 5.95706C4.17248 7.10655 3.5381 8.56159 3.41603 10.1613H1.15796C1.2878 7.94133 2.17268 5.9246 3.56351 4.36089L5.15968 5.95706H5.15897ZM3.41603 11.2903C3.53881 12.8893 4.17319 14.3451 5.15897 15.4946L3.5628 17.0907C2.17127 15.5277 1.2871 13.511 1.15726 11.291H3.41532L3.41603 11.2903ZM5.95776 16.2926C7.10726 17.2791 8.563 17.9135 10.162 18.0356V20.2936C7.94204 20.1638 5.9253 19.2789 4.36159 17.8881L5.95776 16.2919V16.2926ZM10.7265 16.9355C7.30272 16.9355 4.51683 14.1496 4.51683 10.7258C4.51683 7.30202 7.30272 4.51613 10.7265 4.51613C14.1503 4.51613 16.9362 7.30202 16.9362 10.7258C16.9362 14.1496 14.1503 16.9355 10.7265 16.9355ZM11.291 20.2915V18.0363C12.89 17.9135 14.3458 17.2791 15.4953 16.2933L16.3145 17.1126C15.6816 17.8154 15.1403 18.5987 14.7099 19.4504C13.6274 19.9451 12.4815 20.2238 11.2917 20.2922L11.291 20.2915Z" fill="#EFEFEF"/>
<path d="M15.2412 10.1611C15.2412 8.95379 14.4897 7.90732 13.3769 7.51004C12.9789 6.39653 11.9325 5.64502 10.7251 5.64502C9.51775 5.64502 8.47128 6.39653 8.074 7.50933C6.9605 7.90732 6.20898 8.95379 6.20898 10.1611C6.20898 11.7178 7.47491 12.9837 9.03157 12.9837C9.12542 12.9837 9.21644 12.9703 9.30959 12.9604L7.99779 14.9285C7.88277 15.1021 7.87148 15.3244 7.96957 15.5078C8.06765 15.6913 8.25888 15.8063 8.46775 15.8063H12.9839C13.192 15.8063 13.3833 15.692 13.4821 15.5085C13.5809 15.3251 13.5689 15.1021 13.4538 14.9292L12.142 12.9611C12.2345 12.9703 12.3262 12.9837 12.4201 12.9837C13.9767 12.9837 15.2427 11.7178 15.2427 10.1611H15.2412ZM7.33802 10.1611C7.33802 9.36942 7.87925 8.69129 8.65475 8.51417C8.86574 8.46548 9.03086 8.30107 9.07884 8.08937C9.25525 7.31458 9.93338 6.77405 10.7258 6.77405C11.5183 6.77405 12.1957 7.31528 12.3728 8.09079C12.4215 8.30177 12.5859 8.46689 12.7976 8.51488C13.5724 8.69129 14.1129 9.36941 14.1129 10.1619C14.1129 11.0954 13.3529 11.8554 12.4194 11.8554C11.9318 11.8554 11.4809 11.6472 11.1506 11.2697C11.0434 11.1469 10.8881 11.0764 10.7258 11.0764C10.5635 11.0764 10.4083 11.1469 10.301 11.2697C9.97078 11.6472 9.52058 11.8554 9.03227 11.8554C8.0987 11.8554 7.33872 11.0954 7.33872 10.1619L7.33802 10.1611ZM9.52128 14.6773L10.7251 12.8722L11.9289 14.6773H9.52199H9.52128Z" fill="#EFEFEF"/>
<path d="M26.9258 21.0584C26.5278 19.9449 25.4813 19.1934 24.2739 19.1934C23.0666 19.1934 22.0201 19.9449 21.6228 21.0577C20.5093 21.4557 19.7578 22.5021 19.7578 23.7095C19.7578 25.2661 21.0237 26.5321 22.5804 26.5321C22.6742 26.5321 22.7653 26.5187 22.8584 26.5088L21.5466 28.4768C21.4316 28.6504 21.4203 28.8727 21.5184 29.0562C21.6165 29.2396 21.8077 29.3546 22.0166 29.3546H26.5327C26.7409 29.3546 26.9321 29.2403 27.0309 29.0569C27.1297 28.8734 27.1177 28.6504 27.0027 28.4775L25.6909 26.5095C25.7833 26.5187 25.875 26.5321 25.9689 26.5321C27.5256 26.5321 28.7915 25.2661 28.7915 23.7095C28.7915 22.5021 28.04 21.4557 26.9272 21.0584H26.9258ZM23.0708 28.2256L24.2746 26.4206L25.4785 28.2256H23.0715H23.0708ZM25.9682 25.403C25.4806 25.403 25.0297 25.1949 24.6994 24.8174C24.5922 24.6946 24.4369 24.624 24.2746 24.624C24.1123 24.624 23.9571 24.6946 23.8498 24.8174C23.5196 25.1949 23.0694 25.403 22.5811 25.403C21.6475 25.403 20.8876 24.6431 20.8876 23.7095C20.8876 22.9178 21.4288 22.2396 22.2043 22.0625C22.4153 22.0138 22.5804 21.8494 22.6284 21.6377C22.8048 20.8629 23.4829 20.3224 24.2754 20.3224C25.0678 20.3224 25.7452 20.8636 25.9223 21.6391C25.971 21.8501 26.1354 22.0152 26.3471 22.0632C27.1219 22.2396 27.6624 22.9178 27.6624 23.7102C27.6624 24.6438 26.9025 25.4037 25.9689 25.4037L25.9682 25.403Z" fill="#EFEFEF"/>
<path d="M28.7896 11.2902C31.591 11.2902 33.8703 9.01096 33.8703 6.20955C33.8703 3.40814 31.591 1.12891 28.7896 1.12891C25.9882 1.12891 23.709 3.40814 23.709 6.20955C23.709 9.01096 25.9882 11.2902 28.7896 11.2902ZM28.7896 2.25794C30.968 2.25794 32.7412 4.03123 32.7412 6.20955C32.7412 8.38788 30.968 10.1612 28.7896 10.1612C26.6113 10.1612 24.838 8.38788 24.838 6.20955C24.838 4.03123 26.6113 2.25794 28.7896 2.25794Z" fill="#EFEFEF"/>
<path d="M28.7894 9.03237C30.346 9.03237 31.612 7.76644 31.612 6.20979C31.612 4.65313 30.346 3.38721 28.7894 3.38721C27.2327 3.38721 25.9668 4.65313 25.9668 6.20979C25.9668 7.76644 27.2327 9.03237 28.7894 9.03237ZM28.7894 4.51624C29.7229 4.51624 30.4829 5.27622 30.4829 6.20979C30.4829 7.14336 29.7229 7.90334 28.7894 7.90334C27.8558 7.90334 27.0958 7.14336 27.0958 6.20979C27.0958 5.27622 27.8558 4.51624 28.7894 4.51624Z" fill="#EFEFEF"/>
<path d="M6.20955 23.7095C3.40814 23.7095 1.12891 25.9887 1.12891 28.7901C1.12891 31.5915 3.40814 33.8708 6.20955 33.8708C9.01096 33.8708 11.2902 31.5915 11.2902 28.7901C11.2902 25.9887 9.01096 23.7095 6.20955 23.7095ZM6.20955 32.7417C4.03123 32.7417 2.25794 30.9684 2.25794 28.7901C2.25794 26.6118 4.03123 24.8385 6.20955 24.8385C8.38788 24.8385 10.1612 26.6118 10.1612 28.7901C10.1612 30.9684 8.38788 32.7417 6.20955 32.7417Z" fill="#EFEFEF"/>
<path d="M6.2093 25.9678C4.65265 25.9678 3.38672 27.2337 3.38672 28.7904C3.38672 30.347 4.65265 31.6129 6.2093 31.6129C7.76595 31.6129 9.03188 30.347 9.03188 28.7904C9.03188 27.2337 7.76595 25.9678 6.2093 25.9678ZM6.2093 30.4839C5.27573 30.4839 4.51575 29.7239 4.51575 28.7904C4.51575 27.8568 5.27573 27.0968 6.2093 27.0968C7.14287 27.0968 7.90285 27.8568 7.90285 28.7904C7.90285 29.7239 7.14287 30.4839 6.2093 30.4839Z" fill="#EFEFEF"/>
</g>
<defs>
<clipPath id="clip0_934_25">
<rect width="35" height="35" fill="white"/>
</clipPath>
</defs>
</svg>
