<svg width="35" height="35" viewBox="0 0 35 35" fill="none" xmlns="http://www.w3.org/2000/svg">
<g clip-path="url(#clip0_1004_2)">
<path d="M7.7889 34.0012L8.71649 32.8607L9.05805 32.4688C9.48462 32.0423 10.0042 31.7203 10.5757 31.5276L13.3932 30.5798C14.9028 30.0723 16.274 29.2221 17.3993 28.0967L19.2409 26.255C19.8737 25.6222 19.8737 24.5954 19.2414 23.963C18.4778 23.3312 17.7137 23.3312 16.9496 23.9625L17.854 23.058C18.4863 22.4257 18.4863 21.4004 17.854 20.7666C17.0904 20.1337 16.3268 20.1337 15.5627 20.7666L16.1 20.2293C16.7288 19.6005 16.7529 18.5742 16.1296 17.9379C15.4838 17.2763 14.5079 17.2391 13.8238 17.9228L13.1105 18.6361C13.7538 17.9927 13.7704 16.9237 13.1155 16.2933C12.5008 15.7002 11.5143 15.6489 10.8483 16.316L10.2246 16.9403L8.29193 16.6867C7.58869 16.5927 6.88194 16.8316 6.37991 17.3337L5.61732 18.0963C5.19326 18.5204 4.92213 19.0939 4.91861 19.6935V25.1624C4.88742 26.4235 4.37534 26.8084 3.4739 27.6183L1 29.779" stroke="#EFEFEF" stroke-linecap="round" stroke-linejoin="round"/>
<path d="M24.7514 16.2271L23.0818 17.8968C22.4495 18.5291 21.4238 18.5291 20.791 17.8968C20.1582 17.2639 20.1582 16.2387 20.791 15.6058L22.4606 13.9362C23.0929 13.3038 24.1186 13.3038 24.7514 13.9362C25.3842 14.5685 25.3842 15.5943 24.7514 16.2271Z" stroke="#EFEFEF" stroke-linecap="round" stroke-linejoin="round"/>
<path d="M27.0427 18.5186L26.2771 19.2843C25.6443 19.9166 24.6191 19.9166 23.9863 19.2843C23.3535 18.6514 23.3535 17.6262 23.9863 16.9933L24.7519 16.2277C25.3843 15.5953 26.4099 15.5953 27.0427 16.2277C27.6756 16.86 27.6756 17.8858 27.0427 18.5186Z" stroke="#EFEFEF" stroke-linecap="round" stroke-linejoin="round"/>
<path d="M24.8244 4.91357H19.7689C19.1698 4.9171 18.5958 5.18623 18.1718 5.60981L17.4092 6.37246C16.9077 6.87401 16.6682 7.58132 16.7623 8.2846L16.9177 9.4492C16.9841 9.94471 17.211 10.4045 17.5646 10.7577L21.6019 14.7953L22.0285 14.3687C23.1437 13.2534 23.1437 11.4448 22.0285 10.3296L21.0954 9.39638C21.0954 9.39638 23.0331 10.0036 24.2348 8.80125" stroke="#EFEFEF" stroke-linecap="round" stroke-linejoin="round"/>
<path d="M29.7755 1L27.6945 3.46602C27.0616 4.17081 26.6713 4.52547 25.9424 4.74933C25.5807 4.86051 25.2034 4.91182 24.8252 4.91384H19.7697C19.1706 4.91736 18.5966 5.1865 18.1726 5.61008L17.41 6.37272C16.9085 6.87427 16.669 7.58158 16.7631 8.28487L16.919 9.44946C16.9502 9.68238 17.0181 9.90725 17.1172 10.117L16.2611 10.9727C15.5941 11.6388 15.6459 12.6253 16.2384 13.24C16.8687 13.895 17.9382 13.8779 18.581 13.235L18 13.8155C17.3159 14.4997 17.3537 15.4757 18.0151 16.1216C18.6515 16.7449 19.6772 16.7207 20.3059 16.0919L20.8432 15.5546C20.8432 15.5546 20.8417 15.5567 20.8412 15.5577L20.7934 15.6054C20.1606 16.2383 20.1606 17.2635 20.7934 17.8964C21.4262 18.5293 22.4514 18.5288 23.0842 17.8964L23.1345 17.8461L23.9881 16.9924C23.3553 17.6247 23.3553 18.6505 23.9881 19.2833C24.6209 19.9157 25.6461 19.9157 26.2789 19.2833L26.292 19.2703C26.3051 19.2577 26.3187 19.2456 26.3317 19.2325L28.1733 17.3908C29.2991 16.2655 30.1487 14.8941 30.6563 13.3844L31.604 10.5668C31.688 10.3182 31.7962 10.0793 31.9275 9.85392" stroke="#EFEFEF" stroke-linecap="round" stroke-linejoin="round"/>
<path d="M10.1276 17.0396L8.07422 19.0931" stroke="#EFEFEF" stroke-linecap="round" stroke-linejoin="round"/>
<path d="M18.5801 13.2363L19.311 12.5054" stroke="#EFEFEF" stroke-linecap="round" stroke-linejoin="round"/>
<path d="M1 1L6.44531 6.02108L9.24115 3.22505L11.7543 11.3299L8.52534 8.10074L6.44128 10.1849L1.01207 6.65293" stroke="#EFEFEF" stroke-linecap="round" stroke-linejoin="round"/>
<path d="M34.0011 34.0011L28.9804 28.5554L31.7762 25.7594L23.6719 23.2461L26.9008 26.4753L24.8168 28.5595L28.3491 33.989" stroke="#EFEFEF" stroke-linecap="round" stroke-linejoin="round"/>
</g>
<defs>
<clipPath id="clip0_1004_2">
<rect width="35" height="35" fill="white"/>
</clipPath>
</defs>
</svg>
