<svg width="25" height="25" viewBox="0 0 25 25" fill="none" xmlns="http://www.w3.org/2000/svg">
<g clip-path="url(#clip0_934_13)">
<path d="M3.53744 2.56761C3.29302 2.07334 3.25129 1.5032 3.42146 0.978586C3.66697 0.231767 4.47123 -0.173618 5.21751 0.0724314C5.23919 0.0794769 5.26141 0.0876062 5.28255 0.0957356C5.79578 0.29355 6.21038 0.684844 6.438 1.18561C6.5827 1.4864 6.65858 1.81537 6.6602 2.14922C6.66129 2.36221 6.62552 2.57411 6.55452 2.77464C6.42987 3.14046 6.16485 3.44179 5.818 3.61196C5.63102 3.70301 5.42562 3.74962 5.21751 3.74799C5.04571 3.74583 4.87499 3.71493 4.71295 3.65694C4.19321 3.46184 3.77102 3.07055 3.53744 2.56707V2.56761Z" fill="#EFEFEF"/>
<path d="M13.2896 18.3184C13.0143 18.5926 12.6387 18.7417 12.2501 18.7319H12.0431C11.5673 18.668 11.1266 18.4458 10.7917 18.1011C10.3939 17.7228 10.1636 17.202 10.1511 16.653C10.1262 15.8677 10.7424 15.2108 11.5277 15.1859C11.6225 15.1826 11.7174 15.1891 11.8106 15.2054C12.2859 15.2688 12.726 15.4888 13.062 15.8308C13.8137 16.5673 13.9145 17.6876 13.2891 18.3178L13.2896 18.3184Z" fill="#EFEFEF"/>
<path d="M9.66669 12.8698C9.21687 12.8714 8.77246 12.7679 8.37033 12.5668C7.77092 12.2693 7.06746 12.2693 6.46805 12.5668C5.01615 13.2828 3.25857 12.6866 2.54265 11.2347C2.34375 10.8315 2.24023 10.3882 2.24023 9.93835C2.26137 8.72274 2.87324 7.59329 3.87966 6.91151C4.23573 6.72237 4.51538 6.41562 4.672 6.04384C5.20908 4.51985 6.88048 3.71992 8.40447 4.257C9.23963 4.55128 9.89648 5.20868 10.1913 6.04384C10.3447 6.41779 10.6205 6.72941 10.9734 6.92669C11.9798 7.60901 12.5911 8.73791 12.6128 9.95352C12.6046 11.5724 11.2855 12.8779 9.66669 12.8698Z" fill="#EFEFEF"/>
<path d="M3.1592 6.21008C2.8828 6.48269 2.50777 6.63173 2.11973 6.6236H1.90782C1.42385 6.55965 0.975651 6.33419 0.636385 5.983C0.241839 5.60309 0.0136747 5.08281 0.000667705 4.53489C-0.0231785 3.74959 0.594654 3.09382 1.37995 3.06998C1.46883 3.06727 1.55771 3.07323 1.64551 3.08678C2.12677 3.14477 2.57334 3.36534 2.91207 3.7122C3.66376 4.45901 3.76999 5.5787 3.1592 6.20954V6.21008Z" fill="#EFEFEF"/>
<path d="M8.28044 2.7691C8.11081 2.24611 8.15254 1.6776 8.39642 1.18496C8.62405 0.684188 9.03864 0.292894 9.55188 0.0950789C10.2851 -0.18674 11.1084 0.179082 11.3902 0.912894C11.3983 0.934572 11.4065 0.956251 11.4135 0.977929C11.5837 1.50254 11.5419 2.07269 11.2975 2.56695C11.0672 3.07043 10.6488 3.46335 10.1323 3.66171C9.97027 3.72024 9.8001 3.75113 9.62775 3.75276C9.42018 3.75113 9.21532 3.70506 9.02726 3.61672C8.67445 3.44601 8.40564 3.14034 8.28044 2.7691V2.7691Z" fill="#EFEFEF"/>
<path d="M11.9225 3.71283C12.2558 3.36977 12.6948 3.14974 13.1684 3.08741C13.6231 3.01858 14.0843 3.166 14.4144 3.48575C14.6886 3.7654 14.8377 4.14369 14.8279 4.53498C14.8149 5.08236 14.5867 5.60264 14.1922 5.9831C13.8567 6.3267 13.4167 6.54836 12.9408 6.61394H12.7289C12.3409 6.62207 11.9658 6.47303 11.6894 6.20042C11.064 5.57988 11.1697 4.45965 11.9214 3.71338L11.9225 3.71283Z" fill="#EFEFEF"/>
<path d="M14.3089 12.2386C14.6606 12.0722 15.0649 12.0554 15.4291 12.193C16.4827 12.6196 17.0349 13.781 16.7005 14.8671C16.577 15.2345 16.312 15.538 15.964 15.7098C15.7787 15.7998 15.5749 15.8464 15.3689 15.8458C15.1966 15.8442 15.0264 15.8139 14.8644 15.7548C14.3474 15.5591 13.929 15.1673 13.6992 14.6649C13.4499 14.1717 13.4081 13.5994 13.5832 13.0759C13.7013 12.7095 13.9636 12.4071 14.31 12.2386H14.3089Z" fill="#EFEFEF"/>
<path d="M22.7436 22.0468C22.7436 23.6656 21.4316 24.9782 19.8122 24.9782C19.8106 24.9782 19.8089 24.9782 19.8073 24.9782C19.3575 24.9793 18.9136 24.8758 18.511 24.6753C17.9115 24.3778 17.2081 24.3778 16.6087 24.6753C15.1568 25.3912 13.3992 24.7951 12.6833 23.3432C12.4844 22.9399 12.3809 22.4966 12.3809 22.0468C12.4015 20.8296 13.0155 19.699 14.0257 19.02C14.3769 18.8238 14.6506 18.5143 14.8029 18.142C15.34 16.618 17.0114 15.8181 18.5353 16.3551C19.3705 16.6494 20.0273 17.3068 20.3222 18.142C20.4723 18.5165 20.7465 18.8281 21.0993 19.0248C22.1063 19.705 22.7193 20.8323 22.7442 22.0468H22.7436Z" fill="#EFEFEF"/>
<path d="M24.9796 16.6431C24.965 17.1894 24.739 17.7081 24.3488 18.0912C24.0133 18.4348 23.5732 18.6565 23.0974 18.7221H22.8855C22.5072 18.7242 22.1441 18.5752 21.8763 18.3086C21.2509 17.6777 21.3718 16.558 22.1034 15.8112C22.4367 15.4757 22.8708 15.2595 23.3396 15.1956C24.1179 15.0671 24.8522 15.5939 24.9807 16.3716C24.9953 16.4616 25.0018 16.5526 24.9991 16.6437H24.9791L24.9796 16.6431Z" fill="#EFEFEF"/>
<path d="M18.4249 14.8774C18.0911 13.7896 18.646 12.6277 19.7012 12.2033C20.4356 11.9237 21.2577 12.2928 21.5368 13.0271C21.5444 13.0466 21.5515 13.0661 21.558 13.0862C21.7303 13.6103 21.6886 14.1815 21.442 14.6752C21.2117 15.1787 20.7933 15.5716 20.2768 15.77C20.1147 15.8285 19.9446 15.8594 19.7722 15.861C19.1614 15.8594 18.6211 15.4643 18.4352 14.8822L18.4249 14.8774Z" fill="#EFEFEF"/>
</g>
<defs>
<clipPath id="clip0_934_13">
<rect width="25" height="24.9778" fill="white"/>
</clipPath>
</defs>
</svg>
