<svg width="35" height="35" viewBox="0 0 35 35" fill="none" xmlns="http://www.w3.org/2000/svg">
<g clip-path="url(#clip0_934_13)">
<path d="M4.9532 3.59446C4.611 2.90248 4.55258 2.10429 4.79083 1.36982C5.13454 0.324279 6.26051 -0.24326 7.3053 0.101209C7.33565 0.111072 7.36675 0.122453 7.39635 0.133835C8.11487 0.410775 8.69531 0.958587 9.01398 1.65966C9.21657 2.08077 9.32279 2.54132 9.32507 3.00871C9.32658 3.30689 9.27651 3.60356 9.17711 3.8843C9.0026 4.39645 8.63158 4.81831 8.14598 5.05655C7.88422 5.18402 7.59665 5.24927 7.3053 5.247C7.06477 5.24396 6.82577 5.20071 6.59891 5.11953C5.87127 4.84638 5.28021 4.29857 4.9532 3.5937V3.59446Z" fill="#EFEFEF"/>
<path d="M18.6058 25.6459C18.2204 26.0299 17.6946 26.2385 17.1506 26.2249H16.8607C16.1946 26.1353 15.5777 25.8242 15.1088 25.3417C14.5519 24.8121 14.2294 24.0829 14.212 23.3143C14.1771 22.2149 15.0397 21.2953 16.1392 21.2604C16.2719 21.2559 16.4047 21.265 16.5352 21.2877C17.2006 21.3765 17.8167 21.6846 18.2872 22.1633C19.3395 23.1944 19.4807 24.7628 18.6051 25.6452L18.6058 25.6459Z" fill="#EFEFEF"/>
<path d="M13.5338 18.0175C12.904 18.0198 12.2818 17.8749 11.7188 17.5934C10.8797 17.1768 9.89483 17.1768 9.05566 17.5934C7.02299 18.5957 4.56239 17.7611 3.5601 15.7284C3.28164 15.1639 3.13672 14.5432 3.13672 13.9135C3.16631 12.2116 4.02293 10.6304 5.43191 9.67592C5.93041 9.41112 6.32192 8.98167 6.54119 8.46117C7.29311 6.32759 9.63307 5.20769 11.7666 5.9596C12.9359 6.3716 13.8555 7.29195 14.2682 8.46117C14.4829 8.98471 14.8691 9.42098 15.3631 9.69717C16.7721 10.6524 17.6279 12.2329 17.6583 13.9347C17.6469 16.2011 15.8001 18.0289 13.5338 18.0175Z" fill="#EFEFEF"/>
<path d="M4.42288 8.69392C4.03592 9.07557 3.51087 9.28422 2.96762 9.27284H2.67095C1.99339 9.18331 1.36591 8.86767 0.890939 8.37601C0.338575 7.84413 0.0191446 7.11574 0.000934788 6.34865C-0.0324499 5.24923 0.832516 4.33115 1.93193 4.29777C2.05637 4.29398 2.1808 4.30232 2.30372 4.32129C2.97748 4.40248 3.60268 4.71128 4.0769 5.19688C5.12927 6.24243 5.27798 7.80999 4.42288 8.69316V8.69392Z" fill="#EFEFEF"/>
<path d="M11.5911 3.87674C11.3536 3.14456 11.412 2.34864 11.7534 1.65894C12.0721 0.957863 12.6525 0.410051 13.3711 0.13311C14.3976 -0.261435 15.5502 0.250715 15.9447 1.27805C15.9561 1.3084 15.9675 1.33875 15.9773 1.3691C16.2156 2.10356 16.1572 2.90176 15.815 3.59373C15.4925 4.2986 14.9068 4.84869 14.1837 5.12639C13.9568 5.20833 13.7186 5.25158 13.4773 5.25386C13.1867 5.25158 12.8999 5.18709 12.6366 5.06341C12.1427 4.82441 11.7663 4.39648 11.5911 3.87674V3.87674Z" fill="#EFEFEF"/>
<path d="M16.6926 5.19767C17.1593 4.71739 17.7738 4.40934 18.437 4.32209C19.0736 4.22573 19.7193 4.4321 20.1813 4.87976C20.5653 5.27127 20.7739 5.80087 20.7602 6.34868C20.742 7.11501 20.4226 7.84341 19.8702 8.37604C19.4006 8.85709 18.7845 9.16741 18.1183 9.25922H17.8216C17.2784 9.2706 16.7533 9.06195 16.3664 8.6803C15.4908 7.81154 15.6387 6.24322 16.6911 5.19843L16.6926 5.19767Z" fill="#EFEFEF"/>
<path d="M20.0324 17.1341C20.5248 16.9011 21.0909 16.8776 21.6007 17.0703C23.0757 17.6675 23.8489 19.2935 23.3808 20.814C23.2078 21.3284 22.8367 21.7533 22.3496 21.9938C22.0901 22.1198 21.8048 22.185 21.5165 22.1843C21.2752 22.182 21.037 22.1395 20.8101 22.0568C20.0863 21.7829 19.5005 21.2343 19.1788 20.531C18.8298 19.8405 18.7714 19.0393 19.0165 18.3063C19.1819 17.7934 19.5491 17.3701 20.0339 17.1341H20.0324Z" fill="#EFEFEF"/>
<path d="M31.8419 30.8649C31.8419 33.1313 30.005 34.969 27.7379 34.969C27.7356 34.969 27.7333 34.969 27.731 34.969C27.1013 34.9705 26.4799 34.8256 25.9161 34.5448C25.0769 34.1283 24.0921 34.1283 23.2529 34.5448C21.2203 35.5471 18.7597 34.7125 17.7574 32.6798C17.4789 32.1153 17.334 31.4947 17.334 30.8649C17.3628 29.1608 18.2225 27.5781 19.6368 26.6273C20.1284 26.3527 20.5116 25.9194 20.7248 25.3982C21.4767 23.2646 23.8167 22.1447 25.9503 22.8966C27.1195 23.3086 28.0391 24.229 28.4518 25.3982C28.662 25.9225 29.0459 26.3588 29.5399 26.6342C30.9496 27.5864 31.8077 29.1646 31.8426 30.8649H31.8419Z" fill="#EFEFEF"/>
<path d="M34.9722 23.3007C34.9517 24.0655 34.6353 24.7916 34.089 25.328C33.6194 25.8091 33.0033 26.1194 32.3371 26.2112H32.0404C31.5108 26.2142 31.0025 26.0056 30.6277 25.6323C29.7521 24.7491 29.9213 23.1815 30.9456 22.136C31.4122 21.6663 32.02 21.3636 32.6763 21.2741C33.7658 21.0942 34.7939 21.8317 34.9737 22.9205C34.9942 23.0465 35.0033 23.174 34.9995 23.3014H34.9715L34.9722 23.3007Z" fill="#EFEFEF"/>
<path d="M25.7957 20.8286C25.3283 19.3058 26.1052 17.6791 27.5825 17.085C28.6106 16.6935 29.7616 17.2102 30.1524 18.2383C30.163 18.2656 30.1728 18.2929 30.182 18.321C30.4232 19.0547 30.3648 19.8544 30.0196 20.5456C29.6971 21.2505 29.1114 21.8005 28.3883 22.0782C28.1614 22.1602 27.9232 22.2034 27.6819 22.2057C26.8268 22.2034 26.0703 21.6503 25.8101 20.8354L25.7957 20.8286Z" fill="#EFEFEF"/>
</g>
<defs>
<clipPath id="clip0_934_13">
<rect width="35" height="34.9689" fill="white"/>
</clipPath>
</defs>
</svg>
