<svg width="35" height="35" viewBox="0 0 35 35" fill="none" xmlns="http://www.w3.org/2000/svg">
<path d="M21.2267 0.00400925C18.9316 -0.0507147 16.6578 0.455489 14.6027 1.47869C12.5476 2.50189 10.7733 4.01116 9.43366 5.87553C11.322 5.17015 13.4161 4.88947 15.5616 5.15472C22.6374 6.02983 27.6779 12.4958 26.8035 19.5789C26.37 23.1058 24.5405 26.1257 21.9467 28.1683C25.1968 27.925 28.2623 26.5639 30.6224 24.3163C32.9825 22.0687 34.4916 19.0732 34.8933 15.839C35.3523 12.1268 34.3184 8.38429 32.0187 5.4343C29.7191 2.48431 26.342 0.568323 22.6301 0.107611C22.1643 0.0497527 21.6959 0.0151757 21.2267 0.00400925V0.00400925ZM3.10439 5.39058C3.39829 6.17678 3.25134 8.08717 3.03165 8.63825C4.58127 9.32893 4.44166 11.2246 4.20654 11.7904C6.4946 12.1578 6.78851 12.944 6.85463 14.2813C7.83187 13.4069 8.55929 13.0836 10.4109 14.5605C10.6313 14.0094 11.8217 12.5546 13.3647 13.2599C13.5924 12.7089 14.7828 11.2614 15.5249 10.9234C14.195 9.67427 12.4168 9.53466 11.153 9.63753C10.7122 10.7544 9.94065 11.7316 8.91198 11.2614L9.37488 9.51262L8.63277 9.82857L8.35356 9.04972L7.48653 10.6368C6.45051 10.1739 6.58277 8.89542 7.01628 7.80061C6.21539 6.77194 4.87517 5.52284 3.10439 5.39058V5.39058ZM22.0863 20.8133C19.1252 20.8721 16.7299 22.6355 15.2089 24.1271C15.7894 26.0228 15.7894 28.0949 13.9304 28.6827L12.7034 25.9493L12.0641 27.1911L10.8371 26.5445L11.3661 29.4983C9.49245 30.0787 8.33151 28.3741 7.75105 26.4857C5.58863 26.1183 2.50408 26.0596 0 27.8965C1.22486 28.5431 3.02283 31.0927 3.31747 32.0332C6.10885 31.1588 7.93474 33.6938 8.2066 34.649C11.6527 32.5182 12.8724 33.1647 14.386 34.7665C14.7387 32.5843 15.3779 31.3425 19.3897 31.1001C19.1032 30.1596 19.162 27.0294 21.9614 26.1404C21.6675 25.1925 21.7263 22.0551 22.3729 20.8133H22.0863V20.8133Z" fill="#EFEFEF"/>
</svg>
