<svg width="25" height="25" viewBox="0 0 25 25" fill="none" xmlns="http://www.w3.org/2000/svg">
<path d="M9.08626 12.1474C9.08626 12.3774 8.90229 12.5613 8.67232 12.5613H7.11877C6.8888 12.5613 6.70482 12.3774 6.70482 12.1474V10.5938C6.70482 10.3639 6.8888 10.1799 7.11877 10.1799H8.67232C8.90229 10.1799 9.08626 10.3639 9.08626 10.5938V12.1474ZM12.3314 10.5989C12.3314 10.369 12.1474 10.185 11.9174 10.185H10.3639C10.1339 10.185 9.94992 10.369 9.94992 10.5989V12.1525C9.94992 12.3825 10.1339 12.5664 10.3639 12.5664H11.9174C12.1474 12.5664 12.3314 12.3825 12.3314 12.1525V10.5989ZM15.5765 10.5989C15.5765 10.369 15.3925 10.185 15.1625 10.185H13.609C13.379 10.185 13.195 10.369 13.195 10.5989V12.1525C13.195 12.3825 13.379 12.5664 13.609 12.5664H15.1625C15.3925 12.5664 15.5765 12.3825 15.5765 12.1525V10.5989ZM9.08626 13.7572C9.08626 13.5272 8.90229 13.3432 8.67232 13.3432H7.11877C6.8888 13.3432 6.70482 13.5272 6.70482 13.7572V15.3107C6.70482 15.5407 6.8888 15.7247 7.11877 15.7247H8.67232C8.90229 15.7247 9.08626 15.5407 9.08626 15.3107V13.7572ZM12.3314 13.7572C12.3314 13.5272 12.1474 13.3432 11.9174 13.3432H10.3639C10.1339 13.3432 9.94992 13.5272 9.94992 13.7572V15.3107C9.94992 15.5407 10.1339 15.7247 10.3639 15.7247H11.9174C12.1474 15.7247 12.3314 15.5407 12.3314 15.3107V13.7572ZM15.1625 13.3432H13.609C13.379 13.3432 13.195 13.5272 13.195 13.7572V15.3107C13.195 15.5407 13.379 15.7247 13.609 15.7247H15.1625C15.3925 15.7247 15.5765 15.5407 15.5765 15.3107V13.7572C15.5765 13.5272 15.3925 13.3432 15.1625 13.3432ZM5.42212 16.5014H3.87367C3.6437 16.5014 3.45973 16.6854 3.45973 16.9154V18.4689C3.45973 18.6989 3.6437 18.8829 3.87367 18.8829H5.42723C5.6572 18.8829 5.84117 18.6989 5.84117 18.4689V16.9154C5.84117 16.6854 5.65208 16.5014 5.42212 16.5014ZM5.84117 13.7572C5.84117 13.5272 5.6572 13.3432 5.42723 13.3432H3.87367C3.6437 13.3432 3.45973 13.5272 3.45973 13.7572V15.3107C3.45973 15.5407 3.6437 15.7247 3.87367 15.7247H5.42723C5.6572 15.7247 5.84117 15.5407 5.84117 15.3107V13.7572ZM11.9174 16.5014H10.3639C10.1339 16.5014 9.94992 16.6854 9.94992 16.9154V18.4689C9.94992 18.6989 10.1339 18.8829 10.3639 18.8829H11.9174C12.1474 18.8829 12.3314 18.6989 12.3314 18.4689V16.9154C12.3314 16.6854 12.1474 16.5014 11.9174 16.5014ZM8.67232 16.5014H7.11877C6.8888 16.5014 6.70482 16.6854 6.70482 16.9154V18.4689C6.70482 18.6989 6.8888 18.8829 7.11877 18.8829H8.67232C8.90229 18.8829 9.08626 18.6989 9.08626 18.4689V16.9154C9.08626 16.6854 8.90229 16.5014 8.67232 16.5014ZM18.4076 12.5664C18.6376 12.5664 18.8215 12.3825 18.8215 12.1525V10.5989C18.8215 10.369 18.6376 10.185 18.4076 10.185H16.854C16.6241 10.185 16.4401 10.369 16.4401 10.5989V12.1525C16.4401 12.3825 16.6241 12.5664 16.854 12.5664H18.4076ZM2.43765 22.2557H14.2273C14.0382 21.6629 13.9309 21.0292 13.9258 20.3751H2.43765C2.13103 20.3751 1.88573 20.1247 1.88573 19.8232V8.71832H20.37V13.8849C21.0241 13.89 21.6578 13.9871 22.2506 14.1762V4.82931C22.2506 3.48528 21.157 2.39166 19.813 2.39166H17.084V0.889207C17.084 0.39861 16.6854 0 16.1948 0H14.8099C14.3193 0 13.9207 0.39861 13.9207 0.889207V2.39677H8.32993V0.889207C8.32993 0.39861 7.93132 0 7.44072 0H6.05581C5.56521 0 5.1666 0.39861 5.1666 0.889207V2.39677H2.43765C1.09362 2.39677 0 3.49039 0 4.83442V19.8232C0 21.1621 1.09362 22.2557 2.43765 22.2557ZM25 20.3036C25 22.8741 22.915 24.9591 20.3444 24.9591C17.7739 24.9591 15.6889 22.8741 15.6889 20.3036C15.6889 17.733 17.7739 15.648 20.3444 15.648C22.915 15.648 25 17.733 25 20.3036ZM22.6952 19.0975C22.6952 18.9493 22.639 18.8062 22.5317 18.704C22.3119 18.4843 21.9593 18.4843 21.7396 18.704L19.7159 20.7277L18.9391 19.9509C18.7193 19.7312 18.3667 19.7312 18.147 19.9509C18.0397 20.0583 17.9834 20.1962 17.9834 20.3444C17.9834 20.4926 18.0397 20.6357 18.147 20.7379L19.3173 21.9082C19.537 22.128 19.8896 22.128 20.1094 21.9082L22.5266 19.491C22.639 19.3888 22.6952 19.2457 22.6952 19.0975Z" fill="#E1E1E1"/>
</svg>
