<svg width="76" height="76" viewBox="0 0 76 76" fill="none" xmlns="http://www.w3.org/2000/svg">
<path d="M75.5 38.002C75.5 17.293 58.712 0.5 38 0.5C17.288 0.5 0.5 17.293 0.5 38.002C0.5 58.712 17.288 75.5 38 75.5C44.668 75.5 50.918 73.744 56.342 70.691C56.952 70.471 57.391 69.892 57.391 69.205C57.391 68.583 57.03 68.052 56.509 67.792L56.512 67.788L49.983 63.786L49.98 63.79C49.706 63.563 49.359 63.421 48.975 63.421C48.737 63.421 48.514 63.477 48.312 63.57L48.298 63.558C45.115 64.847 41.64 65.561 38 65.561C22.801 65.561 10.44 53.199 10.44 38.002C10.44 22.807 22.802 10.44 38 10.44C52.322 10.44 64.121 21.424 65.434 35.407C65.428 45.419 61.059 51 57.631 51C55.784 51 54.377 49.77 54.377 47.043C54.377 46.516 54.553 45.371 54.641 44.932L58.804 25.014H58.786C58.798 24.943 58.828 24.878 58.828 24.804C58.828 24.07 58.232 23.474 57.498 23.474H50.268C49.611 23.474 49.09 23.959 48.982 24.586L48.957 24.585L48.22 28.134C46.373 24.792 42.591 22.241 37.226 22.241C27.024 22.241 17.349 32.005 17.349 43.79C17.349 52.321 22.45 58.565 30.981 58.565C35.731 58.565 40.568 55.838 43.646 51.53L43.734 52.057C44.349 55.399 53.577 59.633 58.855 59.633C66.506 59.633 75.472 54.477 75.472 39.701L75.45 39.692C75.477 39.13 75.5 38.569 75.5 38.002ZM44.615 44.844C42.68 47.571 39.514 50.649 34.852 50.649C30.366 50.649 27.64 47.483 27.64 42.911C27.64 36.489 32.653 30.157 39.689 30.157C43.647 30.157 45.934 32.708 46.813 34.643L44.615 44.844Z" fill="#EFEFEF"/>
</svg>
