<svg width="11" height="11" viewBox="0 0 11 11" fill="none" xmlns="http://www.w3.org/2000/svg">
<path d="M10.5 5.50027C10.5 2.73907 8.2616 0.5 5.5 0.5C2.7384 0.5 0.5 2.73907 0.5 5.50027C0.5 8.2616 2.7384 10.5 5.5 10.5C6.38907 10.5 7.2224 10.2659 7.9456 9.8588C8.02693 9.82947 8.08547 9.75227 8.08547 9.66067C8.08547 9.57773 8.03733 9.50693 7.96787 9.47227L7.96827 9.47173L7.09773 8.93813L7.09733 8.93867C7.0608 8.9084 7.01453 8.88947 6.96333 8.88947C6.9316 8.88947 6.90187 8.89693 6.87493 8.90933L6.87307 8.90773C6.44867 9.0796 5.98533 9.1748 5.5 9.1748C3.47347 9.1748 1.82533 7.52653 1.82533 5.50027C1.82533 3.47427 3.4736 1.82533 5.5 1.82533C7.4096 1.82533 8.9828 3.28987 9.15787 5.15427C9.15707 6.4892 8.57453 7.23333 8.11747 7.23333C7.8712 7.23333 7.6836 7.06933 7.6836 6.70573C7.6836 6.63547 7.70707 6.4828 7.7188 6.42427L8.27387 3.76853H8.27147C8.27307 3.75907 8.27707 3.7504 8.27707 3.74053C8.27707 3.64267 8.1976 3.5632 8.09973 3.5632H7.13573C7.04813 3.5632 6.97867 3.62787 6.96427 3.71147L6.96093 3.71133L6.86267 4.18453C6.6164 3.73893 6.11213 3.3988 5.3968 3.3988C4.03653 3.3988 2.74653 4.70067 2.74653 6.272C2.74653 7.40947 3.42667 8.242 4.56413 8.242C5.19747 8.242 5.8424 7.8784 6.2528 7.304L6.26453 7.37427C6.34653 7.81987 7.57693 8.3844 8.28067 8.3844C9.3008 8.3844 10.4963 7.69693 10.4963 5.7268L10.4933 5.7256C10.4969 5.65067 10.5 5.57587 10.5 5.50027ZM6.382 6.41253C6.124 6.77613 5.70187 7.18653 5.08027 7.18653C4.48213 7.18653 4.11867 6.7644 4.11867 6.1548C4.11867 5.29853 4.78707 4.45427 5.7252 4.45427C6.25293 4.45427 6.55787 4.7944 6.67507 5.0524L6.382 6.41253Z" fill="#EFEFEF"/>
</svg>
