<svg width="559" height="655" viewBox="0 0 559 655" fill="none" xmlns="http://www.w3.org/2000/svg">
<g clip-path="url(#clip0_857_91)">
<path d="M284.2 650.69C262.74 650.69 241.74 648.67 221.49 644.66C188.33 638.08 157.31 626.12 129.27 609.11C88.29 584.25 53.5 548.42 31.32 508.22C6.61 463.44 -1.87 415.18 6.81 368.65C19.17 302.41 56.21 232.3 57.78 229.35L68.22 209.74L111.58 259.21C122.36 221.65 143.12 175.21 182.94 130.8C253.99 51.5599 345.89 22.8399 394.35 12.7799L431 5.16992L410.23 36.3099C385.52 73.3499 370.12 113.58 364.44 155.88C360.91 182.16 361.28 208.67 365.53 234.93C387.78 224.53 408.29 210.85 425.59 194.79C447.01 174.9 463.53 151.78 474.68 126.07L489.46 91.9999L503.03 126.57C518.52 166.03 530.6 206.98 538.94 248.29C545 278.34 553.31 319.49 554.95 364.44C555.86 389.26 554.6 412.88 551.2 434.64C547.2 460.26 540.12 484.23 530.14 505.89L529.98 506.24C525.26 516.49 517.36 533.64 503.59 552.9C486.76 576.44 466.1 596.02 442.18 611.09C438.66 613.31 435.74 615.03 433.84 616.13C411.59 629.07 365.74 645.64 309.76 649.74C301.18 650.37 292.65 650.68 284.19 650.68L284.2 650.69ZM74.95 263.97C63.32 288.92 44.64 333.11 36.96 374.27C20.42 462.97 79.39 542.94 145.18 582.86C203.72 618.38 265.77 622.19 307.52 619.14C355.03 615.66 397.45 601.8 418.42 589.61C420.25 588.54 422.75 587.07 425.83 585.13C473.78 554.92 493.64 511.81 502.12 493.4L502.28 493.05C540.36 410.39 520.64 312.71 508.87 254.35C503.12 225.84 495.5 197.51 486.14 169.76C475.23 186.98 461.96 202.87 446.46 217.26C421.64 240.3 392.4 258.29 359.54 270.73L343.11 276.95L339.17 259.83C330.94 224.12 329.22 187.77 334.05 151.79C337.69 124.67 345.08 97.9199 356.01 72.2699C358.95 65.3799 362.15 58.5499 365.6 51.8199C319.21 66.0899 256.54 94.6599 205.78 151.26C159.36 203.02 141.53 257.71 134.75 294.47C134.75 294.47 134.75 294.49 134.75 294.51C134.14 297.8 133.87 301.14 134.1 304.48L132.15 331.55L103.25 296.21C96.68 288.71 84.7 275.04 74.98 263.96L74.95 263.97Z" fill="#377EBC" stroke="#377EBC" stroke-width="7" stroke-miterlimit="10"/>
<path d="M282 573.11C261.52 573.11 240.6 569.66 220.25 562.76C179.55 548.97 145.54 522.78 124.48 489.02C106.47 460.15 97.8 425.27 99.42 388.16L101.15 348.66L126.51 378.98C133.09 386.85 139.14 391.86 144.12 395.04C145.64 385 148.02 371.7 151.67 356.5C162.39 311.85 178.28 273.67 198.91 243.03C218.15 214.44 245.54 191.43 280.3 174.63L304.28 163.04L302.27 189.6C300.33 215.23 301.03 241.14 304.35 266.61C307.14 288.02 311.8 309.27 318.24 329.91C325.36 330.88 332.49 330.99 339.52 330.25C353.44 328.77 363.21 324.38 382.24 315.39C396.04 308.87 409.61 301.21 422.57 292.64L438.7 281.97L445.42 300.11C455.97 328.6 460.64 358.1 459.3 387.8C458.03 415.91 451.49 442.88 439.86 467.95C429.52 490.22 415.7 509.79 398.77 526.1C381.35 542.89 361.52 555.38 339.83 563.22C321.61 569.81 302.02 573.1 282.01 573.1L282 573.11ZM132.12 423.54C134.78 439.2 140.22 456.32 150.5 472.79C185.95 529.6 266.19 557.24 329.38 534.38C364.36 521.73 394.48 492.81 412.01 455.04C430.24 415.77 433.77 371.6 422.39 328.87C413.53 334.04 404.48 338.82 395.33 343.14C376.24 352.16 362.45 358.68 342.73 360.77C329.57 362.17 316.21 361.33 303.01 358.3L294.66 356.38L291.92 348.26C283.41 323.07 277.35 296.94 273.91 270.59C271.52 252.29 270.39 233.79 270.51 215.3C251.53 227.74 236.06 242.76 224.34 260.17C201.31 294.38 188.4 335.03 181.62 363.1C174.17 393.97 172.28 416.89 172.26 417.12L171.13 431.25H156.95C155.29 431.25 145.48 430.9 132.1 423.53L132.12 423.54Z" fill="#377EBC" stroke="#377EBC" stroke-width="7" stroke-miterlimit="10"/>
<path d="M367.41 429.19H374.41C377.87 429.19 380.67 426.39 380.67 422.93V417.34L367.41 429.18V429.19Z" fill="#377EBC" stroke="#377EBC" stroke-width="10" stroke-miterlimit="10"/>
<path d="M381.41 431.53H334.21L403 370.08V409.94C403 421.85 393.31 431.54 381.4 431.54L381.41 431.53ZM374.25 404.35H374.41V404.15C374.36 404.21 374.3 404.28 374.25 404.35Z" fill="#377EBC" stroke="#377EBC" stroke-width="10" stroke-miterlimit="10"/>
<path d="M230.53 452.32L223.86 454.44C220.57 455.49 217.05 453.67 216 450.38L214.31 445.06L230.53 452.32Z" fill="#377EBC" stroke="#377EBC" stroke-width="10" stroke-miterlimit="10"/>
<path d="M228.98 457.08C219.83 457.08 211.31 451.21 208.39 442.03L196.3 404.05L280.49 441.74L235.51 456.05C233.34 456.74 231.14 457.07 228.97 457.07L228.98 457.08ZM233.88 427.85L233.94 428.04L234.09 427.99C234.02 427.94 233.95 427.9 233.88 427.85Z" fill="#377EBC" stroke="#377EBC" stroke-width="10" stroke-miterlimit="10"/>
<path d="M259.81 481.38C267.2 480.35 275.65 479.69 283.01 478.88C296 477.49 308.74 475.85 321.02 473.29C334.18 470.67 347.66 467.07 360.71 463.51C363.29 462.83 365.95 462.1 368.89 461.46C368.45 464.44 367.58 467.19 366.49 469.84C358.69 488.56 340.04 501.17 320.41 504.66C298.32 508.75 271.97 501.12 259.81 481.38Z" fill="#377EBC" stroke="#377EBC" stroke-width="10" stroke-miterlimit="10"/>
</g>
<defs>
<clipPath id="clip0_857_91">
<rect width="558.74" height="654.19" fill="white"/>
</clipPath>
</defs>
</svg>
