<svg width="552" height="646" viewBox="0 0 552 646" fill="none" xmlns="http://www.w3.org/2000/svg">
<g clip-path="url(#clip0_856_2)">
<path d="M280.7 645.52C259.24 645.52 238.24 643.5 217.99 639.49C184.83 632.91 153.81 620.95 125.77 603.94C84.79 579.08 50 543.25 27.82 503.05C3.11 458.28 -5.37 410.02 3.31 363.49C15.67 297.25 52.71 227.14 54.28 224.19L64.72 204.58L108.08 254.05C118.86 216.49 139.62 170.05 179.44 125.64C250.49 46.4 342.39 17.68 390.85 7.61L427.51 0L406.74 31.14C382.03 68.18 366.63 108.41 360.95 150.71C357.42 176.99 357.79 203.5 362.04 229.76C384.29 219.36 404.8 205.68 422.1 189.62C443.52 169.73 460.04 146.61 471.19 120.9L485.97 86.83L499.54 121.4C515.03 160.86 527.11 201.81 535.45 243.12C541.51 273.17 549.82 314.32 551.46 359.27C552.37 384.09 551.11 407.71 547.71 429.47C543.71 455.09 536.63 479.06 526.65 500.72L526.49 501.07C521.77 511.32 513.87 528.47 500.1 547.73C483.27 571.27 462.61 590.85 438.69 605.92C435.17 608.14 432.25 609.86 430.35 610.96C408.1 623.9 362.25 640.47 306.27 644.57C297.69 645.2 289.16 645.51 280.7 645.51V645.52ZM71.45 258.81C59.82 283.76 41.14 327.95 33.46 369.11C16.92 457.81 75.89 537.78 141.68 577.7C200.22 613.22 262.27 617.03 304.02 613.98C351.53 610.5 393.95 596.64 414.92 584.45C416.75 583.38 419.25 581.91 422.33 579.97C470.28 549.76 490.14 506.65 498.62 488.24L498.78 487.89C536.86 405.23 517.14 307.55 505.37 249.19C499.62 220.68 492 192.35 482.64 164.6C471.73 181.82 458.46 197.71 442.96 212.1C418.14 235.14 388.9 253.13 356.04 265.57L339.61 271.79L335.67 254.67C327.44 218.96 325.72 182.61 330.55 146.63C334.19 119.51 341.58 92.76 352.51 67.11C355.45 60.22 358.65 53.39 362.1 46.66C315.71 60.93 253.04 89.5 202.28 146.1C155.86 197.86 138.03 252.55 131.25 289.31C131.25 289.31 131.25 289.33 131.25 289.35C130.64 292.64 130.37 295.98 130.6 299.32L128.65 326.39L99.75 291.05C93.18 283.55 81.2 269.88 71.48 258.8L71.45 258.81Z" fill="#EFEFEF"/>
<path d="M278.5 567.95C258.02 567.95 237.1 564.5 216.75 557.6C176.05 543.81 142.04 517.62 120.98 483.86C102.97 454.99 94.3 420.11 95.92 383L97.65 343.5L123.01 373.82C129.59 381.69 135.64 386.7 140.62 389.88C142.14 379.84 144.52 366.54 148.17 351.34C158.89 306.69 174.78 268.51 195.41 237.87C214.65 209.28 242.04 186.27 276.8 169.47L300.78 157.88L298.77 184.44C296.83 210.07 297.53 235.98 300.85 261.45C303.64 282.86 308.3 304.11 314.74 324.75C321.86 325.72 328.99 325.83 336.02 325.09C349.94 323.61 359.71 319.22 378.74 310.23C392.54 303.71 406.11 296.05 419.07 287.48L435.2 276.81L441.92 294.95C452.47 323.44 457.14 352.94 455.8 382.64C454.53 410.75 447.99 437.72 436.36 462.79C426.02 485.06 412.2 504.63 395.27 520.94C377.85 537.73 358.02 550.22 336.33 558.06C318.11 564.65 298.52 567.94 278.51 567.94L278.5 567.95ZM128.62 418.38C131.28 434.04 136.72 451.16 147 467.63C182.45 524.44 262.69 552.08 325.88 529.22C360.86 516.57 390.98 487.65 408.51 449.88C426.74 410.61 430.27 366.44 418.89 323.71C410.03 328.88 400.98 333.66 391.83 337.98C372.74 347 358.95 353.52 339.23 355.61C326.07 357.01 312.71 356.17 299.51 353.14L291.16 351.22L288.42 343.1C279.91 317.91 273.85 291.78 270.41 265.43C268.02 247.13 266.89 228.63 267.01 210.14C248.03 222.58 232.56 237.6 220.84 255.01C197.81 289.22 184.9 329.87 178.12 357.94C170.67 388.81 168.78 411.73 168.76 411.96L167.63 426.09H153.45C151.79 426.09 141.98 425.74 128.6 418.37L128.62 418.38Z" fill="#EFEFEF"/>
<path d="M363.91 424.02H370.91C374.37 424.02 377.17 421.22 377.17 417.76V412.17L363.91 424.01V424.02Z" fill="#EFEFEF"/>
<path d="M370.91 439.36H323.71L392.5 377.91V417.77C392.5 429.68 382.81 439.37 370.9 439.37L370.91 439.36ZM363.75 412.18H363.91V411.98C363.86 412.04 363.8 412.11 363.75 412.18Z" fill="#EFEFEF"/>
<path d="M227.03 447.16L220.36 449.28C217.07 450.33 213.55 448.51 212.5 445.22L210.81 439.9L227.03 447.16Z" fill="#EFEFEF"/>
<path d="M218.48 464.92C209.33 464.92 200.81 459.05 197.89 449.87L185.8 411.89L269.99 449.58L225.01 463.89C222.84 464.58 220.64 464.91 218.47 464.91L218.48 464.92ZM223.38 435.69L223.44 435.88L223.59 435.83C223.52 435.78 223.45 435.74 223.38 435.69Z" fill="#EFEFEF"/>
<path d="M249.31 477.22C256.7 476.19 265.15 475.53 272.51 474.72C285.5 473.33 298.24 471.69 310.52 469.13C323.68 466.51 337.16 462.91 350.21 459.35C352.79 458.67 355.45 457.94 358.39 457.3C357.95 460.28 357.08 463.03 355.99 465.68C348.19 484.4 329.54 497.01 309.91 500.5C287.82 504.59 261.47 496.96 249.31 477.22V477.22Z" fill="#EFEFEF"/>
</g>
<defs>
<clipPath id="clip0_856_2">
<rect width="551.74" height="645.52" fill="white"/>
</clipPath>
</defs>
</svg>
