<svg width="683" height="483" viewBox="0 0 683 483" fill="none" xmlns="http://www.w3.org/2000/svg">
<g clip-path="url(#clip0_856_78)">
<path d="M155.54 242.24H80.54V482.44H155.54V242.24Z" fill="#EFEFEF"/>
<path d="M598.25 23.2197H523.25V482.43H598.25V23.2197Z" fill="#EFEFEF"/>
<path d="M340.294 -0.0080884L292.367 57.6802L634.235 341.706L682.163 284.018L340.294 -0.0080884Z" fill="#EFEFEF"/>
<path d="M341.868 0.00613261L0.000289917 284.032L47.928 341.72L389.796 57.6944L341.868 0.00613261Z" fill="#EFEFEF"/>
<path d="M491.43 23.2197H416.43V143.32H491.43V23.2197Z" fill="#EFEFEF"/>
<path d="M421.483 22.9331L421.024 97.9316L597.661 99.0107L598.119 24.0121L421.483 22.9331Z" fill="#EFEFEF"/>
<path d="M357.9 75.9497H312.9V482.44H357.9V75.9497Z" fill="#EFEFEF"/>
<path d="M342.84 245.64H128.97V290.64H342.84V245.64Z" fill="#EFEFEF"/>
<path d="M442.05 362.34C465.99 362.34 485.42 381.77 485.42 405.71V482.44H398.68V405.71C398.68 381.77 418.11 362.34 442.05 362.34Z" fill="#EFEFEF"/>
</g>
<defs>
<clipPath id="clip0_856_78">
<rect width="682.17" height="482.44" fill="white"/>
</clipPath>
</defs>
</svg>
