<svg width="654" height="680" viewBox="0 0 654 680" fill="none" xmlns="http://www.w3.org/2000/svg">
<g clip-path="url(#clip0_856_69)">
<path d="M649.01 555.94C638.38 527.58 620.86 501.88 598.35 481.62L579.78 465.71C563.09 451.41 546.86 436.17 531.56 420.4L505.66 393.71C499.9 387.77 496.05 380.33 494.54 372.19L486.55 329.25C486.36 328.25 486.17 327.26 485.98 326.27C475.83 275.01 446.92 229.22 404.59 197.35L398.77 192.97C376.88 176.49 352.59 163.8 326.56 155.23L301.43 146.96L300.15 146.74C288.11 144.69 277.9 136.34 273.49 124.96L225.11 0L186.03 31.06C159.5 52.15 135.6 76.23 114.74 102.85C122.84 111.36 130.65 120.15 138.13 129.22C158.09 102.91 181.37 79.05 207.6 58.21L209.8 56.46L241.19 137.5C241.37 137.97 241.56 138.43 241.75 138.89C245 148.33 248.25 157.77 251.41 167.25C253.07 172.23 254.74 177.2 256.42 182.17C257.11 184.21 257.94 186.21 258.78 188.21C259.53 190.49 260.29 192.78 260.95 195.1C262.55 200.79 264.3 206.43 266.34 211.97C268.21 217.06 269.17 222.45 270.99 227.57C271.13 227.96 271.34 228.28 271.59 228.55C271.9 229.93 272.36 231.23 273.09 232.39C273.69 233.35 275.07 233.02 275.52 232.13C276.08 231.02 276.4 229.8 276.56 228.52C276.8 228.19 276.94 227.78 276.93 227.3C276.93 226.59 276.91 225.88 276.9 225.17C277.26 224.96 277.52 224.58 277.54 223.99C277.75 219.13 277.85 214.25 278.12 209.39C278.38 204.75 279.12 200.11 279.16 195.45C279.22 188.99 278.75 182.58 278.32 176.16C283.02 178.2 287.94 179.73 293 180.7L315.76 188.19C338.18 195.57 359.1 206.5 377.95 220.69L383.77 225.07C419.28 251.8 443.52 290.14 452.01 333.03C452.18 333.89 452.35 334.76 452.51 335.62L460.5 378.56C463.27 393.43 470.29 407.02 480.83 417.87L506.73 444.56C522.77 461.09 539.78 477.07 557.28 492.06L560.62 494.92C556.4 496.26 552.29 497.92 548.3 499.86C547.14 500.42 545.99 501.01 544.85 501.61C541.08 503.24 537.35 504.97 533.65 506.75C531.47 507.76 529.31 508.8 527.17 509.89C525.4 510.79 524.12 512.38 523.63 514.19C520.98 517.17 521.12 522.05 523.36 525.4C531.57 537.68 540.39 549.54 549.82 560.91C554.49 566.54 559.3 572.05 564.25 577.44C566.91 580.33 569.73 583.17 572.6 585.9C572.94 586.94 573.2 588 573.39 589.08C573.18 590.34 572.87 591.59 572.47 592.82C572.22 593.58 571.93 594.31 571.62 595.04C567.58 597.17 514.32 640.81 514.32 640.81L497.17 643.61C479.28 646.53 461.21 643.87 444.92 635.93L369.57 599.2C361.58 595.3 353.35 591.61 345.12 588.23L265.3 555.42C257.02 552.02 248.83 548.38 240.75 544.53C238.34 556.13 235.54 567.58 232.33 578.86C238.87 581.87 245.47 584.75 252.12 587.48L331.94 620.29C339.49 623.4 347.04 626.78 354.38 630.36L429.73 667.09C452.5 678.19 477.75 681.9 502.75 677.82L523.45 674.44C523.94 674.36 524.43 674.27 524.91 674.16C536.7 671.63 566.02 633.59 566.02 633.59C581.42 630.28 595.57 622.77 606.95 611.89L653.38 567.46L649.06 555.96L649.01 555.94Z" fill="#EFEFEF"/>
<path d="M159.2 505.48C159.2 525.61 149.2 535.67 129.22 535.67H29.77C9.92 535.67 0 525.61 0 505.48V426.72H49.41V494.08H109.8V429.26L10.77 335.51C3.59 328.62 0 319.82 0 309.12V235.64C0 215.37 9.92 205.24 29.77 205.24H129.22C149.21 205.24 159.2 215.24 159.2 235.22V309.12H109.79V246.83H49.41V306.58L148.44 399.91C155.62 406.67 159.21 415.61 159.21 426.73V505.49L159.2 505.48Z" fill="#EFEFEF"/>
<path d="M398.2 353.25C398.08 353.38 397.94 353.5 397.79 353.61C397.69 353.3 397.59 352.99 397.49 352.67C396.32 353.17 395.25 353.93 394.21 354.76C393.17 354.76 392.13 354.72 391.13 354.8C389.17 354.96 387.22 354.81 385.26 354.75C381.63 354.63 378.1 353.96 374.51 353.63C371.03 353.31 367.7 352.44 364.27 351.93C363.72 351.85 363.2 351.76 362.69 351.65C356.43 349.32 350.08 347.21 343.67 345.33C336.28 343.17 328.8 341.27 321.26 339.69C313.96 338.15 307.07 336.49 299.72 335.52C297.27 335.2 294.63 336.9 293.4 338.91C291.96 341.24 292.2 343.67 293.22 346.08C298.68 358.97 310.43 368.41 320.64 377.48C323.35 379.89 326.03 382.35 328.8 384.68C331.85 387.25 335.34 389.11 338.38 391.7C341.12 394.04 343.87 396.37 346.62 398.69C349.6 401.2 352.83 403.57 355.58 406.32C355.89 406.63 356.24 406.89 356.62 407.09C356.91 407.37 357.22 407.62 357.56 407.84C360.51 409.76 364.46 409.64 366.7 406.74C368.69 404.17 369.82 400.47 371.2 397.54C371.6 396.7 371.98 395.86 372.35 395.01C372.59 394.75 372.81 394.43 372.98 394.04C374.07 391.53 375.15 389.02 376.24 386.51C376.39 386.22 376.53 385.92 376.68 385.63C377.15 384.71 377.67 383.76 378.2 382.79C378.73 382.07 379.26 381.34 379.79 380.62C382.54 376.94 385.99 373.4 388.59 369.47C389.2 369.39 389.8 369.29 390.41 369.14C393.39 368.42 396.01 366.69 398.17 364.57C400.94 361.85 403.66 359.29 403.61 355.2C403.58 352.48 399.99 351.32 398.21 353.23L398.2 353.25ZM343.05 379.09C341.68 377.42 340.38 375.66 338.79 374.19C336.11 371.7 333.36 369.27 330.65 366.81C325.75 362.34 320.67 358.04 315.96 353.37C315.33 352.75 314.73 352.14 314.16 351.54C315.23 351.69 316.31 351.85 317.38 352.03C323.53 353.07 329.65 354.52 335.69 356.07C341.76 357.63 347.76 359.43 353.7 361.43C356.78 362.46 359.82 363.63 362.92 364.6C364.11 364.97 365.29 365.39 366.46 365.83C362.3 373.99 358.75 382.45 356.08 391.2C355.66 390.81 355.24 390.42 354.81 390.04C352.07 387.57 349.33 385.09 346.6 382.61C345.35 381.48 344.11 380.4 343.04 379.1L343.05 379.09Z" fill="#EFEFEF"/>
<path d="M299.09 335.5C296.82 335.5 294.51 337.09 293.38 338.93C291.95 341.26 292.18 343.69 293.2 346.1C298.66 358.99 310.41 368.43 320.62 377.5C323.33 379.91 326.01 382.37 328.78 384.7C331.83 387.27 335.32 389.13 338.36 391.72C341.1 394.06 343.84 396.39 346.6 398.71C349.58 401.22 352.81 403.59 355.56 406.34C355.87 406.65 356.22 406.91 356.6 407.11C356.89 407.39 357.2 407.64 357.54 407.86C358.83 408.7 360.3 409.15 361.74 409.15C363.61 409.15 365.41 408.4 366.68 406.76C368.67 404.19 369.8 400.49 371.18 397.56C371.58 396.72 371.96 395.88 372.33 395.03C372.57 394.77 372.79 394.45 372.96 394.06C374.05 391.55 375.13 389.04 376.22 386.53C376.37 386.24 376.51 385.94 376.66 385.65C377.13 384.73 377.65 383.78 378.18 382.81C378.71 382.09 379.24 381.36 379.77 380.64C382.52 376.96 385.97 373.42 388.57 369.49C389.18 369.41 389.78 369.31 390.39 369.16C393.37 368.44 395.99 366.71 398.15 364.59C400.92 361.87 403.64 359.31 403.59 355.22C403.57 353.42 402 352.3 400.42 352.3C399.61 352.3 398.8 352.59 398.2 353.24C398.08 353.37 397.94 353.49 397.79 353.6C397.69 353.29 397.59 352.98 397.49 352.66C396.32 353.16 395.25 353.92 394.21 354.75C394.17 354.75 394.13 354.75 394.09 354.75C393.62 354.75 393.16 354.75 392.69 354.75C392.16 354.75 391.63 354.75 391.12 354.8C390.47 354.85 389.82 354.87 389.18 354.87C387.87 354.87 386.57 354.79 385.26 354.75C381.63 354.63 378.1 353.96 374.51 353.63C371.03 353.31 367.7 352.44 364.27 351.93C363.72 351.85 363.2 351.76 362.69 351.65C356.43 349.32 350.08 347.21 343.67 345.33C336.28 343.17 328.8 341.27 321.26 339.69C313.96 338.15 307.07 336.49 299.72 335.52C299.52 335.49 299.31 335.48 299.11 335.48L299.09 335.5ZM356.08 391.2C355.66 390.81 355.24 390.42 354.81 390.04C352.07 387.57 349.33 385.09 346.6 382.61C345.35 381.48 344.11 380.4 343.04 379.1C341.67 377.43 340.37 375.67 338.78 374.2C336.1 371.71 333.35 369.28 330.64 366.82C325.74 362.35 320.66 358.05 315.95 353.38C315.32 352.76 314.72 352.15 314.15 351.55C315.22 351.7 316.3 351.86 317.37 352.04C323.52 353.08 329.64 354.53 335.68 356.08C341.75 357.64 347.75 359.44 353.69 361.44C356.77 362.47 359.81 363.64 362.91 364.61C364.1 364.98 365.28 365.4 366.45 365.84C362.29 374 358.74 382.46 356.07 391.21L356.08 391.2Z" fill="#EFEFEF"/>
</g>
<defs>
<clipPath id="clip0_856_69">
<rect width="653.33" height="679.4" fill="white"/>
</clipPath>
</defs>
</svg>
