<svg width="742" height="732" viewBox="0 0 742 732" fill="none" xmlns="http://www.w3.org/2000/svg">
<g clip-path="url(#clip0_856_40)">
<path d="M652.14 670.64H96.78L69.77 643.63V88.2698L96.78 61.2598H652.14L679.15 88.2698V643.63L652.14 670.64ZM123.79 616.62H625.13V115.28H123.79V616.62V616.62Z" fill="#EFEFEF"/>
<path d="M477.57 496.07H271.35L244.34 469.06V262.84L271.35 235.83H477.57L504.58 262.84V469.06L477.57 496.07V496.07ZM298.36 442.05H450.56V289.85H298.36V442.05Z" fill="#EFEFEF"/>
<path d="M455.37 148.93H293.54V202.95H455.37V148.93Z" fill="#EFEFEF"/>
<path d="M408.21 527.88H293.54V581.9H408.21V527.88Z" fill="#EFEFEF"/>
<path d="M212 356.8H157.98V471.47H212V356.8Z" fill="#EFEFEF"/>
<path d="M199.68 205.34C215.917 205.34 229.08 192.177 229.08 175.94C229.08 159.703 215.917 146.54 199.68 146.54C183.443 146.54 170.28 159.703 170.28 175.94C170.28 192.177 183.443 205.34 199.68 205.34Z" fill="#EFEFEF"/>
<path d="M558.71 205.34C574.947 205.34 588.11 192.177 588.11 175.94C588.11 159.703 574.947 146.54 558.71 146.54C542.473 146.54 529.31 159.703 529.31 175.94C529.31 192.177 542.473 205.34 558.71 205.34Z" fill="#EFEFEF"/>
<path d="M558.71 584.29C574.947 584.29 588.11 571.127 588.11 554.89C588.11 538.653 574.947 525.49 558.71 525.49C542.473 525.49 529.31 538.653 529.31 554.89C529.31 571.127 542.473 584.29 558.71 584.29Z" fill="#EFEFEF"/>
<path d="M199.68 584.29C215.917 584.29 229.08 571.127 229.08 554.89C229.08 538.653 215.917 525.49 199.68 525.49C183.443 525.49 170.28 538.653 170.28 554.89C170.28 571.127 183.443 584.29 199.68 584.29Z" fill="#EFEFEF"/>
<path d="M585.72 261.35H531.7V376.02H585.72V261.35Z" fill="#EFEFEF"/>
<path d="M635.67 0H581.65V84.35H635.67V0Z" fill="#EFEFEF"/>
<path d="M481.27 0H427.25V84.35H481.27V0Z" fill="#EFEFEF"/>
<path d="M329.63 0H275.61V84.35H329.63V0Z" fill="#EFEFEF"/>
<path d="M175.23 0H121.21V84.35H175.23V0Z" fill="#EFEFEF"/>
<path d="M635.67 646.67H581.65V731.02H635.67V646.67Z" fill="#EFEFEF"/>
<path d="M481.27 646.67H427.25V731.02H481.27V646.67Z" fill="#EFEFEF"/>
<path d="M329.63 646.67H275.61V731.02H329.63V646.67Z" fill="#EFEFEF"/>
<path d="M175.23 646.67H121.21V731.02H175.23V646.67Z" fill="#EFEFEF"/>
<path d="M84.35 111.49H0V165.51H84.35V111.49Z" fill="#EFEFEF"/>
<path d="M84.35 263.12H0V317.14H84.35V263.12Z" fill="#EFEFEF"/>
<path d="M84.35 414.76H0V468.78H84.35V414.76Z" fill="#EFEFEF"/>
<path d="M84.35 566.39H0V620.41H84.35V566.39Z" fill="#EFEFEF"/>
<path d="M741.29 566.39H656.94V620.41H741.29V566.39Z" fill="#EFEFEF"/>
<path d="M741.29 414.76H656.94V468.78H741.29V414.76Z" fill="#EFEFEF"/>
<path d="M741.29 263.12H656.94V317.14H741.29V263.12Z" fill="#EFEFEF"/>
<path d="M741.29 111.49H656.94V165.51H741.29V111.49Z" fill="#EFEFEF"/>
</g>
<defs>
<clipPath id="clip0_856_40">
<rect width="741.29" height="731.02" fill="white"/>
</clipPath>
</defs>
</svg>
